<?xml version="1.0" encoding="UTF-8"?>
<svg id="Layer_1" data-name="Layer 1" xmlns="http://www.w3.org/2000/svg" viewBox="0 0 1935 2116">
  <g>
    <rect x=".5" y=".5" width="1934" height="2115" style="fill: #f5e9db;"/>
    <path d="m1934,1v2114H1V1h1933m1-1H0v2116h1935V0h0Z"/>
  </g>
  <g style="opacity: .57;">
    <circle cx="133" cy="674" r="230" style="fill: #aac6dc;"/>
  </g>
  <g style="opacity: .63;">
    <circle cx="1646" cy="788" r="273" style="fill: #e9d6dc;"/>
  </g>
  <g style="opacity: .45;">
    <circle cx="1433.76" cy="1014.49" r="103.24" style="fill: #f2ce6e;"/>
  </g>
  <g style="opacity: .35;">
    <circle cx="441" cy="1688" r="396" style="fill: #2b9f94;"/>
  </g>
  <g>
    <g>
      <circle cx="94.5" cy="1848.09" r="8.1" style="fill: #aac6dc;"/>
      <circle cx="72.5" cy="1848.09" r="8.1" style="fill: #aac6dc;"/>
      <circle cx="117.4" cy="1848.09" r="8.1" style="fill: #aac6dc;"/>
      <circle cx="140.9" cy="1848.09" r="8.1" style="fill: #aac6dc;"/>
      <circle cx="163.8" cy="1848.09" r="8.1" style="fill: #aac6dc;"/>
    </g>
    <g>
      <circle cx="210" cy="1848.09" r="8.1" style="fill: #aac6dc;"/>
      <circle cx="188" cy="1848.09" r="8.1" style="fill: #aac6dc;"/>
      <circle cx="232.9" cy="1848.09" r="8.1" style="fill: #aac6dc;"/>
      <circle cx="256.5" cy="1848.09" r="8.1" style="fill: #aac6dc;"/>
      <circle cx="279.4" cy="1848.09" r="8.1" style="fill: #aac6dc;"/>
    </g>
    <g>
      <circle cx="94.4" cy="1869.09" r="8.1" style="fill: #aac6dc;"/>
      <circle cx="72.4" cy="1869.09" r="8.1" style="fill: #aac6dc;"/>
      <circle cx="117.3" cy="1869.09" r="8.1" style="fill: #aac6dc;"/>
      <circle cx="140.9" cy="1869.09" r="8.1" style="fill: #aac6dc;"/>
      <circle cx="163.8" cy="1869.09" r="8.1" style="fill: #aac6dc;"/>
    </g>
    <g>
      <circle cx="210" cy="1869.09" r="8.1" style="fill: #aac6dc;"/>
      <circle cx="188" cy="1869.09" r="8.1" style="fill: #aac6dc;"/>
      <circle cx="232.9" cy="1869.09" r="8.1" style="fill: #aac6dc;"/>
      <circle cx="256.4" cy="1869.09" r="8.1" style="fill: #aac6dc;"/>
      <circle cx="279.3" cy="1869.09" r="8.1" style="fill: #aac6dc;"/>
    </g>
    <g>
      <circle cx="94" cy="1893.09" r="8.1" style="fill: #aac6dc;"/>
      <circle cx="72" cy="1893.09" r="8.1" style="fill: #aac6dc;"/>
      <circle cx="116.9" cy="1893.09" r="8.1" style="fill: #aac6dc;"/>
      <circle cx="140.5" cy="1893.09" r="8.1" style="fill: #aac6dc;"/>
      <circle cx="163.4" cy="1893.09" r="8.1" style="fill: #aac6dc;"/>
    </g>
    <g>
      <circle cx="209.5" cy="1893.09" r="8.1" style="fill: #aac6dc;"/>
      <circle cx="187.5" cy="1893.09" r="8.1" style="fill: #aac6dc;"/>
      <circle cx="232.4" cy="1893.09" r="8.1" style="fill: #aac6dc;"/>
      <circle cx="256" cy="1893.09" r="8.1" style="fill: #aac6dc;"/>
      <circle cx="278.9" cy="1893.09" r="8.1" style="fill: #aac6dc;"/>
    </g>
    <g>
      <circle cx="94" cy="1914.09" r="8.1" style="fill: #aac6dc;"/>
      <circle cx="72" cy="1914.09" r="8.1" style="fill: #aac6dc;"/>
      <circle cx="116.9" cy="1914.09" r="8.1" style="fill: #aac6dc;"/>
      <circle cx="140.4" cy="1914.09" r="8.1" style="fill: #aac6dc;"/>
      <circle cx="163.3" cy="1914.09" r="8.1" style="fill: #aac6dc;"/>
    </g>
    <g>
      <circle cx="209.5" cy="1914.09" r="8.1" style="fill: #aac6dc;"/>
      <circle cx="187.5" cy="1914.09" r="8.1" style="fill: #aac6dc;"/>
      <circle cx="232.4" cy="1914.09" r="8.1" style="fill: #aac6dc;"/>
      <circle cx="256" cy="1914.09" r="8.1" style="fill: #aac6dc;"/>
      <circle cx="278.9" cy="1914.09" r="8.1" style="fill: #aac6dc;"/>
    </g>
    <g>
      <circle cx="93.4" cy="1938.79" r="8.1" style="fill: #aac6dc;"/>
      <circle cx="71.4" cy="1938.79" r="8.1" style="fill: #aac6dc;"/>
      <circle cx="116.3" cy="1938.79" r="8.1" style="fill: #aac6dc;"/>
      <circle cx="139.9" cy="1938.79" r="8.1" style="fill: #aac6dc;"/>
      <circle cx="162.8" cy="1938.79" r="8.1" style="fill: #aac6dc;"/>
    </g>
    <g>
      <circle cx="208.9" cy="1938.79" r="8.1" style="fill: #aac6dc;"/>
      <circle cx="187" cy="1938.79" r="8.1" style="fill: #aac6dc;"/>
      <circle cx="231.9" cy="1938.79" r="8.1" style="fill: #aac6dc;"/>
      <circle cx="255.4" cy="1938.79" r="8.1" style="fill: #aac6dc;"/>
      <circle cx="278.3" cy="1938.79" r="8.1" style="fill: #aac6dc;"/>
    </g>
    <g>
      <circle cx="93.4" cy="1959.79" r="8.1" style="fill: #aac6dc;"/>
      <circle cx="71.4" cy="1959.79" r="8.1" style="fill: #aac6dc;"/>
      <circle cx="116.3" cy="1959.79" r="8.1" style="fill: #aac6dc;"/>
      <circle cx="139.9" cy="1959.79" r="8.1" style="fill: #aac6dc;"/>
      <circle cx="162.8" cy="1959.79" r="8.1" style="fill: #aac6dc;"/>
    </g>
    <g>
      <circle cx="208.9" cy="1959.79" r="8.1" style="fill: #aac6dc;"/>
      <circle cx="186.9" cy="1959.79" r="8.1" style="fill: #aac6dc;"/>
      <circle cx="231.8" cy="1959.79" r="8.1" style="fill: #aac6dc;"/>
      <circle cx="255.4" cy="1959.79" r="8.1" style="fill: #aac6dc;"/>
      <circle cx="278.3" cy="1959.79" r="8.1" style="fill: #aac6dc;"/>
    </g>
    <g>
      <circle cx="92.9" cy="1983.89" r="8.1" style="fill: #aac6dc;"/>
      <circle cx="71" cy="1983.89" r="8.1" style="fill: #aac6dc;"/>
      <circle cx="115.9" cy="1983.89" r="8.1" style="fill: #aac6dc;"/>
      <circle cx="139.4" cy="1983.89" r="8.1" style="fill: #aac6dc;"/>
      <circle cx="162.3" cy="1983.89" r="8.1" style="fill: #aac6dc;"/>
    </g>
    <g>
      <circle cx="208.5" cy="1983.89" r="8.1" style="fill: #aac6dc;"/>
      <circle cx="186.5" cy="1983.89" r="8.1" style="fill: #aac6dc;"/>
      <circle cx="231.4" cy="1983.89" r="8.1" style="fill: #aac6dc;"/>
      <circle cx="254.9" cy="1983.89" r="8.1" style="fill: #aac6dc;"/>
      <circle cx="277.8" cy="1983.89" r="8.1" style="fill: #aac6dc;"/>
    </g>
    <g>
      <circle cx="92.9" cy="2004.79" r="8.1" style="fill: #aac6dc;"/>
      <circle cx="70.9" cy="2004.79" r="8.1" style="fill: #aac6dc;"/>
      <circle cx="115.8" cy="2004.79" r="8.1" style="fill: #aac6dc;"/>
      <circle cx="139.4" cy="2004.79" r="8.1" style="fill: #aac6dc;"/>
      <circle cx="162.3" cy="2004.79" r="8.1" style="fill: #aac6dc;"/>
    </g>
    <g>
      <circle cx="208.4" cy="2004.79" r="8.1" style="fill: #aac6dc;"/>
      <circle cx="186.5" cy="2004.79" r="8.1" style="fill: #aac6dc;"/>
      <circle cx="231.4" cy="2004.79" r="8.1" style="fill: #aac6dc;"/>
      <circle cx="254.9" cy="2004.79" r="8.1" style="fill: #aac6dc;"/>
      <circle cx="277.8" cy="2004.79" r="8.1" style="fill: #aac6dc;"/>
    </g>
    <g>
      <circle cx="93.7" cy="2026.89" r="8.1" style="fill: #aac6dc;"/>
      <circle cx="71.7" cy="2026.89" r="8.1" style="fill: #aac6dc;"/>
      <circle cx="116.6" cy="2026.89" r="8.1" style="fill: #aac6dc;"/>
      <circle cx="140.1" cy="2026.89" r="8.1" style="fill: #aac6dc;"/>
      <circle cx="163" cy="2026.89" r="8.1" style="fill: #aac6dc;"/>
    </g>
    <g>
      <circle cx="207.7" cy="2027.69" r="8.1" style="fill: #aac6dc;"/>
      <circle cx="185.7" cy="2027.69" r="8.1" style="fill: #aac6dc;"/>
      <circle cx="230.6" cy="2027.69" r="8.1" style="fill: #aac6dc;"/>
      <circle cx="254.1" cy="2027.69" r="8.1" style="fill: #aac6dc;"/>
      <circle cx="277" cy="2027.69" r="8.1" style="fill: #aac6dc;"/>
    </g>
    <g>
      <circle cx="94.6" cy="2048.89" r="8.1" style="fill: #aac6dc;"/>
      <circle cx="72.6" cy="2048.89" r="8.1" style="fill: #aac6dc;"/>
      <circle cx="117.5" cy="2048.89" r="8.1" style="fill: #aac6dc;"/>
      <circle cx="141" cy="2048.89" r="8.1" style="fill: #aac6dc;"/>
      <circle cx="163.9" cy="2048.89" r="8.1" style="fill: #aac6dc;"/>
    </g>
    <g>
      <circle cx="209.2" cy="2049.79" r="8.1" style="fill: #aac6dc;"/>
      <circle cx="187.2" cy="2049.79" r="8.1" style="fill: #aac6dc;"/>
      <circle cx="232.1" cy="2049.79" r="8.1" style="fill: #aac6dc;"/>
      <circle cx="255.7" cy="2049.79" r="8.1" style="fill: #aac6dc;"/>
      <circle cx="278.6" cy="2049.79" r="8.1" style="fill: #aac6dc;"/>
    </g>
  </g>
  <g>
    <path d="m1796.25,694.34c-12.1-5.8-17.5-19.3-17.3-32.2.2-17.1,8.4-32.9,14.2-48.6,5.7-15.3,9.5-31.8,5.1-47.9-4-14.6-13.4-26.9-22.4-38.8-4.7-6.3-13.5-15.2-12.3-23.8.8-6.2,8.9-10.9,14.7-8.4,5.9,2.5,11-6.1,5-8.6-13.2-5.7-30,3.4-29.8,18.7.1,8.9,5.7,16.4,10.8,23.2,5.4,7.3,11,14.3,15.8,22s8.8,16,9.9,25.1c1.1,9.8-1,19.6-4,28.9-6.1,18.8-16.2,36.6-17,56.8-.6,16.6,6.7,34.7,22.3,42.2,5.7,2.8,10.8-5.8,5-8.6Z" style="fill: #aac6dc;"/>
    <path d="m1828.95,698.24c-12.1-5.8-17.5-19.3-17.3-32.2.2-17.1,8.4-32.9,14.2-48.6,5.7-15.3,9.5-31.8,5.1-47.9-4-14.6-13.4-26.9-22.4-38.8-4.7-6.3-13.5-15.2-12.3-23.8.8-6.2,8.9-10.9,14.7-8.4,5.9,2.5,11-6.1,5-8.6-13.2-5.7-30,3.4-29.8,18.7.1,8.9,5.7,16.4,10.8,23.2,5.4,7.3,11,14.3,15.8,22s8.8,16,9.9,25.1c1.1,9.8-1,19.6-4,28.9-6.1,18.8-16.2,36.6-17,56.8-.6,16.6,6.7,34.7,22.3,42.2,5.8,2.8,10.8-5.8,5-8.6Z" style="fill: #aac6dc;"/>
    <path d="m1864.65,702.14c-12.1-5.8-17.5-19.3-17.3-32.2.2-17.1,8.4-32.9,14.2-48.6,5.7-15.3,9.5-31.8,5.1-47.9-4-14.6-13.4-26.9-22.4-38.8-4.7-6.3-13.5-15.2-12.3-23.8.8-6.2,8.9-10.9,14.7-8.4,5.9,2.5,11-6.1,5-8.6-13.2-5.7-30,3.4-29.8,18.7.1,8.9,5.7,16.4,10.8,23.2,5.4,7.3,11,14.3,15.8,22s8.8,16,9.9,25.1c1.1,9.8-1,19.6-4,28.9-6.1,18.8-16.2,36.6-17,56.8-.6,16.6,6.7,34.7,22.3,42.2,5.8,2.8,10.8-5.8,5-8.6Z" style="fill: #aac6dc;"/>
  </g>
  <g>
    <g style="opacity: .62;">
      <path d="m117.53,791.74c-2.09,8.73-.12,18.28,5.3,25.45,5.48,7.25,14.13,11.48,23.19,11.76,5.59.17,10.65-1.4,15.65-3.77.83-.4,1-1.76.3-2.36-4.62-3.95-9.24-7.89-13.86-11.84-7.36-6.28-14.71-12.57-22.07-18.85-1.68-1.43-3.36-2.87-5.04-4.3-.87-.75-2.14-.46-2.51.66s-.69,2.15-.97,3.24c-.48,1.87,2.41,2.67,2.89.8.28-1.09.61-2.17.97-3.24l-2.51.66c4.62,3.95,9.24,7.89,13.86,11.84,7.36,6.28,14.71,12.57,22.07,18.85,1.68,1.43,3.36,2.87,5.04,4.3l.3-2.36c-3.97,1.88-8,3.24-12.43,3.36-4.09.11-8.22-.66-11.98-2.29-7.49-3.26-12.94-9.8-15.08-17.66-1.19-4.4-1.31-9.03-.25-13.46.45-1.88-2.44-2.68-2.89-.8Z" style="fill: #e49eb9;"/>
    </g>
    <g style="opacity: .62;">
      <path d="m197.9,878.35c3.34,6.76,9.08,12.28,16.1,15.08,3.68,1.47,7.65,2.01,11.59,1.67,4.74-.41,9.3-1.82,13.89-3,1.04-.27,1.53-1.77.66-2.51-4.81-4.11-9.63-8.22-14.44-12.33-7.71-6.59-15.43-13.17-23.14-19.76-1.77-1.51-3.54-3.02-5.3-4.53-.76-.65-2.32-.55-2.51.66-1.27,8.41-.56,16.98,3.15,24.72.83,1.74,3.42.22,2.59-1.51-3.32-6.94-3.99-14.86-2.84-22.4-.84.22-1.67.44-2.51.66,4.81,4.11,9.63,8.22,14.44,12.33,7.71,6.59,15.43,13.17,23.14,19.76,1.77,1.51,3.54,3.02,5.3,4.53l.66-2.51c-4.24,1.09-8.48,2.46-12.86,2.87-3.66.34-7.24-.09-10.68-1.41-6.45-2.47-11.62-7.71-14.65-13.84-.86-1.73-3.44-.21-2.59,1.51Z" style="fill: #e49eb9;"/>
    </g>
    <g style="opacity: .62;">
      <path d="m114.13,761.72c-4.08,3.87-8.17,7.73-12.25,11.6-.56.53-.61,1.6,0,2.12,4.95,4.23,9.9,8.46,14.85,12.69l2.15,1.83c.88.75,2.13.46,2.51-.66,1.74-5.15,3.72-10.25,2.55-15.76-1-4.71-3.96-8.85-7.68-11.82-1.49-1.19-3.63.92-2.12,2.12,3.36,2.68,6,6.24,6.91,10.49,1.04,4.89-1.01,9.62-2.55,14.16l2.51-.66c-4.95-4.23-9.9-8.46-14.85-12.69l-2.15-1.83v2.12c4.08-3.87,8.17-7.73,12.25-11.6,1.41-1.33-.72-3.45-2.12-2.12Z" style="fill: #e49eb9;"/>
    </g>
    <g style="opacity: .62;">
      <path d="m242.59,888.32c-1.31.26-2.61.57-3.9.89-1.04.26-1.53,1.77-.66,2.51,5.16,4.4,10.31,8.81,15.47,13.21,8.21,7.01,16.41,14.02,24.62,21.03,1.87,1.6,3.74,3.19,5.61,4.79.86.73,2.74.36,2.56-1.06-.67-5.29-1.35-10.57-2.02-15.86-.56-4.44-.96-9-2.74-13.15-3.71-8.67-13.73-11.69-22.33-12.84-5.53-.74-11.11-.55-16.59.49-1.89.36-1.09,3.25.8,2.89,8.69-1.65,18.16-.99,26.38,2.42,3.8,1.58,7.07,4.03,8.84,7.83s2.08,7.9,2.59,11.88c.69,5.45,1.39,10.9,2.08,16.35.85-.35,1.71-.71,2.56-1.06-5.16-4.4-10.31-8.81-15.47-13.21-8.21-7.01-16.41-14.02-24.62-21.03-1.87-1.6-3.74-3.19-5.61-4.79l-.66,2.51c1.3-.33,2.59-.63,3.9-.89,1.89-.38,1.09-3.27-.8-2.89Z" style="fill: #e49eb9;"/>
    </g>
    <g style="opacity: .62;">
      <path d="m200.6,836.06c-1.56-7.57-9.07-12.07-15.6-14.99-3.9-1.74-8.14-3.08-12.46-2.74s-8.43,2.37-12.39,4.26c-.83.4-1,1.76-.3,2.36,3.98,3.4,7.97,6.81,11.95,10.21,6.32,5.4,12.64,10.79,18.96,16.19,1.46,1.25,2.93,2.5,4.39,3.75.76.65,2.31.55,2.51-.66.98-6.09,4-12.11,2.95-18.37-.32-1.9-3.21-1.09-2.89.8.48,2.85-.22,5.7-.98,8.43s-1.51,5.5-1.97,8.34l2.51-.66c-3.98-3.4-7.97-6.81-11.95-10.21-6.32-5.4-12.64-10.79-18.96-16.19-1.46-1.25-2.93-2.5-4.39-3.75l-.3,2.36c3.45-1.65,7-3.53,10.87-3.85s7.83.89,11.36,2.52c5.67,2.61,12.44,6.37,13.81,13.01.39,1.89,3.28,1.09,2.89-.8Z" style="fill: #e49eb9;"/>
    </g>
  </g>
  <g>
    <g style="opacity: .62;">
      <path d="m861.38,1637.13c-14.67-2.62-30.31,1.59-41.66,11.27-11.48,9.79-17.65,24.54-17.23,39.58.26,9.28,3.35,17.52,7.77,25.57.74,1.35,3.02,1.49,3.93.27,6.09-8.04,12.18-16.08,18.27-24.12,9.7-12.81,19.39-25.61,29.09-38.42,2.21-2.92,4.43-5.85,6.64-8.77,1.15-1.52.55-3.59-1.34-4.09s-3.62-.93-5.46-1.29c-3.15-.61-4.19,4.26-1.04,4.87,1.84.36,3.65.8,5.46,1.29-.45-1.36-.89-2.73-1.34-4.09-6.09,8.04-12.18,16.08-18.27,24.12-9.7,12.81-19.39,25.61-29.09,38.42-2.21,2.92-4.43,5.85-6.64,8.77,1.31.09,2.62.18,3.93.27-3.51-6.4-6.15-12.94-6.78-20.27-.58-6.77.29-13.69,2.63-20.08,4.67-12.73,14.99-22.41,27.8-26.71,7.17-2.41,14.84-3.05,22.29-1.72,3.15.56,4.2-4.31,1.04-4.87Z" style="fill: #f2ce6e;"/>
    </g>
    <g style="opacity: .62;">
      <path d="m725.65,1778.8c-10.87,6.2-19.47,16.25-23.43,28.16-2.07,6.24-2.58,12.88-1.64,19.38,1.14,7.82,3.92,15.24,6.32,22.73.54,1.69,3.08,2.36,4.22.85,6.35-8.38,12.69-16.76,19.04-25.14,10.17-13.43,20.33-26.85,30.5-40.28,2.33-3.08,4.66-6.15,6.99-9.23,1-1.32.69-3.9-1.34-4.09-14.06-1.29-28.2.73-40.66,7.62-2.8,1.55-.03,5.69,2.76,4.15,11.18-6.18,24.24-8.06,36.86-6.9-.45-1.36-.89-2.73-1.34-4.09-6.35,8.38-12.69,16.76-19.04,25.14-10.17,13.43-20.33,26.85-30.5,40.28-2.33,3.08-4.66,6.15-6.99,9.23,1.41.28,2.81.57,4.22.85-2.22-6.92-4.9-13.82-6.01-21.03-.92-6.04-.56-12.01,1.29-17.84,3.46-10.93,11.65-20.02,21.51-25.64,2.78-1.59.02-5.73-2.76-4.15Z" style="fill: #f2ce6e;"/>
    </g>
    <g style="opacity: .62;">
      <path d="m910.81,1628.58c-6.81-6.39-13.61-12.79-20.42-19.18-.93-.87-2.72-.85-3.52.21-6.53,8.62-13.05,17.24-19.58,25.86-.94,1.24-1.89,2.49-2.83,3.73-1.16,1.53-.55,3.58,1.34,4.09,8.7,2.38,17.35,5.16,26.37,2.68,7.7-2.12,14.28-7.43,18.84-13.88,1.83-2.59-1.87-5.93-3.72-3.31-4.11,5.82-9.75,10.56-16.72,12.47-8.01,2.2-16.04-.74-23.73-2.84l1.34,4.09c6.53-8.62,13.05-17.24,19.58-25.86l2.83-3.73-3.52.21c6.81,6.39,13.61,12.79,20.42,19.18,2.34,2.2,5.65-1.53,3.31-3.72Z" style="fill: #f2ce6e;"/>
    </g>
    <g style="opacity: .62;">
      <path d="m713.48,1853.85c-.56-2.15-1.19-4.27-1.86-6.39-.54-1.69-3.08-2.36-4.22-.85-6.8,8.97-13.59,17.95-20.39,26.92-10.82,14.28-21.63,28.57-32.45,42.85-2.46,3.25-4.93,6.51-7.39,9.76-1.13,1.5-.32,4.58,2.01,4.14,8.7-1.63,17.4-3.26,26.1-4.89,7.3-1.37,14.82-2.48,21.54-5.82,14.01-6.99,18.03-23.89,19.1-38.27.69-9.24-.17-18.47-2.43-27.46-.78-3.11-5.5-1.49-4.72,1.6,3.59,14.25,3.42,30.01-1.44,43.96-2.25,6.46-5.99,12.1-12.11,15.41-5.93,3.21-12.89,4.22-19.43,5.45-8.97,1.68-17.93,3.36-26.9,5.04.67,1.38,1.34,2.76,2.01,4.14,6.8-8.97,13.59-17.95,20.39-26.92,10.82-14.28,21.63-28.57,32.45-42.85,2.46-3.25,4.93-6.51,7.39-9.76-1.41-.28-2.81-.57-4.22-.85.67,2.12,1.3,4.24,1.86,6.39.81,3.1,5.53,1.49,4.72-1.6Z" style="fill: #f2ce6e;"/>
    </g>
    <g style="opacity: .62;">
      <path d="m796.01,1779.15c12.39-3.32,19.13-16.22,23.33-27.32,2.51-6.63,4.32-13.8,3.33-20.93s-4.75-13.74-8.27-20.12c-.74-1.34-3.01-1.49-3.93-.27-5.25,6.94-10.51,13.87-15.76,20.81-8.33,11-16.66,22-24.99,33-1.93,2.55-3.86,5.09-5.79,7.64-1.01,1.33-.69,3.89,1.34,4.09,10.19,1.03,20.47,5.45,30.74,3.1,3.12-.72,1.5-5.43-1.6-4.72-4.68,1.07-9.47.19-14.07-.8s-9.27-1.97-14.02-2.45l1.34,4.09c5.25-6.94,10.51-13.87,15.76-20.81,8.33-11,16.66-22,24.99-33,1.93-2.55,3.86-5.09,5.79-7.64l-3.93-.27c3.07,5.56,6.54,11.25,7.45,17.65.92,6.49-.72,13.06-3.07,19.08-3.77,9.65-9.34,21.24-20.23,24.15-3.09.83-1.49,5.54,1.6,4.72Z" style="fill: #f2ce6e;"/>
    </g>
  </g>
</svg>