<?xml version="1.0" encoding="UTF-8"?>
<svg xmlns="http://www.w3.org/2000/svg" viewBox="0 0 1920 1080">
  <g id="Layer_1" data-name="Layer 1">
    <path d="m48.07,1086.78c-6.07-34.33,37-76.23,52.53-91.34,87.67-85.3,232.94-72.54,285.05-60.26,63.26,14.91,122.29,47.79,187.04,53.43,124.56,10.85,233.5-79.3,354.27-111.68,117.93-31.63,250.15-4.25,345.83,71.6,16.87,13.37,33.09,28.41,53.19,36.13,48.4,18.59,79,2.04,119.99,8.64,59.66,9.61,118.78,66.48,116.37,94.18-11.55,132.46-1481.38,185.11-1514.25-.69Z" style="fill: #0137bb;"/>
    <path d="m10.56,206.63c81.91-8.93,228.08,60.7,247.16,126.69,10.8,37.36-5.39,49.16-30.25,119.53-14.04,39.74-14.03,84.17,38.34,115.94,46.68,28.31,127.41,41.64,167.33,72.18,31.12,23.81,30.4,56.11-1.79,79.6-15.52,11.33-37.23,20.44-54.15,31.31-30.29,19.46-44.06,44.51-37.64,68.49,4.2,15.69,15.68,33.36-4.25,46.06-11.79,7.52-31.8,10.99-51.06,13.12-98.06,10.85-129.52,11.66-160.18,17.26-86.85,15.87-90.43,72.46-113.03,72.28-81.35-.68-243.49-735.96-.48-762.44Z" style="fill: #e49eb9;"/>
    <path d="m751.32,26.23c-7.76,23.76.35,68.87-31.87,96.24-2.26,1.92-12.6,9.47-35.81,18.48-28.96,11.24-61.59,21.35-77.91,47.78-6.54,10.58-9.73,22.85-12.54,34.97-1.82,7.84-3.51,16.01-1.74,23.86,2.02,8.95,8.4,16.41,15.88,21.71,15.49,10.97,35.64,13.67,54.48,11.35s36.77-9.22,54.48-16.06c14.12-5.46,28.6-11.13,39.8-21.32,10.33-9.41,17.11-21.98,25.23-33.36,23.75-33.29,59.88-56.8,99.03-68.59,39.15-11.79,81.18-12.32,121.45-5.23,26.46,4.66,52.31,12.54,78.92,16.2,26.61,3.67,54.8,2.82,78.84-9.17,22.79-11.37,35.33-27.05,55.39-53.16,27.57-35.88,43.22-56.24,40.72-72.36-12.26-79.22-469.41-98.38-504.35,8.66Z" style="fill: #e9d6dc;"/>
    <path d="m1758.42-199.55c-5.79,2-4.65,5.88-67.42,91.44-15.6,21.27-25.3,34.14-42.19,46.35-21.31,15.39-47.62,21.91-73.34,27.31-105.43,22.14-219.8,33.92-302.43,103.05-18.25,15.27-35.01,34.1-40.6,57.23-8.21,33.97,9.4,69.01,31.64,95.96,26,31.51,59.66,57.4,98.41,70.33,38.75,12.93,82.72,12.11,119.27-6.13,20.68-10.32,38.35-25.66,57.6-38.45,45.2-30.03,99.74-45.77,153.99-44.43,33.1.82,66.73,8.17,94.48,26.23,27.74,18.07,48.89,47.85,51.59,80.85,2.63,32.12-11.74,62.95-16.9,94.76-10.07,61.96,25.53,136.78,78.08,169.83,54.45,34.25,144.37,33.15,186.74-8.26,146.55-143.2-250.34-793.2-328.92-766.09Z" style="fill: #e49eb9;"/>
    <path d="m1603.53,1080c-7.27-8.57-1.51-39.07,1.31-51.38,5.6-24.52,16.19-35.89,20.16-48.72,13.77-44.51-1.03-93.76-27.12-132.37-26.08-38.6-62.43-68.86-97.04-100.05-45.5-41-89.34-85.21-119.37-138.58-8.32-14.8-15.73-31.26-13.83-48.13,1.22-10.83,6.19-20.85,11.42-30.41,15.43-28.23,34.4-55.43,60.8-73.82,26.4-18.39,61.37-26.76,91.47-15.41,43.31,16.32,63.02,64.97,81.62,107.35,11.97,27.29,25.38,53.94,40.16,79.82,13.25,23.19,28.26,46.45,50.51,61.23,13.64,9.06,29.36,14.46,45.17,18.7,28.42,7.61,58.25,11.73,87.34,7.33,18.1-2.74,25.4-1.28,39.87,2.45,18.76,4.83,30.6,12.79,32.32,14.93,330.5,409.96,141.75,873.37-304.78,347.07Z" style="fill: #e9d6dc;"/>
    <path d="m-40.57,140.33c1.45,1.34,59.34-36.79,105.67-14.24,30.66,14.93,31.43,38.16,76.1,73.75,17.26,13.75,38.6,21.25,59.82,27.33,22.78,6.52,47.07,11.67,69.95,5.53,25.17-6.76,44.64-26,65.39-41.76,47.42-36.04,106.8-56.06,166.35-56.09,41.69-.02,86.95,8.63,122.43-13.26,18.52-11.43,27.95-27.31,31.11-32.54,19.04-31.46,22.91-73.25,13.1-85.11C473.97-232.16-186.39,4.84-40.57,140.33Z" style="fill: #0137bb;"/>
    <path d="m-63.75,926.27c27.11-33.02,48.3-74.2,85.85-96.95,47.03-28.49,102.54-11.31,150.57,4.82,44.11,14.82,92.53,29.81,137.71,10.25,20.14-8.72,35.1-23.66,43.85-43.77,5.02-11.54,8.73-23.6,14.09-35,5.08-10.81,11.12-21.16,18.02-30.91s15.32-19.63,24.26-28.27c8.86-8.56,18.7-15.87,28.3-23.55,16.95-13.57,34.26-31.71,32.37-55.23-.76-9.42-5.29-17.99-12.74-23.82-7.57-5.93-17.1-8.69-26.44-10.29-10.66-1.83-21.49-2.16-32.24-3.15-14.61-1.35-29.15-3.43-43.61-5.95-27.1-4.73-54.06-10.7-80.81-17.12-22.73-5.46-46.34-12.5-64.28-28.19-17.87-15.63-26.58-38.08-32-60.63-5.87-24.39-9.3-49.27-15.4-73.63-6.68-26.68-15.09-52.93-25.16-78.52-8.52-21.64-17.79-44.83-36.7-59.55-17.62-13.71-40.32-18.36-62.1-20.08s-46.7-2.2-68.72,4.11c-10.24,2.94-19.84,7.57-28.2,14.21-.76.6.31,1.66,1.06,1.06,18.95-15.05,43.74-18.52,67.25-18.8,22.74-.27,46.65.84,68.17,8.84,10.95,4.07,21.1,10.22,29.21,18.68s14.41,19.35,19.48,30.24c11.27,24.24,20.06,49.9,27.58,75.52s12.68,50.46,17.49,76.1c4.04,21.53,8.63,43.7,19.93,62.76,11.28,19.02,28.98,31.57,49.33,39.52,22.84,8.92,47.5,13.33,71.37,18.53,26.73,5.82,53.65,11.06,80.88,13.89,11.71,1.22,23.55,1.51,35.2,3.3,9.77,1.51,19.91,4.13,27.82,10.34,20.53,16.12,11.93,44.89-3.03,61.5-8.02,8.9-17.71,16.05-27.09,23.41-9.31,7.31-18.14,15.13-26.16,23.85-15.73,17.1-28.49,36.92-37.54,58.32-5.03,11.9-8.64,24.44-14.76,35.87-5.2,9.72-12.42,18.12-21.25,24.71-16.94,12.63-38.27,18.49-59.15,19.55-25.2,1.27-50.1-4.96-73.97-12.45-47.33-14.86-98.29-37.49-148.58-22.73-41.56,12.2-67.1,49.26-91.33,82.49-6.34,8.69-12.75,17.34-19.57,25.65-.61.74.45,1.81,1.06,1.06h0Z"/>
    <path d="m122.14,1029.88c37.18-27.87,76.59-57.19,123.14-66.44,26.56-5.28,53.48-2.28,79.74,3.22,25.24,5.29,50.22,11.97,75.27,18.1,95.49,23.37,195.67,46.53,294.27,30.01,46.48-7.79,89.45-25.67,130.23-48.89,40.23-22.91,78.15-49.61,118.44-72.4,43-24.32,88.83-42.08,137.01-53.02,48.59-11.03,98.48-15.63,148.25-16.15,24.45-.26,49.66-.72,73.88,3,12.3,1.89,24.49,5.26,35.36,11.46,10.61,6.05,19.49,14.59,27.5,23.72,15.58,17.75,30.12,36.87,43.56,56.27s25.19,39.63,32.54,61.87c3.63,10.98,6,22.27,7.07,33.78.09.95,1.59.96,1.5,0-4.26-45.9-30.26-85.12-57.7-120.69-13.26-17.19-26.37-35.92-43.6-49.4-18.17-14.21-40.73-18.75-63.26-20.29-50.16-3.43-101.48-1.38-151.29,5.3-48.13,6.45-95.67,18.24-140.41,37.31-88.56,37.75-160.99,107.04-253.73,135.86-101.05,31.4-208.62,11.8-309.04-11.89-25.29-5.97-50.49-12.31-75.73-18.47-25.21-6.14-50.74-12.45-76.82-13-47.98-1.01-90.46,21.89-128.67,48.75-9.56,6.72-18.93,13.7-28.28,20.71-.76.57-.02,1.87.76,1.3h0Z" style="fill: none; stroke: #000; stroke-miterlimit: 10;"/>
    <path d="m1567.5,1106.6c32.65-46.07,65.71-94.15,79.44-149.75,6.56-26.55,8.69-54.47,3.98-81.51-3.89-22.34-12.78-43.36-25.51-62.09-22.98-33.83-56.01-59.2-87.95-84.04-32.37-25.17-65.99-50.68-89.63-84.72-14.15-20.38-25.01-44.18-26.54-69.21-1.57-25.84,8.35-50.35,23.58-70.82s36.2-38.36,58.39-51.84c23.28-14.15,50.19-24.09,77.79-22.27,25.64,1.69,49.66,13.85,68.14,31.39,19.76,18.76,32.74,43.52,40.01,69.59,8.01,28.7,8.21,58.22,8.3,87.79.1,29.75,2.17,59.07,9.07,88.08,11.73,49.31,34.74,98.58,73.1,132.77,35.52,31.65,85.85,47.71,132.5,33.89,10.95-3.24,21.3-8.2,30.67-14.72.79-.55.04-1.85-.76-1.3-42.05,29.26-100,23.32-141.53-3.74-43.21-28.16-70.55-75.38-85.94-123.56-9.2-28.79-14.27-58.76-15.29-88.96-1.01-29.94.97-60.05-4.04-89.73-8.38-49.72-36.4-98.55-85.66-116.85-50.39-18.72-103.1,7.7-140.56,41.11-17.91,15.98-33.73,35.26-42.55,57.79-9.82,25.09-8.34,51.92,1.38,76.83,15.11,38.73,45.42,68.6,76.92,94.53,32.12,26.45,66.96,50,95.86,80.15,13.94,14.54,26.3,30.7,35.25,48.8,11.9,24.09,16.81,50.88,15.9,77.65-2,58.74-29.95,111.84-61.9,159.69-7.72,11.56-15.71,22.93-23.75,34.27-.56.79.74,1.54,1.3.76h0Z"/>
    <path d="m725.13-95.84c24.24,35.99,26.11,83.88,9,123.21-8.57,19.69-22.03,37.1-39.47,49.7-19.33,13.96-42.33,23.15-59.03,40.59-17.61,18.39-24.54,45.22-27.49,69.85-3.04,25.41-.85,51.45,6.25,76.03,6.87,23.75,18.26,47.05,34.75,65.63,7.81,8.8,17.01,16.54,27.58,21.81,11.75,5.86,24.75,8.07,37.8,8.07s25.76-1.78,38.39-4.04c11.17-1.99,22.26-4.65,33.01-8.32,20.26-6.93,39.93-17.73,53.3-34.87,27.13-34.78,16.83-81.04,10.61-120.93-3.34-21.39-6.42-43.66-2.2-65.15,2.04-10.37,5.9-20.34,11.79-29.14,7.42-11.1,17.79-19.89,28.95-27.07,46.57-29.97,104.21-39.18,158.58-41.22,60.9-2.29,121.74,4.61,182.63,2.13,25.47-1.04,53.68-2.31,74.68-18.58,17.23-13.35,26.55-33.99,32.52-54.42,3.16-10.81,5.48-21.84,7.63-32.88.18-.94-1.26-1.35-1.45-.4-4.32,22.18-9.21,45.12-20.87,64.77-5.77,9.72-13.33,18.4-22.8,24.66-11.35,7.5-24.72,11.04-38.07,12.91-29.63,4.13-60.2,3.35-90.02,2.57s-61.07-2.47-91.63-2.69c-54.08-.39-109.66,4.02-160,25.3-21.87,9.24-44.57,21.47-59.09,40.84-12.41,16.57-16.58,37.03-16.33,57.39s4.46,42.03,7.64,62.87,5.98,43.29,1.54,64.53-17.58,40.28-36.17,52.72c-18.78,12.57-41.05,19.2-63.09,23.26-26.4,4.87-55.69,8.32-80.08-5.45-21.97-12.41-37.23-34.65-47.76-57.03-11.24-23.9-17.29-50.21-17.88-76.6-.58-25.98,3.55-54.15,15.57-77.46,12.04-23.36,34.69-35.39,56.29-48.47,18.21-11.03,34.04-24.08,45.62-42.15,21.77-33.97,27.35-78.46,13.79-116.56-3.29-9.24-7.72-18.03-13.2-26.16-.54-.8-1.84-.05-1.3.76h0Z"/>
    <path d="m-36.59-55.38C-10.32-47.97,13.39-32.79,31.58-12.48c9.18,10.25,16.94,21.78,22.87,34.21s9.55,25.59,12.35,39.03c5.3,25.53,8.21,53.77,25.24,74.74,17.91,22.06,47.19,28.29,73.73,33.19,29.44,5.43,61.8,11.1,90.22-1.6,13.68-6.11,24.99-16.19,36.1-26.01s23.57-19.78,36.91-27.67c26.33-15.59,56.08-25.41,86.52-28.57,14.69-1.52,29.49-1.46,44.17.13s29.65,4.37,44.51,6.3c26.92,3.5,56.62,4.5,79.27-12.97,20.8-16.04,29.07-42.54,33.97-67.28,1.27-6.41,2.33-12.85,3.34-19.3.07-.47-.65-.68-.72-.2-4.09,26.11-8.94,54.7-26.25,75.71-8.94,10.85-21.05,18.49-34.59,22.2-13.74,3.76-28.21,3.73-42.3,2.5-29.07-2.54-57.46-9.83-86.81-8.84-28.75.97-57.25,7.9-83.3,20.08-13.4,6.27-26.14,13.93-37.92,22.89s-22.56,19.92-34.56,29.01c-12.9,9.77-27.32,16.08-43.44,18.06s-32.17.3-47.98-2.2c-14.48-2.29-29.08-4.8-43.23-8.65-13.91-3.78-27.71-9.28-38.78-18.76-21.31-18.25-26.34-46.94-31.39-73.06-2.57-13.29-5.26-26.62-10.16-39.29-4.64-12-10.96-23.33-18.63-33.65C25.35-23.15,4.59-39.82-19.07-49.99c-5.64-2.42-11.42-4.45-17.32-6.12-.47-.13-.66.59-.2.72h0Z"/>
    <path d="m1451.9,3.44c-27.97,37.89-63.79,69.84-104.7,93.18-41.06,23.42-89.23,37.64-121.18,74.37-14.09,16.2-23.55,36.01-24.65,57.66-.6,11.69,1.12,23.52,5.1,34.52,3.3,9.13,7.88,19.06,18.35,21.1,5.81,1.13,12.03.89,17.92.83,6.57-.06,13.13-.4,19.67-.98,12.72-1.12,25.36-3.11,37.87-5.69,25.96-5.34,51.33-13.12,76.63-20.91s47.8-15.58,68.77-30.21c19.62-13.69,37.18-30.05,57.43-42.89,37.89-24.03,81.47-38.82,126.04-43.61,43.73-4.7,90.57-.47,131.59,16.12,10.87,4.39,21.33,10.43,28.73,19.72,6.92,8.68,10.64,19.4,12.51,30.23,3.86,22.32,1.21,45.68.15,68.15-2.12,44.91-4.26,91.75,10.34,134.98,12.05,35.68,41.93,81.48,85.89,72.9,9.02-1.76,17.33-6.09,23.55-12.9.65-.71-.41-1.78-1.06-1.06-14.86,16.26-39.94,16.61-58.41,6.71-19.52-10.46-32.91-30-42.01-49.66-19.21-41.49-19.3-88.76-17.56-133.53.86-22.25,2.98-44.65,2.34-66.93-.56-19.69-4.46-40.7-19.2-54.94-15.14-14.62-37.93-20.55-57.84-25.27-20.82-4.94-42.21-7.49-63.61-7.73-42.83-.49-85.76,8.28-124.93,25.62-20,8.85-38.93,19.98-56.37,33.17-19.34,14.63-37.34,31.26-59.22,42.16-22.99,11.45-48.52,18.02-73.06,25.27s-50.9,14.19-77.08,17.55c-12.81,1.64-25.73,2.47-38.65,2.17-6.84-.16-14.12-.24-19.16-5.58-4.07-4.31-6.44-10.29-8.39-15.79-8.11-22.91-6.04-48.45,5.32-69.87,22.4-42.25,69.18-61.4,109.84-81.28,41.49-20.28,78.89-47.07,109.79-81.55,7.25-8.09,14.09-16.54,20.54-25.28.57-.78-.73-1.53-1.3-.76h0Z"/>
    <circle cx="1040.39" cy="982.7" r="80.61" style="fill: none; stroke: #f2ce6e; stroke-miterlimit: 10; stroke-width: 3px;"/>
    <circle cx="1112.28" cy="933.81" r="80.61" style="fill: none; stroke: #f2ce6e; stroke-miterlimit: 10; stroke-width: 3px;"/>
  </g>
  <g id="Layer_2" data-name="Layer 2">
    <g>
      <g>
        <circle cx="1655.7" cy="16.35" r="10.63" style="fill: #f2ce6e;"/>
        <circle cx="1626.84" cy="16.35" r="10.63" style="fill: #f2ce6e;"/>
        <circle cx="1685.74" cy="16.35" r="10.63" style="fill: #f2ce6e;"/>
        <circle cx="1716.7" cy="16.35" r="10.63" style="fill: #f2ce6e;"/>
        <circle cx="1746.74" cy="16.35" r="10.63" style="fill: #f2ce6e;"/>
      </g>
      <g>
        <circle cx="1807.21" cy="16.35" r="10.63" style="fill: #f2ce6e;"/>
        <circle cx="1778.48" cy="16.35" r="10.63" style="fill: #f2ce6e;"/>
        <circle cx="1837.38" cy="16.35" r="10.63" style="fill: #f2ce6e;"/>
        <circle cx="1868.21" cy="16.35" r="10.63" style="fill: #f2ce6e;"/>
        <circle cx="1898.25" cy="16.35" r="10.63" style="fill: #f2ce6e;"/>
      </g>
      <g>
        <circle cx="1656.75" cy="45.34" r="10.63" style="fill: #f2ce6e;"/>
        <circle cx="1627.89" cy="45.34" r="10.63" style="fill: #f2ce6e;"/>
        <circle cx="1686.79" cy="45.34" r="10.63" style="fill: #f2ce6e;"/>
        <circle cx="1717.62" cy="45.34" r="10.63" style="fill: #f2ce6e;"/>
        <circle cx="1747.66" cy="45.34" r="10.63" style="fill: #f2ce6e;"/>
      </g>
      <g>
        <circle cx="1806.29" cy="46.39" r="10.63" style="fill: #f2ce6e;"/>
        <circle cx="1777.43" cy="46.39" r="10.63" style="fill: #f2ce6e;"/>
        <circle cx="1836.33" cy="46.39" r="10.63" style="fill: #f2ce6e;"/>
        <circle cx="1867.16" cy="46.39" r="10.63" style="fill: #f2ce6e;"/>
        <circle cx="1897.2" cy="46.39" r="10.63" style="fill: #f2ce6e;"/>
      </g>
      <g>
        <circle cx="1657.93" cy="74.2" r="10.63" style="fill: #f2ce6e;"/>
        <circle cx="1629.07" cy="74.2" r="10.63" style="fill: #f2ce6e;"/>
        <circle cx="1687.97" cy="74.2" r="10.63" style="fill: #f2ce6e;"/>
        <circle cx="1718.8" cy="74.2" r="10.63" style="fill: #f2ce6e;"/>
        <circle cx="1748.84" cy="74.2" r="10.63" style="fill: #f2ce6e;"/>
      </g>
      <g>
        <circle cx="1808.26" cy="75.38" r="10.63" style="fill: #f2ce6e;"/>
        <circle cx="1779.4" cy="75.38" r="10.63" style="fill: #f2ce6e;"/>
        <circle cx="1838.3" cy="75.38" r="10.63" style="fill: #f2ce6e;"/>
        <circle cx="1869.26" cy="75.38" r="10.63" style="fill: #f2ce6e;"/>
        <circle cx="1899.3" cy="75.38" r="10.63" style="fill: #f2ce6e;"/>
      </g>
    </g>
  </g>
  <g id="Layer_3" data-name="Layer 3">
    <g>
      <g>
        <circle cx="41.34" cy="461.76" r="10.63" style="fill: #f2ce6e;"/>
        <circle cx="12.48" cy="461.76" r="10.63" style="fill: #f2ce6e;"/>
        <circle cx="71.38" cy="461.76" r="10.63" style="fill: #f2ce6e;"/>
        <circle cx="102.34" cy="461.76" r="10.63" style="fill: #f2ce6e;"/>
        <circle cx="132.37" cy="461.76" r="10.63" style="fill: #f2ce6e;"/>
      </g>
      <g>
        <circle cx="41.34" cy="489.31" r="10.63" style="fill: #f2ce6e;"/>
        <circle cx="12.48" cy="489.31" r="10.63" style="fill: #f2ce6e;"/>
        <circle cx="71.38" cy="489.31" r="10.63" style="fill: #f2ce6e;"/>
        <circle cx="102.2" cy="489.31" r="10.63" style="fill: #f2ce6e;"/>
        <circle cx="132.24" cy="489.31" r="10.63" style="fill: #f2ce6e;"/>
      </g>
      <g>
        <circle cx="40.68" cy="520.79" r="10.63" style="fill: #f2ce6e;"/>
        <circle cx="11.82" cy="520.79" r="10.63" style="fill: #f2ce6e;"/>
        <circle cx="70.72" cy="520.79" r="10.63" style="fill: #f2ce6e;"/>
        <circle cx="101.68" cy="520.79" r="10.63" style="fill: #f2ce6e;"/>
        <circle cx="131.72" cy="520.79" r="10.63" style="fill: #f2ce6e;"/>
      </g>
      <g>
        <circle cx="40.68" cy="548.34" r="10.63" style="fill: #f2ce6e;"/>
        <circle cx="11.82" cy="548.34" r="10.63" style="fill: #f2ce6e;"/>
        <circle cx="70.72" cy="548.34" r="10.63" style="fill: #f2ce6e;"/>
        <circle cx="101.68" cy="548.34" r="10.63" style="fill: #f2ce6e;"/>
        <circle cx="131.72" cy="548.34" r="10.63" style="fill: #f2ce6e;"/>
      </g>
      <g>
        <circle cx="39.9" cy="580.74" r="10.63" style="fill: #f2ce6e;"/>
        <circle cx="11.17" cy="580.74" r="10.63" style="fill: #f2ce6e;"/>
        <circle cx="70.07" cy="580.74" r="10.63" style="fill: #f2ce6e;"/>
        <circle cx="100.89" cy="580.74" r="10.63" style="fill: #f2ce6e;"/>
        <circle cx="130.93" cy="580.74" r="10.63" style="fill: #f2ce6e;"/>
      </g>
      <g>
        <circle cx="39.9" cy="608.28" r="10.63" style="fill: #f2ce6e;"/>
        <circle cx="11.04" cy="608.28" r="10.63" style="fill: #f2ce6e;"/>
        <circle cx="69.93" cy="608.28" r="10.63" style="fill: #f2ce6e;"/>
        <circle cx="100.89" cy="608.28" r="10.63" style="fill: #f2ce6e;"/>
        <circle cx="130.93" cy="608.28" r="10.63" style="fill: #f2ce6e;"/>
      </g>
      <g>
        <circle cx="39.37" cy="639.9" r="10.63" style="fill: #f2ce6e;"/>
        <circle cx="10.51" cy="639.9" r="10.63" style="fill: #f2ce6e;"/>
        <circle cx="69.41" cy="639.9" r="10.63" style="fill: #f2ce6e;"/>
        <circle cx="100.24" cy="639.9" r="10.63" style="fill: #f2ce6e;"/>
        <circle cx="130.28" cy="639.9" r="10.63" style="fill: #f2ce6e;"/>
      </g>
      <g>
        <circle cx="39.24" cy="667.31" r="10.63" style="fill: #f2ce6e;"/>
        <circle cx="10.51" cy="667.31" r="10.63" style="fill: #f2ce6e;"/>
        <circle cx="69.41" cy="667.31" r="10.63" style="fill: #f2ce6e;"/>
        <circle cx="100.24" cy="667.31" r="10.63" style="fill: #f2ce6e;"/>
        <circle cx="130.28" cy="667.31" r="10.63" style="fill: #f2ce6e;"/>
      </g>
      <g>
        <circle cx="38.32" cy="697.35" r="10.63" style="fill: #f2ce6e;"/>
        <circle cx="9.46" cy="697.35" r="10.63" style="fill: #f2ce6e;"/>
        <circle cx="68.36" cy="697.35" r="10.63" style="fill: #f2ce6e;"/>
        <circle cx="99.19" cy="697.35" r="10.63" style="fill: #f2ce6e;"/>
        <circle cx="129.23" cy="697.35" r="10.63" style="fill: #f2ce6e;"/>
      </g>
      <g>
        <circle cx="40.29" cy="726.34" r="10.63" style="fill: #f2ce6e;"/>
        <circle cx="11.43" cy="726.34" r="10.63" style="fill: #f2ce6e;"/>
        <circle cx="70.33" cy="726.34" r="10.63" style="fill: #f2ce6e;"/>
        <circle cx="101.29" cy="726.34" r="10.63" style="fill: #f2ce6e;"/>
        <circle cx="131.33" cy="726.34" r="10.63" style="fill: #f2ce6e;"/>
      </g>
    </g>
    <g>
      <path d="m1877.44,800.98c5.8,12.1,1.54,26.01-6.7,35.93-10.87,13.2-27.16,20.38-41.52,28.98-14.03,8.35-27.33,18.83-33.99,34.13-6.03,13.88-6.41,29.36-6.86,44.27-.29,7.85,1,20.31-5.33,26.26-4.51,4.33-13.77,2.92-16.72-2.67-3.03-5.65-12.39-2.14-9.29,3.57,6.72,12.71,25.51,16.15,34.94,4.1,5.5-7,5.83-16.35,6.12-24.85.37-9.07.39-18.04,1.47-27.05,1.08-9.01,3.17-17.98,8.01-25.76,5.28-8.33,13.06-14.65,21.23-20.02,16.53-10.83,35.56-18.37,48.84-33.61,10.87-12.56,16.52-31.24,9.07-46.86-2.69-5.75-12.05-2.25-9.29,3.57Z" style="fill: #aac6dc;"/>
      <path d="m1854.4,777.44c5.8,12.1,1.54,26.01-6.7,35.93-10.87,13.2-27.16,20.38-41.52,28.98-14.03,8.35-27.33,18.83-33.99,34.13-6.03,13.88-6.41,29.36-6.86,44.27-.29,7.85,1,20.31-5.33,26.26-4.51,4.33-13.77,2.92-16.72-2.67-3.03-5.65-12.39-2.14-9.29,3.57,6.72,12.71,25.51,16.15,34.94,4.1,5.5-7,5.83-16.35,6.12-24.85.37-9.07.39-18.04,1.47-27.05,1.08-9.01,3.17-17.98,8.01-25.76,5.28-8.33,13.06-14.65,21.23-20.02,16.53-10.83,35.56-18.37,48.84-33.61,10.87-12.56,16.52-31.24,9.07-46.86-2.77-5.82-12.05-2.25-9.29,3.57Z" style="fill: #aac6dc;"/>
      <path d="m1829.03,752.03c5.8,12.1,1.54,26.01-6.7,35.93-10.87,13.2-27.16,20.38-41.52,28.98-14.03,8.35-27.33,18.83-33.99,34.13-6.03,13.88-6.41,29.36-6.86,44.27-.29,7.85,1,20.31-5.33,26.26-4.51,4.33-13.77,2.92-16.72-2.67-3.03-5.65-12.39-2.14-9.29,3.57,6.72,12.71,25.51,16.15,34.94,4.1,5.5-7,5.83-16.35,6.12-24.85.37-9.07.39-18.04,1.47-27.05,1.08-9.01,3.17-17.98,8.01-25.76,5.28-8.33,13.06-14.65,21.23-20.02,16.53-10.83,35.56-18.37,48.84-33.61,10.87-12.56,16.52-31.24,9.07-46.86-2.77-5.82-12.05-2.25-9.29,3.57Z" style="fill: #aac6dc;"/>
    </g>
  </g>
</svg>