<?xml version="1.0" encoding="UTF-8"?>
<svg id="Layer_1" data-name="Layer 1" xmlns="http://www.w3.org/2000/svg" viewBox="0 0 1859 424.58">
  <g>
    <g>
      <polyline points="397.38 42.58 397.38 42.58 1492.64 37.55 1492.64 37.55" style="fill: #0137bb;"/>
      <polygon points="1492.64 36.97 1492.64 13.4 1513.05 25.19 1533.46 36.97 1513.05 48.76 1492.64 60.54 1492.64 36.97" style="fill: #0137bb; fill-rule: evenodd;"/>
      <polygon points="397.38 43.06 397.38 66.63 376.97 54.84 356.56 43.06 376.97 31.27 397.38 19.49 397.38 43.06" style="fill: #0137bb; fill-rule: evenodd;"/>
    </g>
    <path d="m547.47,80.76c-20.71,0-37.55-16.85-37.55-37.55s16.85-37.55,37.55-37.55,37.55,16.85,37.55,37.55-16.85,37.55-37.55,37.55Zm0-74.11c-20.16,0-36.55,16.4-36.55,36.55s16.4,36.55,36.55,36.55,36.55-16.4,36.55-36.55-16.4-36.55-36.55-36.55Z" style="fill: #0137bb;"/>
    <path d="m644.82,81.39c-20.71,0-37.55-16.85-37.55-37.55s16.85-37.55,37.55-37.55,37.55,16.85,37.55,37.55-16.85,37.55-37.55,37.55Zm0-74.11c-20.16,0-36.55,16.4-36.55,36.55s16.4,36.55,36.55,36.55,36.55-16.4,36.55-36.55-16.4-36.55-36.55-36.55Z" style="fill: #0137bb;"/>
    <path d="m741.53,81.39c-20.71,0-37.55-16.85-37.55-37.55s16.85-37.55,37.55-37.55,37.55,16.85,37.55,37.55-16.85,37.55-37.55,37.55Zm0-74.11c-20.16,0-36.55,16.4-36.55,36.55s16.4,36.55,36.55,36.55,36.55-16.4,36.55-36.55-16.4-36.55-36.55-36.55Z" style="fill: #0137bb;"/>
    <circle cx="840.76" cy="43.83" r="37.05" style="fill: #0137bb;"/>
    <path d="m945.01,80.13c-20.71,0-37.55-16.85-37.55-37.55s16.85-37.55,37.55-37.55,37.55,16.85,37.55,37.55-16.85,37.55-37.55,37.55Zm0-74.11c-20.16,0-36.55,16.4-36.55,36.55s16.4,36.55,36.55,36.55,36.55-16.4,36.55-36.55-16.4-36.55-36.55-36.55Z" style="fill: #0137bb;"/>
    <path d="m1048,80.13c-20.71,0-37.55-16.85-37.55-37.55s16.85-37.55,37.55-37.55,37.55,16.85,37.55,37.55-16.85,37.55-37.55,37.55Zm0-74.11c-20.16,0-36.55,16.4-36.55,36.55s16.4,36.55,36.55,36.55,36.55-16.4,36.55-36.55-16.4-36.55-36.55-36.55Z" style="fill: #0137bb;"/>
    <path d="m1149.74,80.13c-20.71,0-37.55-16.85-37.55-37.55s16.85-37.55,37.55-37.55,37.55,16.85,37.55,37.55-16.85,37.55-37.55,37.55Zm0-74.11c-20.16,0-36.55,16.4-36.55,36.55s16.4,36.55,36.55,36.55,36.55-16.4,36.55-36.55-16.4-36.55-36.55-36.55Z" style="fill: #0137bb;"/>
    <path d="m1252.74,75.11c-20.71,0-37.55-16.85-37.55-37.55S1232.03,0,1252.74,0s37.55,16.85,37.55,37.55-16.85,37.55-37.55,37.55Zm0-74.11c-20.16,0-36.55,16.4-36.55,36.55s16.4,36.55,36.55,36.55,36.55-16.4,36.55-36.55S1272.89,1,1252.74,1Z" style="fill: #0137bb;"/>
    <path d="m1355.73,75.11c-20.71,0-37.55-16.85-37.55-37.55S1335.03,0,1355.73,0s37.55,16.85,37.55,37.55-16.85,37.55-37.55,37.55Zm0-74.11c-20.16,0-36.55,16.4-36.55,36.55s16.4,36.55,36.55,36.55,36.55-16.4,36.55-36.55S1375.89,1,1355.73,1Z" style="fill: #0137bb;"/>
  </g>
  <g>
    <path d="m58.83,33.45c3.01,2.89,5.14,5.06,6.39,6.51.65.73.97,1.34.97,1.84s-.39,1.09-1.18,1.77c-.79.68-1.43,1.02-1.93,1.02s-1.1-.41-1.81-1.24l-6.48-7.4v5.75c0,.47-.01.81-.04,1.03-.03.22-.12.47-.28.77-.28.53-1.04.8-2.3.8-1.38,0-2.18-.37-2.42-1.12-.12-.31-.18-.81-.18-1.5v-16.38c0-.45.01-.79.04-1.02.03-.23.12-.49.28-.78.27-.53,1.04-.8,2.3-.8,1.37,0,2.19.36,2.45,1.09.1.33.15.84.15,1.53v5.63c2.67-3.01,4.83-5.47,6.48-7.4.69-.81,1.29-1.21,1.8-1.21s1.16.34,1.94,1.02c.79.68,1.18,1.27,1.18,1.77s-.29,1.1-.88,1.78c-1.14,1.32-2.91,3.12-5.3,5.42l-1.18,1.12Z" style="fill: #0137bb;"/>
    <path d="m69.26,30.71c1.65-1.53,3.54-2.3,5.66-2.3s4,.76,5.63,2.28c1.63,1.52,2.45,3.46,2.45,5.82,0,1.63-.42,3.08-1.27,4.35-.85,1.27-1.87,2.2-3.08,2.8-1.21.6-2.46.9-3.76.9s-2.55-.32-3.77-.96c-1.22-.64-2.24-1.58-3.08-2.83s-1.25-2.66-1.25-4.23c0-2.36.82-4.3,2.48-5.83Zm3.68,7.94c.63.48,1.27.72,1.92.72s1.3-.25,1.94-.74c.65-.49.97-1.22.97-2.18s-.3-1.68-.91-2.15c-.61-.47-1.27-.71-1.97-.71s-1.37.25-1.97.74c-.61.49-.91,1.21-.91,2.17s.31,1.67.94,2.15Z" style="fill: #0137bb;"/>
    <path d="m95.32,22.3c.15-.28.41-.49.78-.6.37-.12.87-.18,1.49-.18s1.11.06,1.49.18c.37.12.63.32.78.62.15.29.24.56.27.78.03.23.04.56.04,1.02v17.59c0,.45-.02.79-.04,1.02s-.12.48-.28.75c-.29.53-1.12.8-2.49.8s-2.13-.48-2.28-1.44c-.83.94-1.97,1.41-3.45,1.41-1.77,0-3.38-.77-4.83-2.31-1.45-1.54-2.18-3.34-2.18-5.39s.73-3.85,2.2-5.41,3.07-2.33,4.82-2.33c1.45,0,2.58.49,3.39,1.47v-6.19c0-.45.01-.79.04-1.02.03-.23.12-.48.27-.77Zm-4.79,16.01c.51.53,1.13.8,1.86.8s1.33-.27,1.81-.8c.48-.53.72-1.11.72-1.75s-.23-1.23-.69-1.78c-.46-.55-1.09-.82-1.87-.82s-1.41.27-1.89.81c-.47.54-.71,1.13-.71,1.78s.25,1.24.77,1.77Z" style="fill: #0137bb;"/>
    <path d="m111.16,28.77c1.96,0,3.6.75,4.91,2.25,1.31,1.5,1.96,3.33,1.96,5.5v5.19c0,.45-.01.79-.04,1.02s-.11.48-.25.75c-.28.53-1.04.8-2.3.8-1.4,0-2.2-.36-2.42-1.09-.12-.33-.18-.83-.18-1.5v-5.19c0-.81-.23-1.43-.69-1.89-.46-.45-1.08-.68-1.86-.68s-1.4.24-1.89.71c-.48.47-.72,1.09-.72,1.86v5.22c0,.45-.01.79-.04,1.02-.03.23-.12.48-.28.75-.26.53-1.01.8-2.27.8s-1.99-.27-2.27-.8c-.14-.29-.22-.55-.25-.78-.03-.23-.04-.56-.04-1.02v-10.43c0-.43.01-.76.04-.99.03-.23.12-.48.28-.75.27-.49,1.03-.74,2.27-.74s1.93.23,2.21.68c.2.33.29.74.29,1.21.08-.14.25-.33.53-.59.27-.25.54-.46.8-.62.67-.45,1.4-.68,2.21-.68Z" style="fill: #0137bb;"/>
    <path d="m125.23,25.89c-.15.29-.41.49-.78.6-.37.12-.87.18-1.49.18s-1.12-.06-1.49-.18c-.37-.12-.63-.32-.78-.62-.15-.29-.24-.55-.27-.78-.03-.23-.04-.56-.04-1.02s.01-.79.04-1.02c.03-.23.11-.48.25-.75.27-.53,1.04-.8,2.3-.8s1.98.27,2.24.8c.16.29.25.56.28.78.03.23.04.56.04,1.02s-.01.79-.04,1.02c-.03.23-.12.48-.27.77Zm-4.85,5.47c0-.45.01-.79.04-1.02.03-.23.11-.49.25-.78.27-.51,1.04-.77,2.3-.77.94,0,1.61.17,2,.5.33.28.51.7.53,1.27.02.2.03.48.03.85v10.31c0,.45-.01.79-.04,1.02-.03.23-.12.49-.28.78-.26.51-1.01.77-2.27.77s-1.99-.27-2.27-.8c-.14-.29-.22-.55-.25-.77-.03-.22-.04-.56-.04-1.03v-10.34Z" style="fill: #0137bb;"/>
    <path d="m136.53,28.77c1.96,0,3.6.75,4.91,2.25,1.31,1.5,1.96,3.33,1.96,5.5v5.19c0,.45-.01.79-.04,1.02s-.11.48-.25.75c-.28.53-1.04.8-2.3.8-1.4,0-2.2-.36-2.42-1.09-.12-.33-.18-.83-.18-1.5v-5.19c0-.81-.23-1.43-.69-1.89-.46-.45-1.08-.68-1.86-.68s-1.4.24-1.89.71c-.48.47-.72,1.09-.72,1.86v5.22c0,.45-.01.79-.04,1.02-.03.23-.12.48-.28.75-.26.53-1.01.8-2.27.8s-1.99-.27-2.27-.8c-.14-.29-.22-.55-.25-.78-.03-.23-.04-.56-.04-1.02v-10.43c0-.43.01-.76.04-.99.03-.23.12-.48.28-.75.27-.49,1.03-.74,2.27-.74s1.93.23,2.21.68c.2.33.29.74.29,1.21.08-.14.25-.33.53-.59.27-.25.54-.46.8-.62.67-.45,1.4-.68,2.21-.68Z" style="fill: #0137bb;"/>
    <path d="m155.59,42.35c-.75.98-1.94,1.47-3.57,1.47s-3.16-.75-4.58-2.25c-1.42-1.5-2.14-3.26-2.14-5.26s.72-3.76,2.15-5.27c1.43-1.51,3.01-2.27,4.71-2.27.67,0,1.28.12,1.83.37.55.25.93.47,1.13.68.21.21.37.4.49.57.06-.55.26-.97.6-1.25.34-.28.9-.43,1.66-.43s1.33.06,1.68.18c.35.12.6.32.75.6.15.29.24.54.27.75.03.22.04.55.04,1v12.2c0,2.26-.79,4.08-2.36,5.47-1.57,1.38-3.34,2.08-5.3,2.08-1.49,0-2.92-.36-4.27-1.09-1.36-.73-2.03-1.39-2.03-1.97,0-.77.29-1.44.88-2.03.37-.41.66-.7.87-.85.21-.16.45-.24.72-.24s.56.12.85.35c.94.73,1.96,1.09,3.06,1.09.75,0,1.36-.29,1.83-.88.47-.59.71-1.3.71-2.12v-.88Zm-5.24-6.03c0,.64.25,1.21.75,1.72.5.51,1.11.77,1.83.77s1.31-.26,1.78-.78c.47-.52.71-1.09.71-1.71s-.23-1.2-.68-1.74c-.45-.54-1.06-.81-1.83-.81s-1.39.27-1.86.8c-.47.53-.71,1.12-.71,1.75Z" style="fill: #0137bb;"/>
    <path d="m163.11,42.91c-.37-.24-.56-.61-.56-1.12s.37-1.29,1.12-2.33c.22-.33.56-.5,1.05-.5s1.13.24,1.96.72c.83.48,1.57.72,2.24.72,1.2,0,1.8-.24,1.8-.71,0-.37-.66-.65-1.97-.83-1.24-.18-2.47-.64-3.68-1.38-.57-.35-1.04-.91-1.41-1.66s-.56-1.65-.56-2.7c0-3.1,2.13-4.66,6.39-4.66,1.39,0,2.83.33,4.3,1,.69.31,1.03.71,1.03,1.18s-.22,1.05-.65,1.74c-.43.69-.87,1.03-1.33,1.03-.24,0-.67-.15-1.31-.44-.64-.29-1.33-.44-2.08-.44-1.16,0-1.74.22-1.74.65,0,.59.67.97,2,1.15,1.3.14,2.55.51,3.77,1.12.57.28,1.05.75,1.43,1.43.38.68.57,1.53.57,2.55s-.19,1.89-.57,2.61c-.38.72-.92,1.25-1.61,1.61-1.26.61-2.83.91-4.73.91s-3.72-.55-5.47-1.65Z" style="fill: #0137bb;"/>
    <path d="m194.93,30.42c.12-1.1.89-1.65,2.33-1.65.77,0,1.34.06,1.71.18s.63.32.78.62c.15.29.24.56.27.78.03.23.04.56.04,1.02v10.31c0,.45-.01.79-.04,1.02-.03.23-.11.49-.25.78-.28.51-.95.77-2.02.77s-1.79-.13-2.15-.4c-.36-.27-.57-.65-.63-1.16-.73,1.04-1.94,1.56-3.64,1.56s-3.28-.78-4.73-2.33c-1.45-1.55-2.18-3.35-2.18-5.41s.73-3.85,2.19-5.39c1.46-1.54,3.07-2.31,4.82-2.31.67,0,1.28.12,1.83.35.55.24.93.46,1.15.66.22.21.39.41.53.6Zm-5.36,6.13c0,.65.25,1.23.77,1.75.51.52,1.13.78,1.86.78s1.33-.27,1.81-.8c.48-.53.72-1.11.72-1.75s-.23-1.23-.69-1.78c-.46-.55-1.08-.83-1.86-.83s-1.4.28-1.89.83c-.48.55-.72,1.15-.72,1.8Z" style="fill: #0137bb;"/>
    <path d="m207.48,30.83c.92-1.39,2.03-2.09,3.33-2.09,2,0,3.5.85,4.48,2.56.22-.29.48-.6.78-.93.3-.32.79-.68,1.46-1.06.67-.38,1.36-.57,2.06-.57,1.57,0,2.89.6,3.95,1.81,1.06,1.21,1.59,3.21,1.59,6v5.16c0,.45-.01.79-.04,1.02-.03.23-.12.49-.28.78-.26.53-1.01.8-2.27.8s-1.99-.27-2.27-.83c-.14-.29-.22-.55-.25-.78-.03-.23-.04-.56-.04-1.02v-5.16c0-1.71-.61-2.56-1.83-2.56-.69,0-1.15.23-1.4.68-.25.45-.37,1.09-.37,1.92v5.16c0,.47-.01.81-.04,1.03s-.12.47-.28.77c-.28.53-1.04.8-2.3.8s-1.99-.27-2.27-.83c-.14-.29-.22-.55-.25-.78-.03-.23-.04-.56-.04-1.02v-5.16c0-1.71-.61-2.56-1.83-2.56s-1.77.85-1.77,2.56v5.22c0,.45-.02.79-.04,1.02-.03.23-.12.49-.28.78-.29.51-1.06.77-2.3.77s-1.99-.27-2.27-.8c-.14-.29-.22-.55-.25-.77-.03-.22-.04-.56-.04-1.03v-10.37c0-.45.01-.79.04-1.02.03-.23.12-.48.28-.75.29-.53.99-.8,2.09-.8s1.82.18,2.15.53.5.86.5,1.53Z" style="fill: #0137bb;"/>
    <path d="m237.57,30.42c.12-1.1.89-1.65,2.33-1.65.77,0,1.34.06,1.71.18s.63.32.78.62c.15.29.24.56.27.78.03.23.04.56.04,1.02v10.31c0,.45-.01.79-.04,1.02-.03.23-.11.49-.25.78-.28.51-.95.77-2.02.77s-1.79-.13-2.15-.4c-.36-.27-.57-.65-.63-1.16-.73,1.04-1.94,1.56-3.64,1.56s-3.28-.78-4.73-2.33c-1.45-1.55-2.18-3.35-2.18-5.41s.73-3.85,2.19-5.39c1.46-1.54,3.07-2.31,4.82-2.31.67,0,1.28.12,1.83.35.55.24.93.46,1.15.66.22.21.39.41.53.6Zm-5.36,6.13c0,.65.25,1.23.77,1.75.51.52,1.13.78,1.86.78s1.33-.27,1.81-.8c.48-.53.72-1.11.72-1.75s-.23-1.23-.69-1.78c-.46-.55-1.08-.83-1.86-.83s-1.4.28-1.89.83c-.48.55-.72,1.15-.72,1.8Z" style="fill: #0137bb;"/>
    <path d="m254.07,33.98l-1.92-.12v4.07c0,.53.08.91.25,1.15.17.24.48.35.94.35s.81.01,1.06.04c.25.03.51.12.78.28.45.26.68.91.68,1.97,0,1.24-.28,1.99-.83,2.27-.29.14-.56.22-.78.25-.23.03-.56.04-.99.04-2.04,0-3.59-.46-4.66-1.38-1.06-.92-1.59-2.48-1.59-4.69v-4.36c-.37.06-.78.09-1.21.09s-.79-.17-1.08-.5-.43-.9-.43-1.71.05-1.39.15-1.75c.1-.36.24-.62.41-.78.31-.25.71-.38,1.18-.38l.97.12v-3.03c0-.45.01-.79.04-1,.03-.22.12-.45.28-.71.25-.49,1.01-.74,2.27-.74,1.34,0,2.13.36,2.39,1.09.1.31.15.82.15,1.5v2.89c.86-.08,1.52-.12,1.96-.12s.78.01,1,.04c.23.03.49.12.78.28.51.26.77,1.01.77,2.27s-.27,1.99-.8,2.27c-.29.14-.56.22-.78.25-.23.03-.56.04-1.02.04Z" style="fill: #0137bb;"/>
    <path d="m271.48,30.62c1.71,1.57,2.56,3.55,2.56,5.92,0,1.63-.42,3.08-1.27,4.35-.85,1.27-1.87,2.2-3.08,2.8-1.21.6-2.45.9-3.73.9-.41,0-.81-.03-1.18-.09l-1.41,2.95c-.16.33-.28.58-.37.74-.09.16-.24.31-.44.46s-.48.22-.81.22-.83-.15-1.47-.44c-.65-.29-1.09-.56-1.31-.78s-.34-.54-.34-.93.12-.82.35-1.3l1.44-3.01c-1.73-1.57-2.59-3.53-2.59-5.86s.82-4.27,2.48-5.8c1.65-1.53,3.52-2.3,5.6-2.3.37,0,.76.03,1.15.09l1.41-2.95c.37-.75.71-1.19,1-1.33.16-.06.39-.09.69-.09s.8.16,1.49.47c1.06.51,1.59,1.07,1.59,1.68,0,.26-.14.75-.41,1.47l-1.36,2.83Zm-7.48,8.06c.63.48,1.27.72,1.92.72s1.3-.25,1.94-.74c.65-.49.97-1.22.97-2.18s-.3-1.68-.91-2.15c-.61-.47-1.27-.71-1.97-.71s-1.37.25-1.97.74c-.61.49-.91,1.21-.91,2.17s.31,1.67.94,2.15Z" style="fill: #0137bb;"/>
    <path d="m286.51,28.94c.37.12.68.32.93.6.25.29.37.74.37,1.37s-.19,1.32-.56,2.06-.91,1.12-1.62,1.12c-.35,0-.69-.08-1.02-.24s-.75-.24-1.28-.24-1.03.19-1.49.56c-.46.37-.69.82-.69,1.35v6.19c0,.45-.02.79-.04,1.02-.03.23-.12.49-.28.78-.29.51-1.06.77-2.3.77-.94,0-1.62-.17-2.03-.5-.31-.27-.49-.7-.53-1.27v-11.2c0-.45.01-.79.04-1.02.03-.23.11-.48.25-.75.27-.53,1.04-.8,2.3-.8,1.18,0,1.92.23,2.21.68.22.31.32.64.32.97.1-.14.24-.3.43-.5.19-.2.58-.46,1.19-.8.61-.33,1.14-.5,1.61-.5s.85.02,1.16.07c.31.05.66.13,1.03.25Z" style="fill: #0137bb;"/>
  </g>
  <g>
    <path d="m1591.52,31.34c3.01,2.89,5.14,5.06,6.39,6.51.65.73.97,1.34.97,1.84s-.39,1.09-1.18,1.77c-.79.68-1.43,1.02-1.93,1.02s-1.1-.41-1.81-1.24l-6.48-7.4v5.75c0,.47-.01.81-.04,1.03s-.12.47-.28.77c-.28.53-1.04.8-2.3.8-1.38,0-2.18-.37-2.42-1.12-.12-.31-.18-.81-.18-1.5v-16.38c0-.45.01-.79.04-1.02.03-.23.12-.49.28-.78.27-.53,1.04-.8,2.3-.8,1.38,0,2.19.36,2.45,1.09.1.33.15.84.15,1.53v5.63c2.67-3.01,4.83-5.47,6.48-7.4.69-.81,1.29-1.21,1.8-1.21s1.16.34,1.94,1.02c.79.68,1.18,1.27,1.18,1.77s-.29,1.1-.88,1.78c-1.14,1.32-2.91,3.12-5.3,5.42l-1.18,1.12Z" style="fill: #0137bb;"/>
    <path d="m1601.95,28.6c1.65-1.53,3.54-2.3,5.66-2.3s4,.76,5.63,2.28c1.63,1.52,2.45,3.46,2.45,5.82,0,1.63-.42,3.08-1.27,4.35-.84,1.27-1.87,2.2-3.08,2.8s-2.46.9-3.76.9-2.55-.32-3.77-.96c-1.22-.64-2.25-1.58-3.08-2.83-.84-1.25-1.25-2.66-1.25-4.23,0-2.36.83-4.3,2.48-5.83Zm3.68,7.94c.63.48,1.27.72,1.92.72s1.3-.25,1.94-.74c.65-.49.97-1.22.97-2.18s-.3-1.68-.91-2.15c-.61-.47-1.27-.71-1.97-.71s-1.37.25-1.97.74c-.61.49-.91,1.21-.91,2.17s.31,1.67.94,2.15Z" style="fill: #0137bb;"/>
    <path d="m1628.01,20.18c.15-.28.41-.49.78-.6.37-.12.87-.18,1.49-.18s1.12.06,1.49.18c.37.12.63.32.78.62.15.29.24.56.26.78.03.23.04.56.04,1.02v17.59c0,.45-.01.79-.04,1.02s-.12.48-.28.75c-.29.53-1.12.8-2.49.8s-2.13-.48-2.28-1.44c-.82.94-1.97,1.41-3.45,1.41-1.77,0-3.38-.77-4.83-2.31-1.45-1.54-2.18-3.34-2.18-5.39s.73-3.85,2.2-5.41c1.46-1.55,3.07-2.33,4.82-2.33,1.45,0,2.58.49,3.39,1.47v-6.19c0-.45.01-.79.04-1.02.03-.23.12-.48.27-.77Zm-4.79,16.01c.51.53,1.13.8,1.86.8s1.33-.27,1.81-.8.72-1.11.72-1.75-.23-1.23-.69-1.78c-.46-.55-1.09-.82-1.87-.82s-1.42.27-1.89.81c-.47.54-.71,1.13-.71,1.78s.26,1.24.77,1.77Z" style="fill: #0137bb;"/>
    <path d="m1643.85,26.65c1.96,0,3.6.75,4.91,2.25,1.31,1.5,1.96,3.33,1.96,5.5v5.19c0,.45-.01.79-.04,1.02-.03.23-.11.48-.25.75-.28.53-1.04.8-2.3.8-1.4,0-2.2-.36-2.42-1.09-.12-.33-.18-.83-.18-1.5v-5.19c0-.81-.23-1.43-.69-1.89-.46-.45-1.08-.68-1.86-.68s-1.4.24-1.89.71c-.48.47-.72,1.09-.72,1.86v5.22c0,.45-.01.79-.04,1.02s-.12.48-.28.75c-.25.53-1.01.8-2.27.8s-1.99-.27-2.27-.8c-.14-.29-.22-.55-.25-.78-.03-.23-.04-.56-.04-1.02v-10.43c0-.43.01-.76.04-.99.03-.23.12-.48.28-.75.27-.49,1.03-.74,2.27-.74s1.93.23,2.21.68c.2.33.29.74.29,1.21.08-.14.25-.33.53-.59.27-.25.54-.46.8-.62.67-.45,1.4-.68,2.21-.68Z" style="fill: #0137bb;"/>
    <path d="m1657.92,23.78c-.15.29-.41.49-.78.6-.37.12-.87.18-1.49.18s-1.12-.06-1.49-.18c-.37-.12-.63-.32-.78-.62-.15-.29-.24-.55-.27-.78-.03-.23-.04-.56-.04-1.02s.01-.79.04-1.02c.03-.23.11-.48.25-.75.27-.53,1.04-.8,2.3-.8s1.98.27,2.24.8c.16.29.25.56.28.78.03.23.04.56.04,1.02s-.01.79-.04,1.02c-.03.23-.12.48-.27.77Zm-4.85,5.47c0-.45.01-.79.04-1.02.03-.23.11-.49.25-.78.27-.51,1.04-.77,2.3-.77.94,0,1.61.17,2,.5.33.28.51.7.53,1.27.02.2.03.48.03.85v10.31c0,.45-.01.79-.04,1.02-.03.23-.12.49-.28.78-.25.51-1.01.77-2.27.77s-1.99-.27-2.27-.8c-.14-.29-.22-.55-.25-.77s-.04-.56-.04-1.03v-10.34Z" style="fill: #0137bb;"/>
    <path d="m1669.22,26.65c1.96,0,3.6.75,4.91,2.25,1.31,1.5,1.96,3.33,1.96,5.5v5.19c0,.45-.01.79-.04,1.02-.03.23-.11.48-.25.75-.28.53-1.04.8-2.3.8-1.4,0-2.2-.36-2.42-1.09-.12-.33-.18-.83-.18-1.5v-5.19c0-.81-.23-1.43-.69-1.89-.46-.45-1.08-.68-1.86-.68s-1.4.24-1.89.71c-.48.47-.72,1.09-.72,1.86v5.22c0,.45-.01.79-.04,1.02s-.12.48-.28.75c-.25.53-1.01.8-2.27.8s-1.99-.27-2.27-.8c-.14-.29-.22-.55-.25-.78-.03-.23-.04-.56-.04-1.02v-10.43c0-.43.01-.76.04-.99.03-.23.12-.48.28-.75.27-.49,1.03-.74,2.27-.74s1.93.23,2.21.68c.2.33.29.74.29,1.21.08-.14.25-.33.53-.59.27-.25.54-.46.8-.62.67-.45,1.4-.68,2.21-.68Z" style="fill: #0137bb;"/>
    <path d="m1688.28,40.23c-.75.98-1.94,1.47-3.57,1.47s-3.16-.75-4.58-2.25c-1.42-1.5-2.14-3.26-2.14-5.26s.72-3.76,2.15-5.27c1.43-1.51,3.01-2.27,4.71-2.27.67,0,1.28.12,1.83.37.55.25.93.47,1.13.68.21.21.37.4.49.57.06-.55.26-.97.6-1.25.34-.28.9-.43,1.67-.43s1.33.06,1.68.18c.35.12.6.32.75.6.15.29.24.54.27.75.03.22.04.55.04,1v12.2c0,2.26-.79,4.08-2.36,5.47s-3.34,2.08-5.3,2.08c-1.49,0-2.92-.36-4.27-1.09-1.36-.73-2.03-1.39-2.03-1.97,0-.77.29-1.44.88-2.03.37-.41.66-.7.87-.85.21-.16.45-.24.72-.24s.56.12.85.35c.94.73,1.96,1.09,3.06,1.09.75,0,1.36-.29,1.83-.88.47-.59.71-1.3.71-2.12v-.88Zm-5.25-6.03c0,.64.25,1.21.75,1.72s1.11.77,1.83.77,1.31-.26,1.78-.78c.47-.52.71-1.09.71-1.71s-.23-1.2-.68-1.74c-.45-.54-1.06-.81-1.83-.81s-1.38.27-1.86.8-.71,1.12-.71,1.75Z" style="fill: #0137bb;"/>
    <path d="m1695.79,40.79c-.37-.24-.56-.61-.56-1.12s.37-1.29,1.12-2.33c.22-.33.56-.5,1.05-.5s1.13.24,1.96.72c.83.48,1.57.72,2.24.72,1.2,0,1.8-.24,1.8-.71,0-.37-.66-.65-1.97-.83-1.24-.18-2.47-.64-3.68-1.38-.57-.35-1.04-.91-1.41-1.66-.37-.76-.56-1.65-.56-2.7,0-3.1,2.13-4.66,6.39-4.66,1.39,0,2.83.33,4.3,1,.69.31,1.03.71,1.03,1.18s-.22,1.05-.65,1.74c-.43.69-.87,1.03-1.33,1.03-.24,0-.67-.15-1.31-.44-.64-.29-1.33-.44-2.08-.44-1.16,0-1.74.22-1.74.65,0,.59.67.97,2,1.15,1.3.14,2.55.51,3.77,1.12.57.28,1.05.75,1.43,1.43.38.68.57,1.53.57,2.55s-.19,1.89-.57,2.61c-.38.72-.92,1.25-1.61,1.61-1.26.61-2.83.91-4.73.91s-3.72-.55-5.47-1.65Z" style="fill: #0137bb;"/>
    <path d="m1732.51,32.56c0,1.21-.3,2.1-.9,2.68-.6.58-1.26.87-1.99.87h-6.98c0,.55.32,1.01.97,1.38.65.37,1.3.56,1.95.56,1.14,0,2.03-.12,2.68-.35l.32-.12c.47-.22.86-.32,1.18-.32.63,0,1.17.44,1.62,1.33.25.53.38.98.38,1.36,0,1.75-2.09,2.62-6.28,2.62-1.45,0-2.75-.25-3.87-.75-1.13-.5-2.01-1.16-2.64-1.99-1.24-1.59-1.86-3.37-1.86-5.33,0-2.48.8-4.45,2.4-5.94,1.6-1.48,3.6-2.22,6-2.22,2.73,0,4.73.96,6.01,2.89.67,1.02,1,2.14,1,3.34Zm-6.22.87c.75,0,1.12-.31,1.12-.94,0-.45-.17-.81-.52-1.09-.34-.27-.83-.41-1.47-.41s-1.27.26-1.9.78c-.63.52-.94,1.08-.94,1.66h3.71Z" style="fill: #0137bb;"/>
    <path d="m1743.56,34.4l3.92,3.24c.49.41.8.73.93.94.13.22.19.42.19.62,0,.47-.3,1.11-.91,1.92-.67.82-1.26,1.24-1.77,1.24-.43,0-1.03-.28-1.8-.85l-.29-.21c-.45-.37-1.15-1.03-2.09-1.96-.94-.93-1.66-1.6-2.15-1.99v2.27c0,.45-.01.79-.04,1.02-.03.23-.12.49-.28.78-.25.51-1.01.77-2.27.77s-1.99-.27-2.27-.8c-.14-.29-.22-.56-.25-.78s-.04-.56-.04-1.02v-17.65c0-.45.01-.79.04-1.02.03-.23.11-.49.25-.78.27-.53,1.04-.8,2.3-.8.94,0,1.61.17,2,.5.33.28.51.71.53,1.3.02.18.03.45.03.83v9.34c.35-.29.89-.8,1.61-1.5.72-.71,1.25-1.21,1.61-1.5l.35-.24c.69-.53,1.28-.8,1.77-.8s1.06.4,1.69,1.19c.64.8.96,1.42.96,1.87s-.36.98-1.09,1.59l-2.92,2.48Z" style="fill: #0137bb;"/>
    <path d="m1750.33,40.79c-.37-.24-.56-.61-.56-1.12s.37-1.29,1.12-2.33c.22-.33.56-.5,1.05-.5s1.13.24,1.96.72c.83.48,1.57.72,2.24.72,1.2,0,1.8-.24,1.8-.71,0-.37-.66-.65-1.97-.83-1.24-.18-2.47-.64-3.68-1.38-.57-.35-1.04-.91-1.41-1.66-.37-.76-.56-1.65-.56-2.7,0-3.1,2.13-4.66,6.39-4.66,1.39,0,2.83.33,4.3,1,.69.31,1.03.71,1.03,1.18s-.22,1.05-.65,1.74c-.43.69-.87,1.03-1.33,1.03-.24,0-.67-.15-1.31-.44-.64-.29-1.33-.44-2.08-.44-1.16,0-1.74.22-1.74.65,0,.59.67.97,2,1.15,1.3.14,2.55.51,3.77,1.12.57.28,1.05.75,1.43,1.43.38.68.57,1.53.57,2.55s-.19,1.89-.57,2.61c-.38.72-.92,1.25-1.61,1.61-1.26.61-2.83.91-4.73.91s-3.72-.55-5.47-1.65Z" style="fill: #0137bb;"/>
    <path d="m1764.62,46.39v-17.21c0-.45.01-.79.04-1,.03-.22.11-.46.25-.74.27-.53.93-.8,1.97-.8s1.74.13,2.11.4c.36.27.57.65.63,1.16.75-1.02,1.92-1.53,3.52-1.53s3.12.76,4.55,2.27c1.43,1.51,2.15,3.27,2.15,5.27s-.71,3.76-2.14,5.27c-1.42,1.51-2.94,2.27-4.55,2.27s-2.78-.45-3.51-1.36v5.95c0,.45-.01.79-.04,1-.03.22-.12.47-.26.75-.15.28-.4.49-.75.6-.35.12-.83.18-1.44.18s-1.1-.06-1.46-.18c-.36-.12-.62-.31-.77-.59-.15-.28-.24-.52-.27-.74-.03-.22-.04-.55-.04-1Zm5.83-13.88c-.45.53-.68,1.11-.68,1.74s.23,1.2.69,1.72c.46.52,1.05.78,1.77.78s1.33-.25,1.83-.77c.5-.51.75-1.09.75-1.74s-.24-1.23-.71-1.75c-.47-.52-1.08-.78-1.84-.78s-1.36.27-1.81.8Z" style="fill: #0137bb;"/>
    <path d="m1796.74,32.56c0,1.21-.3,2.1-.9,2.68-.6.58-1.26.87-1.99.87h-6.98c0,.55.32,1.01.97,1.38.65.37,1.3.56,1.95.56,1.14,0,2.03-.12,2.68-.35l.32-.12c.47-.22.86-.32,1.18-.32.63,0,1.17.44,1.62,1.33.25.53.38.98.38,1.36,0,1.75-2.09,2.62-6.28,2.62-1.45,0-2.75-.25-3.87-.75-1.13-.5-2.01-1.16-2.64-1.99-1.24-1.59-1.86-3.37-1.86-5.33,0-2.48.8-4.45,2.4-5.94,1.6-1.48,3.6-2.22,6-2.22,2.73,0,4.73.96,6.01,2.89.67,1.02,1,2.14,1,3.34Zm-6.22.87c.75,0,1.12-.31,1.12-.94,0-.45-.17-.81-.52-1.09-.34-.27-.83-.41-1.47-.41s-1.27.26-1.9.78c-.63.52-.94,1.08-.94,1.66h3.71Z" style="fill: #0137bb;"/>
    <path d="m1809.21,26.83c.37.12.68.32.93.6.25.29.37.74.37,1.37s-.19,1.32-.56,2.06c-.37.75-.91,1.12-1.62,1.12-.35,0-.69-.08-1.02-.24-.32-.16-.75-.24-1.28-.24s-1.03.19-1.49.56-.69.82-.69,1.35v6.19c0,.45-.01.79-.04,1.02-.03.23-.12.49-.28.78-.29.51-1.06.77-2.3.77-.94,0-1.62-.17-2.03-.5-.31-.27-.49-.7-.53-1.27v-11.2c0-.45.01-.79.04-1.02.03-.23.11-.48.25-.75.27-.53,1.04-.8,2.3-.8,1.18,0,1.92.23,2.21.68.22.31.32.64.32.97.1-.14.24-.3.43-.5s.58-.46,1.19-.8c.61-.33,1.14-.5,1.61-.5s.85.02,1.16.07c.31.05.66.13,1.03.25Z" style="fill: #0137bb;"/>
    <path d="m1821.14,31.87l-1.92-.12v4.07c0,.53.08.91.25,1.15s.48.35.94.35.81.01,1.06.04c.25.03.5.12.78.28.45.26.68.91.68,1.97,0,1.24-.28,1.99-.83,2.27-.29.14-.55.22-.78.25-.23.03-.56.04-.99.04-2.04,0-3.59-.46-4.66-1.38s-1.59-2.48-1.59-4.69v-4.36c-.37.06-.78.09-1.21.09s-.79-.17-1.08-.5c-.29-.33-.43-.9-.43-1.71s.05-1.39.15-1.75c.1-.36.24-.62.41-.78.31-.25.71-.38,1.18-.38l.97.12v-3.03c0-.45.02-.79.04-1,.03-.22.12-.45.28-.71.26-.49,1.01-.74,2.27-.74,1.33,0,2.13.36,2.39,1.09.1.31.15.82.15,1.5v2.89c.86-.08,1.52-.12,1.96-.12s.78.01,1,.04c.23.03.49.12.78.28.51.26.77,1.01.77,2.27s-.27,1.99-.8,2.27c-.29.14-.55.22-.78.25-.23.03-.57.04-1.02.04Z" style="fill: #0137bb;"/>
  </g>
  <g>
    <path d="m37.42,139.98c0-.45.01-.79.04-1.02.03-.23.12-.49.28-.78.27-.53,1.04-.8,2.3-.8,1.37,0,2.19.36,2.45,1.09.1.33.15.84.15,1.53v16.38c0,.47-.01.81-.04,1.03-.03.22-.12.47-.28.77-.28.53-1.04.8-2.3.8-1.38,0-2.18-.37-2.42-1.12-.12-.31-.18-.81-.18-1.5v-16.38Z" style="fill: #0137bb;"/>
    <path d="m50.42,153.77c.65,0,1.13.17,1.44.5.31.33.47,1.02.47,2.06s-.17,1.73-.5,2.08c-.33.34-.82.52-1.44.52-1.98,0-3.38-.48-4.18-1.43-.81-.95-1.21-2.54-1.21-4.76v-14.06c0-.45.01-.79.04-1.02.03-.23.11-.49.25-.78.27-.51,1.04-.77,2.3-.77s1.94.28,2.24.83c.16.28.25.53.28.75.03.23.04.56.04,1.02v14.14c0,.61.09.91.27.91Zm7.93-.18c.16.12.56.18,1.21.18s1.19.17,1.62.5.65,1.02.65,2.06-.23,1.73-.69,2.08c-.46.34-1.1.52-1.93.52-4.16,0-6.25-2.06-6.25-6.19l-.03-14.06c0-.45.01-.79.04-1.02.03-.23.12-.49.28-.78.29-.51,1.06-.77,2.3-.77s1.94.28,2.24.83c.22.43.32,1.02.32,1.77v14.14c0,.37.08.62.24.74Z" style="fill: #0137bb;"/>
    <path d="m70.33,158.93c-1.98,0-3.63-.75-4.94-2.25-1.31-1.5-1.96-3.33-1.96-5.5v-5.16c0-.47.01-.81.04-1.03.03-.22.11-.47.25-.77.27-.53,1.04-.8,2.3-.8,1.38,0,2.18.37,2.42,1.12.12.31.18.82.18,1.5v5.16c0,.81.23,1.43.69,1.89.46.45,1.08.68,1.86.68s1.4-.24,1.89-.71c.48-.47.72-1.09.72-1.86v-5.22c0-.45.01-.79.04-1.02.03-.23.12-.49.28-.78.25-.51,1.01-.77,2.27-.77s1.99.27,2.27.8c.14.29.22.56.25.78.03.23.04.56.04,1.02v10.43c0,.43-.01.76-.04.99-.03.23-.12.48-.28.75-.29.51-1.05.77-2.27.77s-1.94-.24-2.21-.71c-.2-.33-.29-.74-.29-1.21-.08.14-.26.33-.53.59-.27.26-.54.47-.8.65-.67.43-1.4.65-2.18.65Z" style="fill: #0137bb;"/>
    <path d="m81.41,157.61c-.37-.24-.56-.61-.56-1.12s.37-1.29,1.12-2.33c.22-.33.56-.5,1.05-.5s1.13.24,1.96.72c.83.48,1.57.72,2.24.72,1.2,0,1.8-.24,1.8-.71,0-.37-.66-.65-1.97-.83-1.24-.18-2.47-.64-3.68-1.38-.57-.35-1.04-.91-1.41-1.66s-.56-1.65-.56-2.7c0-3.1,2.13-4.66,6.39-4.66,1.39,0,2.83.33,4.3,1,.69.31,1.03.71,1.03,1.18s-.22,1.05-.65,1.74c-.43.69-.87,1.03-1.33,1.03-.24,0-.67-.15-1.31-.44-.64-.29-1.33-.44-2.08-.44-1.16,0-1.74.22-1.74.65,0,.59.67.97,2,1.15,1.3.14,2.55.51,3.77,1.12.57.28,1.05.75,1.43,1.43.38.68.57,1.53.57,2.55s-.19,1.89-.57,2.61c-.38.72-.92,1.25-1.61,1.61-1.26.61-2.83.91-4.73.91s-3.72-.55-5.47-1.65Z" style="fill: #0137bb;"/>
    <path d="m104.25,148.68l-1.92-.12v4.07c0,.53.08.91.25,1.15.17.24.48.35.94.35s.81.01,1.06.04c.25.03.51.12.78.28.45.26.68.91.68,1.97,0,1.24-.28,1.99-.83,2.27-.29.14-.56.22-.78.25-.23.03-.56.04-.99.04-2.04,0-3.59-.46-4.66-1.38-1.06-.92-1.59-2.48-1.59-4.69v-4.36c-.37.06-.78.09-1.21.09s-.79-.17-1.08-.5-.43-.9-.43-1.71.05-1.39.15-1.75c.1-.36.24-.62.41-.78.31-.25.71-.38,1.18-.38l.97.12v-3.03c0-.45.01-.79.04-1,.03-.22.12-.45.28-.71.25-.49,1.01-.74,2.27-.74,1.34,0,2.13.36,2.39,1.09.1.31.15.82.15,1.5v2.89c.86-.08,1.52-.12,1.96-.12s.78.01,1,.04c.23.03.49.12.78.28.51.26.77,1.01.77,2.27s-.27,1.99-.8,2.27c-.29.14-.56.22-.78.25-.23.03-.56.04-1.02.04Z" style="fill: #0137bb;"/>
    <path d="m119.01,143.64c.37.12.68.32.93.6.25.29.37.74.37,1.37s-.19,1.32-.56,2.06-.91,1.12-1.62,1.12c-.35,0-.69-.08-1.02-.24s-.75-.24-1.28-.24-1.03.19-1.49.56c-.46.37-.69.82-.69,1.35v6.19c0,.45-.02.79-.04,1.02-.03.23-.12.49-.28.78-.29.51-1.06.77-2.3.77-.94,0-1.62-.17-2.03-.5-.31-.27-.49-.7-.53-1.27v-11.2c0-.45.01-.79.04-1.02.03-.23.11-.48.25-.75.27-.53,1.04-.8,2.3-.8,1.18,0,1.92.23,2.21.68.22.31.32.64.32.97.1-.14.24-.3.43-.5.19-.2.58-.46,1.19-.8.61-.33,1.14-.5,1.61-.5s.85.02,1.16.07c.31.05.66.13,1.03.25Z" style="fill: #0137bb;"/>
    <path d="m131.12,145.11c.12-1.1.89-1.65,2.33-1.65.77,0,1.34.06,1.71.18s.63.32.78.62c.15.29.24.56.27.78.03.23.04.56.04,1.02v10.31c0,.45-.01.79-.04,1.02-.03.23-.11.49-.25.78-.28.51-.95.77-2.02.77s-1.79-.13-2.15-.4c-.36-.27-.57-.65-.63-1.16-.73,1.04-1.94,1.56-3.64,1.56s-3.28-.78-4.73-2.33c-1.45-1.55-2.18-3.35-2.18-5.41s.73-3.85,2.19-5.39c1.46-1.54,3.07-2.31,4.82-2.31.67,0,1.28.12,1.83.35.55.24.93.46,1.15.66.22.21.39.41.53.6Zm-5.36,6.13c0,.65.25,1.23.77,1.75.51.52,1.13.78,1.86.78s1.33-.27,1.81-.8c.48-.53.72-1.11.72-1.75s-.23-1.23-.69-1.78c-.46-.55-1.08-.83-1.86-.83s-1.4.28-1.89.83c-.48.55-.72,1.15-.72,1.8Z" style="fill: #0137bb;"/>
    <path d="m147.62,148.68l-1.92-.12v4.07c0,.53.08.91.25,1.15.17.24.48.35.94.35s.81.01,1.06.04c.25.03.51.12.78.28.45.26.68.91.68,1.97,0,1.24-.28,1.99-.83,2.27-.29.14-.56.22-.78.25-.23.03-.56.04-.99.04-2.04,0-3.59-.46-4.66-1.38-1.06-.92-1.59-2.48-1.59-4.69v-4.36c-.37.06-.78.09-1.21.09s-.79-.17-1.08-.5-.43-.9-.43-1.71.05-1.39.15-1.75c.1-.36.24-.62.41-.78.31-.25.71-.38,1.18-.38l.97.12v-3.03c0-.45.01-.79.04-1,.03-.22.12-.45.28-.71.25-.49,1.01-.74,2.27-.74,1.34,0,2.13.36,2.39,1.09.1.31.15.82.15,1.5v2.89c.86-.08,1.52-.12,1.96-.12s.78.01,1,.04c.23.03.49.12.78.28.51.26.77,1.01.77,2.27s-.27,1.99-.8,2.27c-.29.14-.56.22-.78.25-.23.03-.56.04-1.02.04Z" style="fill: #0137bb;"/>
    <path d="m153.87,145.41c1.65-1.53,3.54-2.3,5.66-2.3s4,.76,5.63,2.28c1.63,1.52,2.45,3.46,2.45,5.82,0,1.63-.42,3.08-1.27,4.35-.85,1.27-1.87,2.2-3.08,2.8-1.21.6-2.46.9-3.76.9s-2.55-.32-3.77-.96c-1.22-.64-2.24-1.58-3.08-2.83s-1.25-2.66-1.25-4.23c0-2.36.82-4.3,2.48-5.83Zm3.68,7.94c.63.48,1.27.72,1.92.72s1.3-.25,1.94-.74c.65-.49.97-1.22.97-2.18s-.3-1.68-.91-2.15c-.61-.47-1.27-.71-1.97-.71s-1.37.25-1.97.74c-.61.49-.91,1.21-.91,2.17s.31,1.67.94,2.15Z" style="fill: #0137bb;"/>
    <path d="m180.06,143.64c.37.12.68.32.93.6.25.29.37.74.37,1.37s-.19,1.32-.56,2.06-.91,1.12-1.62,1.12c-.35,0-.69-.08-1.02-.24s-.75-.24-1.28-.24-1.03.19-1.49.56c-.46.37-.69.82-.69,1.35v6.19c0,.45-.02.79-.04,1.02-.03.23-.12.49-.28.78-.29.51-1.06.77-2.3.77-.94,0-1.62-.17-2.03-.5-.31-.27-.49-.7-.53-1.27v-11.2c0-.45.01-.79.04-1.02.03-.23.11-.48.25-.75.27-.53,1.04-.8,2.3-.8,1.18,0,1.92.23,2.21.68.22.31.32.64.32.97.1-.14.24-.3.43-.5.19-.2.58-.46,1.19-.8.61-.33,1.14-.5,1.61-.5s.85.02,1.16.07c.31.05.66.13,1.03.25Z" style="fill: #0137bb;"/>
    <path d="m199.07,143.46c1.96,0,3.6.75,4.91,2.25,1.31,1.5,1.96,3.33,1.96,5.5v5.19c0,.45-.01.79-.04,1.02s-.11.48-.25.75c-.28.53-1.04.8-2.3.8-1.4,0-2.2-.36-2.42-1.09-.12-.33-.18-.83-.18-1.5v-5.19c0-.81-.23-1.43-.69-1.89-.46-.45-1.08-.68-1.86-.68s-1.4.24-1.89.71c-.48.47-.72,1.09-.72,1.86v5.22c0,.45-.01.79-.04,1.02-.03.23-.12.48-.28.75-.26.53-1.01.8-2.27.8s-1.99-.27-2.27-.8c-.14-.29-.22-.55-.25-.78-.03-.23-.04-.56-.04-1.02v-10.43c0-.43.01-.76.04-.99.03-.23.12-.48.28-.75.27-.49,1.03-.74,2.27-.74s1.93.23,2.21.68c.2.33.29.74.29,1.21.08-.14.25-.33.53-.59.27-.25.54-.46.8-.62.67-.45,1.4-.68,2.21-.68Z" style="fill: #0137bb;"/>
    <path d="m223.26,149.37c0,1.21-.3,2.1-.9,2.68-.6.58-1.26.87-1.99.87h-6.98c0,.55.32,1.01.97,1.38.65.37,1.3.56,1.94.56,1.14,0,2.03-.12,2.68-.35l.32-.12c.47-.22.86-.32,1.18-.32.63,0,1.17.44,1.62,1.33.25.53.38.98.38,1.36,0,1.75-2.09,2.62-6.28,2.62-1.45,0-2.75-.25-3.88-.75-1.13-.5-2.01-1.16-2.64-1.99-1.24-1.59-1.86-3.37-1.86-5.33,0-2.48.8-4.45,2.4-5.94,1.6-1.48,3.6-2.22,6-2.22,2.73,0,4.73.96,6.01,2.89.67,1.02,1,2.14,1,3.34Zm-6.22.87c.75,0,1.12-.31,1.12-.94,0-.45-.17-.81-.52-1.09s-.83-.41-1.47-.41-1.27.26-1.9.78c-.63.52-.94,1.08-.94,1.66h3.71Z" style="fill: #0137bb;"/>
    <path d="m244.15,143.58c1.26.55,1.89,1.23,1.89,2.03,0,.33-.16.87-.47,1.61-.31.74-.58,1.38-.8,1.93l-3.24,7.9c-.29.86-.79,1.47-1.47,1.83-.29.14-.67.21-1.12.21s-.89-.17-1.31-.52c-.42-.34-.7-.69-.84-1.05l-.24-.5c-.16-.39-.74-1.92-1.74-4.6-.2.47-.49,1.24-.87,2.31-.38,1.07-.63,1.74-.74,2-.11.27-.18.44-.21.53-.03.09-.11.25-.25.49-.14.24-.29.44-.47.62-.47.47-1.01.71-1.62.71s-1.12-.17-1.53-.52c-.41-.34-.69-.69-.82-1.05l-4.45-10.84c-.2-.59-.29-.97-.29-1.15,0-.79.56-1.4,1.68-1.86.63-.25,1.14-.38,1.53-.38s.71.08.96.25c.25.17.42.33.52.5.1.17.18.34.24.52.33.79,1.03,2.63,2.09,5.54l1.74-4.77c.12-.39.33-.74.65-1.03.57-.57,1.15-.85,1.74-.85s1.09.16,1.52.47c.42.31.71.63.87.94l.24.5c.98,2.75,1.56,4.32,1.74,4.71l1.8-4.89c.47-1.26,1.18-1.89,2.12-1.89.37,0,.77.1,1.18.29Z" style="fill: #0137bb;"/>
    <path d="m256.17,143.49c1.75,0,3.35.78,4.82,2.33s2.2,3.35,2.2,5.41-.73,3.85-2.18,5.39c-1.45,1.54-3.02,2.31-4.69,2.31s-2.86-.47-3.56-1.41c-.16.96-1,1.44-2.53,1.44-1.24,0-1.99-.27-2.27-.8-.14-.29-.22-.55-.25-.78-.03-.23-.04-.56-.04-1.02v-17.59c0-.45.01-.79.04-1.02.03-.23.11-.48.25-.75.27-.53,1.04-.8,2.3-.8s1.98.27,2.24.8c.16.29.25.56.28.78.03.23.04.56.04,1.02v6.13c.79-.96,1.91-1.44,3.36-1.44Zm-2.58,9.52c.48.53,1.09.8,1.81.8s1.35-.27,1.86-.8.77-1.12.77-1.77-.24-1.24-.71-1.78c-.47-.54-1.1-.81-1.89-.81s-1.41.28-1.87.82c-.46.55-.69,1.15-.69,1.78s.24,1.22.72,1.75Z" style="fill: #0137bb;"/>
    <path d="m280.07,149.37c0,1.21-.3,2.1-.9,2.68-.6.58-1.26.87-1.99.87h-6.98c0,.55.32,1.01.97,1.38.65.37,1.3.56,1.94.56,1.14,0,2.03-.12,2.68-.35l.32-.12c.47-.22.86-.32,1.18-.32.63,0,1.17.44,1.62,1.33.25.53.38.98.38,1.36,0,1.75-2.09,2.62-6.28,2.62-1.45,0-2.75-.25-3.88-.75-1.13-.5-2.01-1.16-2.64-1.99-1.24-1.59-1.86-3.37-1.86-5.33,0-2.48.8-4.45,2.4-5.94,1.6-1.48,3.6-2.22,6-2.22,2.73,0,4.73.96,6.01,2.89.67,1.02,1,2.14,1,3.34Zm-6.22.87c.75,0,1.12-.31,1.12-.94,0-.45-.17-.81-.52-1.09s-.83-.41-1.47-.41-1.27.26-1.9.78c-.63.52-.94,1.08-.94,1.66h3.71Z" style="fill: #0137bb;"/>
    <path d="m296.95,149.37c0,1.21-.3,2.1-.9,2.68-.6.58-1.26.87-1.99.87h-6.98c0,.55.32,1.01.97,1.38.65.37,1.3.56,1.94.56,1.14,0,2.03-.12,2.68-.35l.32-.12c.47-.22.86-.32,1.18-.32.63,0,1.17.44,1.62,1.33.25.53.38.98.38,1.36,0,1.75-2.09,2.62-6.28,2.62-1.45,0-2.75-.25-3.88-.75-1.13-.5-2.01-1.16-2.64-1.99-1.24-1.59-1.86-3.37-1.86-5.33,0-2.48.8-4.45,2.4-5.94,1.6-1.48,3.6-2.22,6-2.22,2.73,0,4.73.96,6.01,2.89.67,1.02,1,2.14,1,3.34Zm-6.22.87c.75,0,1.12-.31,1.12-.94,0-.45-.17-.81-.52-1.09s-.83-.41-1.47-.41-1.27.26-1.9.78c-.63.52-.94,1.08-.94,1.66h3.71Z" style="fill: #0137bb;"/>
  </g>
  <g>
    <path d="m1579.83,124.91c0-.45.01-.79.04-1.02.03-.23.12-.49.28-.78.27-.53,1.04-.8,2.3-.8,1.38,0,2.19.36,2.45,1.09.1.33.15.84.15,1.53v16.38c0,.47-.01.81-.04,1.03s-.12.47-.28.77c-.28.53-1.04.8-2.3.8-1.38,0-2.18-.37-2.42-1.12-.12-.31-.18-.81-.18-1.5v-16.38Z" style="fill: #0137bb;"/>
    <path d="m1592.83,138.7c.65,0,1.13.17,1.44.5s.47,1.02.47,2.06-.17,1.73-.5,2.08c-.33.34-.82.52-1.44.52-1.98,0-3.38-.48-4.18-1.43s-1.21-2.54-1.21-4.76v-14.06c0-.45.01-.79.04-1.02.03-.23.11-.49.25-.78.27-.51,1.04-.77,2.3-.77s1.94.28,2.24.83c.16.28.25.53.28.75s.04.56.04,1.02v14.14c0,.61.09.91.27.91Zm7.93-.18c.16.12.56.18,1.21.18s1.19.17,1.62.5c.43.33.65,1.02.65,2.06s-.23,1.73-.69,2.08c-.46.34-1.1.52-1.93.52-4.17,0-6.25-2.06-6.25-6.19l-.03-14.06c0-.45.01-.79.04-1.02.03-.23.12-.49.28-.78.29-.51,1.06-.77,2.3-.77s1.94.28,2.24.83c.22.43.32,1.02.32,1.77v14.14c0,.37.08.62.24.74Z" style="fill: #0137bb;"/>
    <path d="m1612.75,143.86c-1.98,0-3.63-.75-4.94-2.25s-1.96-3.33-1.96-5.5v-5.16c0-.47.01-.81.04-1.03.03-.22.11-.47.25-.77.27-.53,1.04-.8,2.3-.8,1.38,0,2.18.37,2.42,1.12.12.31.18.82.18,1.5v5.16c0,.81.23,1.43.69,1.89.46.45,1.08.68,1.86.68s1.4-.24,1.89-.71c.48-.47.72-1.09.72-1.86v-5.22c0-.45.01-.79.04-1.02.03-.23.12-.49.28-.78.26-.51,1.01-.77,2.27-.77s1.99.27,2.27.8c.14.29.22.56.25.78.03.23.04.56.04,1.02v10.43c0,.43-.01.76-.04.99-.03.23-.12.48-.28.75-.29.51-1.05.77-2.27.77s-1.94-.24-2.21-.71c-.2-.33-.29-.74-.29-1.21-.08.14-.26.33-.53.59-.28.26-.54.47-.8.65-.67.43-1.39.65-2.18.65Z" style="fill: #0137bb;"/>
    <path d="m1623.83,142.53c-.37-.24-.56-.61-.56-1.12s.37-1.29,1.12-2.33c.22-.33.56-.5,1.05-.5s1.13.24,1.96.72c.83.48,1.57.72,2.24.72,1.2,0,1.8-.24,1.8-.71,0-.37-.66-.65-1.97-.83-1.24-.18-2.47-.64-3.68-1.38-.57-.35-1.04-.91-1.41-1.66-.37-.76-.56-1.65-.56-2.7,0-3.1,2.13-4.66,6.39-4.66,1.39,0,2.83.33,4.3,1,.69.31,1.03.71,1.03,1.18s-.22,1.05-.65,1.74c-.43.69-.87,1.03-1.33,1.03-.24,0-.67-.15-1.31-.44-.64-.29-1.33-.44-2.08-.44-1.16,0-1.74.22-1.74.65,0,.59.67.97,2,1.15,1.3.14,2.55.51,3.77,1.12.57.28,1.05.75,1.43,1.43.38.68.57,1.53.57,2.55s-.19,1.89-.57,2.61c-.38.72-.92,1.25-1.61,1.61-1.26.61-2.83.91-4.73.91s-3.72-.55-5.47-1.65Z" style="fill: #0137bb;"/>
    <path d="m1646.66,133.6l-1.92-.12v4.07c0,.53.08.91.25,1.15s.48.35.94.35.81.01,1.06.04c.25.03.5.12.78.28.45.26.68.91.68,1.97,0,1.24-.28,1.99-.83,2.27-.29.14-.55.22-.78.25-.23.03-.56.04-.99.04-2.04,0-3.59-.46-4.66-1.38s-1.59-2.48-1.59-4.69v-4.36c-.37.06-.78.09-1.21.09s-.79-.17-1.08-.5c-.29-.33-.43-.9-.43-1.71s.05-1.39.15-1.75c.1-.36.24-.62.41-.78.31-.25.71-.38,1.18-.38l.97.12v-3.03c0-.45.02-.79.04-1,.03-.22.12-.45.28-.71.26-.49,1.01-.74,2.27-.74,1.33,0,2.13.36,2.39,1.09.1.31.15.82.15,1.5v2.89c.86-.08,1.52-.12,1.96-.12s.78.01,1,.04c.23.03.49.12.78.28.51.26.77,1.01.77,2.27s-.27,1.99-.8,2.27c-.29.14-.55.22-.78.25-.23.03-.57.04-1.02.04Z" style="fill: #0137bb;"/>
    <path d="m1661.42,128.57c.37.12.68.32.93.6.25.29.37.74.37,1.37s-.19,1.32-.56,2.06c-.37.75-.91,1.12-1.62,1.12-.35,0-.69-.08-1.02-.24-.32-.16-.75-.24-1.28-.24s-1.03.19-1.49.56-.69.82-.69,1.35v6.19c0,.45-.01.79-.04,1.02-.03.23-.12.49-.28.78-.29.51-1.06.77-2.3.77-.94,0-1.62-.17-2.03-.5-.31-.27-.49-.7-.53-1.27v-11.2c0-.45.01-.79.04-1.02.03-.23.11-.48.25-.75.27-.53,1.04-.8,2.3-.8,1.18,0,1.92.23,2.21.68.22.31.32.64.32.97.1-.14.24-.3.43-.5s.58-.46,1.19-.8c.61-.33,1.14-.5,1.61-.5s.85.02,1.16.07c.31.05.66.13,1.03.25Z" style="fill: #0137bb;"/>
    <path d="m1673.53,130.04c.12-1.1.89-1.65,2.33-1.65.77,0,1.33.06,1.71.18.37.12.63.32.78.62.15.29.24.56.27.78.03.23.04.56.04,1.02v10.31c0,.45-.01.79-.04,1.02-.03.23-.11.49-.25.78-.28.51-.95.77-2.02.77s-1.79-.13-2.15-.4c-.36-.27-.58-.65-.63-1.16-.73,1.04-1.94,1.56-3.64,1.56s-3.28-.78-4.73-2.33c-1.45-1.55-2.18-3.35-2.18-5.41s.73-3.85,2.2-5.39c1.46-1.54,3.07-2.31,4.82-2.31.67,0,1.28.12,1.83.35.55.24.93.46,1.15.66.22.21.39.41.53.6Zm-5.36,6.13c0,.65.25,1.23.77,1.75s1.13.78,1.86.78,1.33-.27,1.81-.8c.48-.53.72-1.11.72-1.75s-.23-1.23-.69-1.78c-.46-.55-1.08-.83-1.86-.83s-1.41.28-1.89.83c-.48.55-.72,1.15-.72,1.8Z" style="fill: #0137bb;"/>
    <path d="m1690.03,133.6l-1.92-.12v4.07c0,.53.08.91.25,1.15s.48.35.94.35.81.01,1.06.04c.25.03.5.12.78.28.45.26.68.91.68,1.97,0,1.24-.28,1.99-.83,2.27-.29.14-.55.22-.78.25-.23.03-.56.04-.99.04-2.04,0-3.59-.46-4.66-1.38s-1.59-2.48-1.59-4.69v-4.36c-.37.06-.78.09-1.21.09s-.79-.17-1.08-.5c-.29-.33-.43-.9-.43-1.71s.05-1.39.15-1.75c.1-.36.24-.62.41-.78.31-.25.71-.38,1.18-.38l.97.12v-3.03c0-.45.02-.79.04-1,.03-.22.12-.45.28-.71.26-.49,1.01-.74,2.27-.74,1.33,0,2.13.36,2.39,1.09.1.31.15.82.15,1.5v2.89c.86-.08,1.52-.12,1.96-.12s.78.01,1,.04c.23.03.49.12.78.28.51.26.77,1.01.77,2.27s-.27,1.99-.8,2.27c-.29.14-.55.22-.78.25-.23.03-.57.04-1.02.04Z" style="fill: #0137bb;"/>
    <path d="m1696.28,130.33c1.65-1.53,3.54-2.3,5.66-2.3s4,.76,5.63,2.28c1.63,1.52,2.45,3.46,2.45,5.82,0,1.63-.42,3.08-1.27,4.35-.84,1.27-1.87,2.2-3.08,2.8s-2.46.9-3.76.9-2.55-.32-3.77-.96c-1.22-.64-2.25-1.58-3.08-2.83-.84-1.25-1.25-2.66-1.25-4.23,0-2.36.83-4.3,2.48-5.83Zm3.68,7.94c.63.48,1.27.72,1.92.72s1.3-.25,1.94-.74c.65-.49.97-1.22.97-2.18s-.3-1.68-.91-2.15c-.61-.47-1.27-.71-1.97-.71s-1.37.25-1.97.74c-.61.49-.91,1.21-.91,2.17s.31,1.67.94,2.15Z" style="fill: #0137bb;"/>
    <path d="m1722.48,128.57c.37.12.68.32.93.6.25.29.37.74.37,1.37s-.19,1.32-.56,2.06c-.37.75-.91,1.12-1.62,1.12-.35,0-.69-.08-1.02-.24-.32-.16-.75-.24-1.28-.24s-1.03.19-1.49.56-.69.82-.69,1.35v6.19c0,.45-.01.79-.04,1.02-.03.23-.12.49-.28.78-.29.51-1.06.77-2.3.77-.94,0-1.62-.17-2.03-.5-.31-.27-.49-.7-.53-1.27v-11.2c0-.45.01-.79.04-1.02.03-.23.11-.48.25-.75.27-.53,1.04-.8,2.3-.8,1.18,0,1.92.23,2.21.68.22.31.32.64.32.97.1-.14.24-.3.43-.5s.58-.46,1.19-.8c.61-.33,1.14-.5,1.61-.5s.85.02,1.16.07c.31.05.66.13,1.03.25Z" style="fill: #0137bb;"/>
    <path d="m1737.91,130.45c.92-1.39,2.03-2.09,3.33-2.09,2,0,3.5.85,4.48,2.56.22-.29.48-.6.78-.93s.79-.68,1.46-1.06c.67-.38,1.36-.57,2.06-.57,1.57,0,2.89.6,3.95,1.81,1.06,1.21,1.59,3.21,1.59,6v5.16c0,.45-.01.79-.04,1.02s-.12.49-.28.78c-.26.53-1.01.8-2.27.8s-1.99-.27-2.27-.83c-.14-.29-.22-.55-.25-.78-.03-.23-.04-.56-.04-1.02v-5.16c0-1.71-.61-2.56-1.83-2.56-.69,0-1.15.23-1.4.68-.25.45-.37,1.09-.37,1.92v5.16c0,.47-.01.81-.04,1.03-.03.22-.12.47-.28.77-.28.53-1.04.8-2.3.8s-1.99-.27-2.27-.83c-.14-.29-.22-.55-.25-.78-.03-.23-.04-.56-.04-1.02v-5.16c0-1.71-.61-2.56-1.83-2.56s-1.77.85-1.77,2.56v5.22c0,.45-.01.79-.04,1.02-.03.23-.12.49-.28.78-.29.51-1.06.77-2.3.77s-1.99-.27-2.27-.8c-.14-.29-.22-.55-.25-.77s-.04-.56-.04-1.03v-10.37c0-.45.01-.79.04-1.02.03-.23.12-.48.28-.75.29-.53.99-.8,2.09-.8s1.82.18,2.15.53c.33.35.5.86.5,1.53Z" style="fill: #0137bb;"/>
    <path d="m1768,130.04c.12-1.1.89-1.65,2.33-1.65.77,0,1.33.06,1.71.18.37.12.63.32.78.62.15.29.24.56.27.78.03.23.04.56.04,1.02v10.31c0,.45-.01.79-.04,1.02-.03.23-.11.49-.25.78-.28.51-.95.77-2.02.77s-1.79-.13-2.15-.4c-.36-.27-.58-.65-.63-1.16-.73,1.04-1.94,1.56-3.64,1.56s-3.28-.78-4.73-2.33c-1.45-1.55-2.18-3.35-2.18-5.41s.73-3.85,2.2-5.39c1.46-1.54,3.07-2.31,4.82-2.31.67,0,1.28.12,1.83.35.55.24.93.46,1.15.66.22.21.39.41.53.6Zm-5.36,6.13c0,.65.25,1.23.77,1.75s1.13.78,1.86.78,1.33-.27,1.81-.8c.48-.53.72-1.11.72-1.75s-.23-1.23-.69-1.78c-.46-.55-1.08-.83-1.86-.83s-1.41.28-1.89.83c-.48.55-.72,1.15-.72,1.8Z" style="fill: #0137bb;"/>
    <path d="m1790.45,134.3c0,1.21-.3,2.1-.9,2.68-.6.58-1.26.87-1.99.87h-6.98c0,.55.32,1.01.97,1.38.65.37,1.3.56,1.95.56,1.14,0,2.03-.12,2.68-.35l.32-.12c.47-.22.86-.32,1.18-.32.63,0,1.17.44,1.62,1.33.25.53.38.98.38,1.36,0,1.75-2.09,2.62-6.28,2.62-1.45,0-2.75-.25-3.87-.75-1.13-.5-2.01-1.16-2.64-1.99-1.24-1.59-1.86-3.37-1.86-5.33,0-2.48.8-4.45,2.4-5.94,1.6-1.48,3.6-2.22,6-2.22,2.73,0,4.73.96,6.01,2.89.67,1.02,1,2.14,1,3.34Zm-6.22.87c.75,0,1.12-.31,1.12-.94,0-.45-.17-.81-.52-1.09-.34-.27-.83-.41-1.47-.41s-1.27.26-1.9.78c-.63.52-.94,1.08-.94,1.66h3.71Z" style="fill: #0137bb;"/>
    <path d="m1792.48,142.53c-.37-.24-.56-.61-.56-1.12s.37-1.29,1.12-2.33c.22-.33.56-.5,1.05-.5s1.13.24,1.96.72c.83.48,1.57.72,2.24.72,1.2,0,1.8-.24,1.8-.71,0-.37-.66-.65-1.97-.83-1.24-.18-2.47-.64-3.68-1.38-.57-.35-1.04-.91-1.41-1.66-.37-.76-.56-1.65-.56-2.7,0-3.1,2.13-4.66,6.39-4.66,1.39,0,2.83.33,4.3,1,.69.31,1.03.71,1.03,1.18s-.22,1.05-.65,1.74c-.43.69-.87,1.03-1.33,1.03-.24,0-.67-.15-1.31-.44-.64-.29-1.33-.44-2.08-.44-1.16,0-1.74.22-1.74.65,0,.59.67.97,2,1.15,1.3.14,2.55.51,3.77,1.12.57.28,1.05.75,1.43,1.43.38.68.57,1.53.57,2.55s-.19,1.89-.57,2.61c-.38.72-.92,1.25-1.61,1.61-1.26.61-2.83.91-4.73.91s-3.72-.55-5.47-1.65Z" style="fill: #0137bb;"/>
    <path d="m1815.32,133.6l-1.92-.12v4.07c0,.53.08.91.25,1.15s.48.35.94.35.81.01,1.06.04c.25.03.5.12.78.28.45.26.68.91.68,1.97,0,1.24-.28,1.99-.83,2.27-.29.14-.55.22-.78.25-.23.03-.56.04-.99.04-2.04,0-3.59-.46-4.66-1.38s-1.59-2.48-1.59-4.69v-4.36c-.37.06-.78.09-1.21.09s-.79-.17-1.08-.5c-.29-.33-.43-.9-.43-1.71s.05-1.39.15-1.75c.1-.36.24-.62.41-.78.31-.25.71-.38,1.18-.38l.97.12v-3.03c0-.45.02-.79.04-1,.03-.22.12-.45.28-.71.26-.49,1.01-.74,2.27-.74,1.33,0,2.13.36,2.39,1.09.1.31.15.82.15,1.5v2.89c.86-.08,1.52-.12,1.96-.12s.78.01,1,.04c.23.03.49.12.78.28.51.26.77,1.01.77,2.27s-.27,1.99-.8,2.27c-.29.14-.55.22-.78.25-.23.03-.57.04-1.02.04Z" style="fill: #0137bb;"/>
    <path d="m1830.08,128.57c.37.12.68.32.93.6.25.29.37.74.37,1.37s-.19,1.32-.56,2.06c-.37.75-.91,1.12-1.62,1.12-.35,0-.69-.08-1.02-.24-.32-.16-.75-.24-1.28-.24s-1.03.19-1.49.56-.69.82-.69,1.35v6.19c0,.45-.01.79-.04,1.02-.03.23-.12.49-.28.78-.29.51-1.06.77-2.3.77-.94,0-1.62-.17-2.03-.5-.31-.27-.49-.7-.53-1.27v-11.2c0-.45.01-.79.04-1.02.03-.23.11-.48.25-.75.27-.53,1.04-.8,2.3-.8,1.18,0,1.92.23,2.21.68.22.31.32.64.32.97.1-.14.24-.3.43-.5s.58-.46,1.19-.8c.61-.33,1.14-.5,1.61-.5s.85.02,1.16.07c.31.05.66.13,1.03.25Z" style="fill: #0137bb;"/>
    <path d="m1834.15,130.33c1.65-1.53,3.54-2.3,5.66-2.3s4,.76,5.63,2.28c1.63,1.52,2.45,3.46,2.45,5.82,0,1.63-.42,3.08-1.27,4.35-.84,1.27-1.87,2.2-3.08,2.8s-2.46.9-3.76.9-2.55-.32-3.77-.96c-1.22-.64-2.25-1.58-3.08-2.83-.84-1.25-1.25-2.66-1.25-4.23,0-2.36.83-4.3,2.48-5.83Zm3.68,7.94c.63.48,1.27.72,1.92.72s1.3-.25,1.94-.74c.65-.49.97-1.22.97-2.18s-.3-1.68-.91-2.15c-.61-.47-1.27-.71-1.97-.71s-1.37.25-1.97.74c-.61.49-.91,1.21-.91,2.17s.31,1.67.94,2.15Z" style="fill: #0137bb;"/>
  </g>
  <g>
    <path d="m17.12,262.33c.51,1.04.77,2.2.77,3.48s-.26,2.43-.77,3.46c-.51,1.03-1.17,1.85-1.97,2.46-1.63,1.26-3.32,1.88-5.07,1.88h-3.68v3.33c0,.45-.01.79-.04,1.02-.03.23-.12.49-.28.78-.28.53-1.04.8-2.3.8-1.38,0-2.18-.36-2.42-1.09-.12-.33-.18-.84-.18-1.53v-16.35c0-.45.01-.79.04-1.02.03-.23.12-.49.28-.78.27-.53,1.04-.8,2.3-.8h6.31c1.73,0,3.41.63,5.04,1.89.81.61,1.46,1.43,1.97,2.47Zm-5.27,5.42c.57-.43.85-1.08.85-1.94s-.29-1.52-.85-1.96c-.57-.44-1.16-.66-1.77-.66h-3.68v5.21h3.71c.59,0,1.17-.22,1.74-.65Z" style="fill: #0137bb;"/>
    <path d="m28.4,264.1c1.96,0,3.6.75,4.91,2.24,1.31,1.49,1.96,3.32,1.96,5.48v5.19c0,.45-.01.79-.04,1.02-.03.23-.12.49-.28.78-.26.51-1.01.77-2.27.77s-1.94-.26-2.24-.77c-.16-.29-.25-.56-.28-.8-.03-.24-.04-.59-.04-1.06v-5.16c0-.8-.23-1.43-.68-1.89-.45-.45-1.03-.68-1.72-.68s-1.31.21-1.84.63-.83.9-.91,1.43v5.72c0,.45-.01.79-.04,1.02-.03.23-.12.49-.28.78-.26.51-1.01.77-2.27.77s-1.99-.27-2.27-.8c-.14-.29-.22-.55-.25-.77-.03-.22-.04-.56-.04-1.03v-17.62c0-.45.01-.79.04-1.02.03-.23.11-.48.25-.75.27-.53,1.04-.8,2.3-.8s1.98.27,2.24.8c.16.29.25.56.28.78.03.23.04.56.04,1.02v6.51c.98-1.2,2.13-1.8,3.45-1.8Z" style="fill: #0137bb;"/>
    <path d="m39.66,265.99c1.65-1.53,3.54-2.3,5.66-2.3s4,.76,5.63,2.28c1.63,1.52,2.45,3.46,2.45,5.82,0,1.63-.42,3.08-1.27,4.35-.85,1.27-1.87,2.2-3.08,2.8-1.21.6-2.46.9-3.76.9s-2.55-.32-3.77-.96c-1.22-.64-2.24-1.58-3.08-2.83s-1.25-2.66-1.25-4.23c0-2.36.82-4.3,2.48-5.83Zm3.68,7.94c.63.48,1.27.72,1.92.72s1.3-.24,1.94-.74c.65-.49.97-1.22.97-2.18s-.3-1.68-.91-2.15c-.61-.47-1.27-.71-1.97-.71s-1.37.25-1.97.74-.91,1.21-.91,2.17.31,1.67.94,2.15Z" style="fill: #0137bb;"/>
    <path d="m63.88,269.26l-1.92-.12v4.07c0,.53.08.91.25,1.15.17.24.48.35.94.35s.81.01,1.06.04.51.12.78.28c.45.25.68.91.68,1.97,0,1.24-.28,1.99-.83,2.27-.29.14-.56.22-.78.25-.23.03-.56.04-.99.04-2.04,0-3.59-.46-4.66-1.38-1.06-.92-1.59-2.49-1.59-4.69v-4.36c-.37.06-.78.09-1.21.09s-.79-.17-1.08-.5-.43-.9-.43-1.71.05-1.39.15-1.75c.1-.36.24-.62.41-.78.31-.25.71-.38,1.18-.38l.97.12v-3.04c0-.45.01-.79.04-1,.03-.22.12-.45.28-.71.25-.49,1.01-.74,2.27-.74,1.34,0,2.13.36,2.39,1.09.1.31.15.82.15,1.5v2.89c.86-.08,1.52-.12,1.96-.12s.78.01,1,.04c.23.03.49.12.78.28.51.25.77,1.01.77,2.27s-.27,1.99-.8,2.27c-.29.14-.56.22-.78.25-.23.03-.56.04-1.02.04Z" style="fill: #0137bb;"/>
    <path d="m70.13,265.99c1.65-1.53,3.54-2.3,5.66-2.3s4,.76,5.63,2.28c1.63,1.52,2.45,3.46,2.45,5.82,0,1.63-.42,3.08-1.27,4.35-.85,1.27-1.87,2.2-3.08,2.8-1.21.6-2.46.9-3.76.9s-2.55-.32-3.77-.96c-1.22-.64-2.24-1.58-3.08-2.83s-1.25-2.66-1.25-4.23c0-2.36.82-4.3,2.48-5.83Zm3.68,7.94c.63.48,1.27.72,1.92.72s1.3-.24,1.94-.74c.65-.49.97-1.22.97-2.18s-.3-1.68-.91-2.15c-.61-.47-1.27-.71-1.97-.71s-1.37.25-1.97.74-.91,1.21-.91,2.17.31,1.67.94,2.15Z" style="fill: #0137bb;"/>
    <path d="m85.89,278.19c-.37-.24-.56-.61-.56-1.12s.37-1.29,1.12-2.33c.22-.33.56-.5,1.05-.5s1.13.24,1.96.72c.83.48,1.57.72,2.24.72,1.2,0,1.8-.23,1.8-.71,0-.37-.66-.65-1.97-.82-1.24-.18-2.47-.64-3.68-1.38-.57-.35-1.04-.91-1.41-1.67s-.56-1.66-.56-2.7c0-3.1,2.13-4.66,6.39-4.66,1.39,0,2.83.33,4.3,1,.69.31,1.03.71,1.03,1.18s-.22,1.05-.65,1.74c-.43.69-.87,1.03-1.33,1.03-.24,0-.67-.15-1.31-.44-.64-.29-1.33-.44-2.08-.44-1.16,0-1.74.22-1.74.65,0,.59.67.97,2,1.15,1.3.14,2.55.51,3.77,1.12.57.28,1.05.75,1.43,1.43.38.68.57,1.53.57,2.55s-.19,1.89-.57,2.61c-.38.72-.92,1.25-1.61,1.61-1.26.61-2.83.91-4.73.91s-3.72-.55-5.47-1.65Z" style="fill: #0137bb;"/>
    <path d="m108.79,264.1c1.96,0,3.6.75,4.91,2.24,1.31,1.49,1.96,3.32,1.96,5.48v5.19c0,.45-.01.79-.04,1.02-.03.23-.12.49-.28.78-.26.51-1.01.77-2.27.77s-1.94-.26-2.24-.77c-.16-.29-.25-.56-.28-.8-.03-.24-.04-.59-.04-1.06v-5.16c0-.8-.23-1.43-.68-1.89-.45-.45-1.03-.68-1.72-.68s-1.31.21-1.84.63-.83.9-.91,1.43v5.72c0,.45-.01.79-.04,1.02-.03.23-.12.49-.28.78-.26.51-1.01.77-2.27.77s-1.99-.27-2.27-.8c-.14-.29-.22-.55-.25-.77-.03-.22-.04-.56-.04-1.03v-17.62c0-.45.01-.79.04-1.02.03-.23.11-.48.25-.75.27-.53,1.04-.8,2.3-.8s1.98.27,2.24.8c.16.29.25.56.28.78.03.23.04.56.04,1.02v6.51c.98-1.2,2.13-1.8,3.45-1.8Z" style="fill: #0137bb;"/>
    <path d="m120.04,265.99c1.65-1.53,3.54-2.3,5.66-2.3s4,.76,5.63,2.28c1.63,1.52,2.45,3.46,2.45,5.82,0,1.63-.42,3.08-1.27,4.35-.85,1.27-1.87,2.2-3.08,2.8-1.21.6-2.46.9-3.76.9s-2.55-.32-3.77-.96c-1.22-.64-2.24-1.58-3.08-2.83s-1.25-2.66-1.25-4.23c0-2.36.82-4.3,2.48-5.83Zm3.68,7.94c.63.48,1.27.72,1.92.72s1.3-.24,1.94-.74c.65-.49.97-1.22.97-2.18s-.3-1.68-.91-2.15c-.61-.47-1.27-.71-1.97-.71s-1.37.25-1.97.74-.91,1.21-.91,2.17.31,1.67.94,2.15Z" style="fill: #0137bb;"/>
    <path d="m135.69,283.78v-17.21c0-.45.01-.79.04-1,.03-.22.11-.46.25-.74.27-.53.93-.8,1.97-.8s1.74.13,2.11.4c.36.27.57.65.63,1.16.75-1.02,1.92-1.53,3.52-1.53s3.12.76,4.55,2.27c1.43,1.51,2.15,3.27,2.15,5.27s-.71,3.76-2.14,5.27-2.94,2.27-4.55,2.27-2.78-.45-3.51-1.36v5.95c0,.45-.01.79-.04,1-.03.22-.12.47-.27.75-.15.28-.4.49-.75.6-.35.12-.83.18-1.44.18s-1.1-.06-1.46-.18c-.36-.12-.62-.31-.77-.59-.15-.28-.24-.52-.27-.74-.03-.22-.04-.55-.04-1Zm5.83-13.88c-.45.53-.68,1.11-.68,1.74s.23,1.2.69,1.72c.46.52,1.05.78,1.77.78s1.33-.26,1.83-.77c.5-.51.75-1.09.75-1.74s-.24-1.23-.71-1.75-1.09-.78-1.84-.78-1.36.27-1.81.8Z" style="fill: #0137bb;"/>
    <path d="m168.81,264.07c1.75,0,3.35.78,4.82,2.33,1.46,1.55,2.2,3.36,2.2,5.41s-.73,3.85-2.18,5.39c-1.45,1.54-3.02,2.31-4.69,2.31s-2.86-.47-3.56-1.41c-.16.96-1,1.44-2.53,1.44-1.24,0-1.99-.27-2.27-.8-.14-.29-.22-.55-.25-.78-.03-.23-.04-.56-.04-1.02v-17.59c0-.45.01-.79.04-1.02.03-.23.11-.48.25-.75.27-.53,1.04-.8,2.3-.8s1.98.27,2.24.8c.16.29.25.56.28.78.03.23.04.56.04,1.02v6.13c.79-.96,1.91-1.44,3.36-1.44Zm-2.58,9.52c.48.53,1.09.8,1.81.8s1.35-.26,1.86-.8c.51-.53.77-1.12.77-1.77s-.24-1.24-.71-1.78c-.47-.54-1.1-.81-1.89-.81s-1.41.28-1.87.83c-.46.55-.69,1.14-.69,1.78s.24,1.22.72,1.75Z" style="fill: #0137bb;"/>
    <path d="m192.7,269.95c0,1.21-.3,2.1-.9,2.68-.6.58-1.26.87-1.99.87h-6.98c0,.55.32,1.01.97,1.38s1.3.56,1.94.56c1.14,0,2.03-.12,2.68-.35l.32-.12c.47-.21.86-.32,1.18-.32.63,0,1.17.44,1.62,1.33.25.53.38.98.38,1.36,0,1.75-2.09,2.62-6.28,2.62-1.45,0-2.75-.25-3.88-.75-1.13-.5-2.01-1.16-2.64-1.99-1.24-1.59-1.86-3.37-1.86-5.33,0-2.47.8-4.45,2.4-5.94,1.6-1.48,3.6-2.22,6-2.22,2.73,0,4.73.96,6.01,2.89.67,1.02,1,2.14,1,3.34Zm-6.22.87c.75,0,1.12-.31,1.12-.94,0-.45-.17-.81-.52-1.09-.34-.27-.83-.41-1.47-.41s-1.27.26-1.9.78c-.63.52-.94,1.08-.94,1.66h3.71Z" style="fill: #0137bb;"/>
    <path d="m204.46,277.63c-.75.98-1.94,1.47-3.57,1.47s-3.16-.75-4.58-2.25c-1.42-1.5-2.14-3.26-2.14-5.26s.72-3.76,2.15-5.27c1.43-1.51,3.01-2.27,4.71-2.27.67,0,1.28.12,1.83.37s.93.47,1.13.68c.21.21.37.4.49.57.06-.55.26-.97.6-1.25.34-.29.9-.43,1.66-.43s1.33.06,1.68.18.6.32.75.6c.15.29.24.54.27.75.03.22.04.55.04,1v12.2c0,2.26-.79,4.08-2.36,5.47-1.57,1.38-3.34,2.08-5.3,2.08-1.49,0-2.92-.36-4.27-1.09s-2.03-1.38-2.03-1.97c0-.77.29-1.44.88-2.03.37-.41.66-.7.87-.85.21-.16.45-.24.72-.24s.56.12.85.35c.94.73,1.96,1.09,3.06,1.09.75,0,1.36-.29,1.83-.88.47-.59.71-1.3.71-2.12v-.88Zm-5.24-6.03c0,.64.25,1.21.75,1.72.5.51,1.11.77,1.83.77s1.31-.26,1.78-.78c.47-.52.71-1.09.71-1.71s-.23-1.2-.68-1.74c-.45-.54-1.06-.81-1.83-.81s-1.39.27-1.86.79c-.47.53-.71,1.12-.71,1.75Z" style="fill: #0137bb;"/>
    <path d="m226.06,264.22c1.16.51,1.74,1.13,1.74,1.86,0,.35-.08.69-.24,1-.16.31-.24.48-.24.5l-7.72,17.27c-.16.37-.29.66-.4.86-.11.2-.28.38-.52.56-.24.18-.53.27-.88.27s-.87-.15-1.56-.44c-1.16-.51-1.74-1.12-1.74-1.83,0-.47.94-2.72,2.83-6.75l-5.86-9.87c-.39-.65-.59-1.13-.59-1.44,0-.63.53-1.26,1.59-1.89.67-.39,1.19-.59,1.56-.59s.68.08.91.24.41.32.52.49c.11.17.65,1.08,1.62,2.74.97,1.66,1.9,3.21,2.78,4.64.1-.31.63-1.53,1.59-3.64s1.48-3.24,1.55-3.37c.07-.14.18-.3.34-.5.26-.33.61-.5,1.08-.5s1.01.14,1.64.41Z" style="fill: #0137bb;"/>
    <path d="m237.75,264.04c1.96,0,3.6.75,4.91,2.25,1.31,1.5,1.96,3.34,1.96,5.5v5.19c0,.45-.01.79-.04,1.02-.03.22-.11.48-.25.75-.28.53-1.04.8-2.3.8-1.4,0-2.2-.36-2.42-1.09-.12-.33-.18-.83-.18-1.5v-5.19c0-.81-.23-1.43-.69-1.89-.46-.45-1.08-.68-1.86-.68s-1.4.24-1.89.71c-.48.47-.72,1.09-.72,1.86v5.21c0,.45-.01.79-.04,1.02-.03.22-.12.48-.28.75-.26.53-1.01.8-2.27.8s-1.99-.27-2.27-.8c-.14-.29-.22-.55-.25-.78-.03-.23-.04-.56-.04-1.02v-10.43c0-.43.01-.76.04-.99.03-.23.12-.48.28-.75.27-.49,1.03-.74,2.27-.74s1.93.23,2.21.68c.2.33.29.74.29,1.21.08-.14.25-.33.53-.59.27-.25.54-.46.8-.62.67-.45,1.4-.68,2.21-.68Z" style="fill: #0137bb;"/>
    <path d="m257.39,257.57c.15-.28.41-.49.78-.6.37-.12.87-.18,1.49-.18s1.11.06,1.49.18c.37.12.63.32.78.62.15.29.24.56.27.78.03.23.04.56.04,1.02v17.59c0,.45-.02.79-.04,1.02-.03.22-.12.48-.28.75-.29.53-1.12.8-2.49.8s-2.13-.48-2.28-1.44c-.83.94-1.97,1.41-3.45,1.41-1.77,0-3.38-.77-4.83-2.31-1.45-1.54-2.18-3.34-2.18-5.39s.73-3.85,2.2-5.41c1.46-1.55,3.07-2.33,4.82-2.33,1.45,0,2.58.49,3.39,1.47v-6.19c0-.45.01-.79.04-1.02.03-.23.12-.48.27-.77Zm-4.79,16.01c.51.53,1.13.8,1.86.8s1.33-.26,1.81-.8c.48-.53.72-1.11.72-1.75s-.23-1.23-.69-1.78c-.46-.55-1.09-.83-1.87-.83s-1.41.27-1.89.81c-.47.54-.71,1.13-.71,1.78s.25,1.24.77,1.77Z" style="fill: #0137bb;"/>
    <path d="m279.56,269.95c0,1.21-.3,2.1-.9,2.68-.6.58-1.26.87-1.99.87h-6.98c0,.55.32,1.01.97,1.38s1.3.56,1.94.56c1.14,0,2.03-.12,2.68-.35l.32-.12c.47-.21.86-.32,1.18-.32.63,0,1.17.44,1.62,1.33.25.53.38.98.38,1.36,0,1.75-2.09,2.62-6.28,2.62-1.45,0-2.75-.25-3.88-.75-1.13-.5-2.01-1.16-2.64-1.99-1.24-1.59-1.86-3.37-1.86-5.33,0-2.47.8-4.45,2.4-5.94,1.6-1.48,3.6-2.22,6-2.22,2.73,0,4.73.96,6.01,2.89.67,1.02,1,2.14,1,3.34Zm-6.22.87c.75,0,1.12-.31,1.12-.94,0-.45-.17-.81-.52-1.09-.34-.27-.83-.41-1.47-.41s-1.27.26-1.9.78c-.63.52-.94,1.08-.94,1.66h3.71Z" style="fill: #0137bb;"/>
    <path d="m292.03,264.22c.37.12.68.32.93.6s.37.74.37,1.37-.19,1.32-.56,2.06-.91,1.12-1.62,1.12c-.35,0-.69-.08-1.02-.24-.32-.16-.75-.24-1.28-.24s-1.03.19-1.49.56c-.46.37-.69.83-.69,1.36v6.19c0,.45-.02.79-.04,1.02-.03.23-.12.49-.28.78-.29.51-1.06.77-2.3.77-.94,0-1.62-.17-2.03-.5-.31-.27-.49-.7-.53-1.27v-11.2c0-.45.01-.79.04-1.02.03-.22.11-.48.25-.75.27-.53,1.04-.8,2.3-.8,1.18,0,1.92.23,2.21.68.22.31.32.64.32.97.1-.14.24-.3.43-.5.19-.2.58-.46,1.19-.8.61-.33,1.14-.5,1.61-.5s.85.02,1.16.07c.31.05.66.13,1.03.25Z" style="fill: #0137bb;"/>
  </g>
  <g>
    <path d="m1600.03,249.77c.51,1.04.77,2.2.77,3.48s-.26,2.43-.77,3.46-1.17,1.85-1.97,2.46c-1.63,1.26-3.32,1.89-5.07,1.89h-3.68v3.33c0,.45-.01.79-.04,1.02s-.12.49-.28.78c-.28.53-1.04.8-2.3.8-1.38,0-2.18-.36-2.42-1.09-.12-.33-.18-.84-.18-1.53v-16.35c0-.45.01-.79.04-1.02.03-.23.12-.49.28-.78.27-.53,1.04-.8,2.3-.8h6.31c1.73,0,3.41.63,5.04,1.89.8.61,1.46,1.43,1.97,2.48Zm-5.27,5.42c.57-.43.85-1.08.85-1.94s-.28-1.52-.85-1.96c-.57-.44-1.16-.66-1.77-.66h-3.68v5.22h3.71c.59,0,1.17-.22,1.74-.65Z" style="fill: #0137bb;"/>
    <path d="m1611.32,251.54c1.96,0,3.6.75,4.91,2.24,1.31,1.49,1.96,3.32,1.96,5.48v5.19c0,.45-.02.79-.04,1.02-.03.23-.12.49-.28.78-.26.51-1.01.77-2.27.77s-1.94-.26-2.24-.77c-.16-.29-.25-.56-.28-.8-.03-.24-.04-.59-.04-1.06v-5.16c0-.81-.23-1.43-.68-1.89-.45-.45-1.03-.68-1.72-.68s-1.31.21-1.84.63c-.53.42-.83.9-.91,1.43v5.72c0,.45-.01.79-.04,1.02-.03.23-.12.49-.28.78-.25.51-1.01.77-2.27.77s-1.99-.27-2.27-.8c-.14-.29-.22-.55-.25-.77-.03-.22-.04-.56-.04-1.03v-17.62c0-.45.01-.79.04-1.02.03-.23.11-.48.25-.75.27-.53,1.04-.8,2.3-.8s1.98.27,2.24.8c.16.29.25.56.28.78.03.23.04.56.04,1.02v6.51c.98-1.2,2.13-1.8,3.45-1.8Z" style="fill: #0137bb;"/>
    <path d="m1622.57,253.43c1.65-1.53,3.54-2.3,5.66-2.3s4,.76,5.63,2.28c1.63,1.52,2.45,3.46,2.45,5.82,0,1.63-.42,3.08-1.27,4.35-.84,1.27-1.87,2.2-3.08,2.8s-2.46.9-3.76.9-2.55-.32-3.77-.96c-1.22-.64-2.25-1.58-3.08-2.83-.84-1.25-1.25-2.66-1.25-4.23,0-2.36.83-4.3,2.48-5.83Zm3.68,7.94c.63.48,1.27.72,1.92.72s1.3-.24,1.94-.74c.65-.49.97-1.22.97-2.18s-.3-1.68-.91-2.15c-.61-.47-1.27-.71-1.97-.71s-1.37.25-1.97.74c-.61.49-.91,1.21-.91,2.17s.31,1.67.94,2.15Z" style="fill: #0137bb;"/>
    <path d="m1646.79,256.7l-1.92-.12v4.07c0,.53.08.91.25,1.15s.48.35.94.35.81.01,1.06.04c.25.03.5.12.78.28.45.25.68.91.68,1.97,0,1.24-.28,1.99-.83,2.27-.29.14-.55.22-.78.25-.23.03-.56.04-.99.04-2.04,0-3.59-.46-4.66-1.38-1.06-.92-1.59-2.49-1.59-4.69v-4.36c-.37.06-.78.09-1.21.09s-.79-.17-1.08-.5c-.29-.33-.43-.9-.43-1.71s.05-1.39.15-1.75c.1-.36.24-.62.41-.78.31-.25.71-.38,1.18-.38l.97.12v-3.03c0-.45.02-.79.04-1,.03-.22.12-.45.28-.71.26-.49,1.01-.74,2.27-.74,1.33,0,2.13.36,2.39,1.09.1.31.15.82.15,1.5v2.89c.86-.08,1.52-.12,1.96-.12s.78.01,1,.04c.23.03.49.12.78.28.51.26.77,1.01.77,2.27s-.27,1.99-.8,2.27c-.29.14-.55.22-.78.25-.23.03-.57.04-1.02.04Z" style="fill: #0137bb;"/>
    <path d="m1653.04,253.43c1.65-1.53,3.54-2.3,5.66-2.3s4,.76,5.63,2.28c1.63,1.52,2.45,3.46,2.45,5.82,0,1.63-.42,3.08-1.27,4.35-.84,1.27-1.87,2.2-3.08,2.8s-2.46.9-3.76.9-2.55-.32-3.77-.96c-1.22-.64-2.25-1.58-3.08-2.83-.84-1.25-1.25-2.66-1.25-4.23,0-2.36.83-4.3,2.48-5.83Zm3.68,7.94c.63.48,1.27.72,1.92.72s1.3-.24,1.94-.74c.65-.49.97-1.22.97-2.18s-.3-1.68-.91-2.15c-.61-.47-1.27-.71-1.97-.71s-1.37.25-1.97.74c-.61.49-.91,1.21-.91,2.17s.31,1.67.94,2.15Z" style="fill: #0137bb;"/>
    <path d="m1668.8,265.63c-.37-.24-.56-.61-.56-1.12s.37-1.29,1.12-2.33c.22-.33.56-.5,1.05-.5s1.13.24,1.96.72c.83.48,1.57.72,2.24.72,1.2,0,1.8-.23,1.8-.71,0-.37-.66-.65-1.97-.82-1.24-.18-2.47-.64-3.68-1.39-.57-.35-1.04-.91-1.41-1.66-.37-.76-.56-1.65-.56-2.7,0-3.1,2.13-4.66,6.39-4.66,1.39,0,2.83.33,4.3,1,.69.31,1.03.71,1.03,1.18s-.22,1.05-.65,1.74c-.43.69-.87,1.03-1.33,1.03-.24,0-.67-.15-1.31-.44-.64-.29-1.33-.44-2.08-.44-1.16,0-1.74.22-1.74.65,0,.59.67.97,2,1.15,1.3.14,2.55.51,3.77,1.12.57.28,1.05.75,1.43,1.43.38.68.57,1.53.57,2.55s-.19,1.89-.57,2.61c-.38.72-.92,1.25-1.61,1.61-1.26.61-2.83.91-4.73.91s-3.72-.55-5.47-1.65Z" style="fill: #0137bb;"/>
    <path d="m1691.7,251.54c1.96,0,3.6.75,4.91,2.24,1.31,1.49,1.96,3.32,1.96,5.48v5.19c0,.45-.02.79-.04,1.02-.03.23-.12.49-.28.78-.26.51-1.01.77-2.27.77s-1.94-.26-2.24-.77c-.16-.29-.25-.56-.28-.8-.03-.24-.04-.59-.04-1.06v-5.16c0-.81-.23-1.43-.68-1.89-.45-.45-1.03-.68-1.72-.68s-1.31.21-1.84.63c-.53.42-.83.9-.91,1.43v5.72c0,.45-.01.79-.04,1.02-.03.23-.12.49-.28.78-.25.51-1.01.77-2.27.77s-1.99-.27-2.27-.8c-.14-.29-.22-.55-.25-.77-.03-.22-.04-.56-.04-1.03v-17.62c0-.45.01-.79.04-1.02.03-.23.11-.48.25-.75.27-.53,1.04-.8,2.3-.8s1.98.27,2.24.8c.16.29.25.56.28.78.03.23.04.56.04,1.02v6.51c.98-1.2,2.13-1.8,3.45-1.8Z" style="fill: #0137bb;"/>
    <path d="m1702.95,253.43c1.65-1.53,3.54-2.3,5.66-2.3s4,.76,5.63,2.28c1.63,1.52,2.45,3.46,2.45,5.82,0,1.63-.42,3.08-1.27,4.35-.84,1.27-1.87,2.2-3.08,2.8s-2.46.9-3.76.9-2.55-.32-3.77-.96c-1.22-.64-2.25-1.58-3.08-2.83-.84-1.25-1.25-2.66-1.25-4.23,0-2.36.83-4.3,2.48-5.83Zm3.68,7.94c.63.48,1.27.72,1.92.72s1.3-.24,1.94-.74c.65-.49.97-1.22.97-2.18s-.3-1.68-.91-2.15c-.61-.47-1.27-.71-1.97-.71s-1.37.25-1.97.74c-.61.49-.91,1.21-.91,2.17s.31,1.67.94,2.15Z" style="fill: #0137bb;"/>
    <path d="m1718.6,271.22v-17.21c0-.45.01-.79.04-1,.03-.22.11-.46.25-.74.27-.53.93-.8,1.97-.8s1.74.13,2.11.4c.36.27.57.65.63,1.16.75-1.02,1.92-1.53,3.52-1.53s3.12.76,4.55,2.27c1.43,1.51,2.15,3.27,2.15,5.27s-.71,3.76-2.14,5.27c-1.42,1.51-2.94,2.27-4.55,2.27s-2.78-.45-3.51-1.36v5.95c0,.45-.01.79-.04,1-.03.22-.12.47-.26.75-.15.28-.4.49-.75.6-.35.12-.83.18-1.44.18s-1.1-.06-1.46-.18c-.36-.12-.62-.31-.77-.59s-.24-.52-.27-.74c-.03-.22-.04-.55-.04-1Zm5.83-13.88c-.45.53-.68,1.11-.68,1.74s.23,1.2.69,1.72c.46.52,1.05.78,1.77.78s1.33-.26,1.83-.77c.5-.51.75-1.09.75-1.74s-.24-1.23-.71-1.75c-.47-.52-1.08-.78-1.84-.78s-1.36.27-1.81.8Z" style="fill: #0137bb;"/>
    <path d="m1750.1,266.95c-1.98,0-3.63-.75-4.94-2.25s-1.96-3.33-1.96-5.5v-5.16c0-.47.01-.81.04-1.03.03-.22.11-.47.25-.77.27-.53,1.04-.8,2.3-.8,1.38,0,2.18.37,2.42,1.12.12.31.18.82.18,1.5v5.16c0,.81.23,1.43.69,1.89.46.45,1.08.68,1.86.68s1.4-.24,1.89-.71.72-1.09.72-1.86v-5.22c0-.45.01-.79.04-1.02.03-.23.12-.49.28-.78.26-.51,1.01-.77,2.27-.77s1.99.27,2.27.8c.14.29.22.56.25.78.03.23.04.56.04,1.02v10.43c0,.43-.01.76-.04.99-.03.23-.12.48-.28.75-.29.51-1.05.77-2.27.77s-1.94-.24-2.21-.71c-.2-.33-.29-.74-.29-1.21-.08.14-.26.33-.53.59-.28.25-.54.47-.8.65-.67.43-1.39.65-2.18.65Z" style="fill: #0137bb;"/>
    <path d="m1771.47,245.01c.15-.28.41-.49.78-.6.37-.12.87-.18,1.49-.18s1.12.06,1.49.18c.37.12.63.32.78.62.15.29.24.56.26.78.03.23.04.56.04,1.02v17.59c0,.45-.01.79-.04,1.02-.03.22-.12.48-.28.75-.29.53-1.12.8-2.49.8s-2.13-.48-2.28-1.44c-.82.94-1.97,1.41-3.45,1.41-1.77,0-3.38-.77-4.83-2.31-1.45-1.54-2.18-3.34-2.18-5.39s.73-3.85,2.2-5.41c1.46-1.55,3.07-2.33,4.82-2.33,1.45,0,2.58.49,3.39,1.47v-6.19c0-.45.01-.79.04-1.02.03-.23.12-.48.27-.77Zm-4.79,16.01c.51.53,1.13.8,1.86.8s1.33-.26,1.81-.8c.48-.53.72-1.11.72-1.75s-.23-1.23-.69-1.78c-.46-.55-1.09-.82-1.87-.82s-1.42.27-1.89.81c-.47.54-.71,1.13-.71,1.78s.26,1.24.77,1.77Z" style="fill: #0137bb;"/>
    <path d="m1794.03,251.83c1.02.61,1.53,1.26,1.53,1.94,0,.39-.2.93-.59,1.62l-6.1,10.46c-.2.33-.51.63-.94.9-.43.26-.86.4-1.28.4s-.83-.1-1.21-.31c-.38-.21-.65-.42-.81-.63l-.27-.32-6.13-10.49c-.39-.65-.59-1.18-.59-1.59,0-.71.51-1.36,1.53-1.97.75-.43,1.33-.65,1.77-.65s.77.13,1.02.4c.25.27.51.66.78,1.19l3.86,7.43,3.86-7.43c.22-.37.38-.64.49-.81.11-.17.28-.33.52-.5.24-.17.55-.25.94-.25s.93.21,1.62.62Z" style="fill: #0137bb;"/>
    <path d="m1802.03,248.61c-.15.29-.41.49-.78.6-.37.12-.87.18-1.49.18s-1.12-.06-1.49-.18c-.37-.12-.63-.32-.78-.62-.15-.29-.24-.55-.27-.78-.03-.23-.04-.56-.04-1.02s.01-.79.04-1.02c.03-.23.11-.48.25-.75.27-.53,1.04-.8,2.3-.8s1.98.27,2.24.8c.16.29.25.56.28.78.03.23.04.56.04,1.02s-.01.79-.04,1.02c-.03.23-.12.48-.27.77Zm-4.85,5.47c0-.45.01-.79.04-1.02.03-.23.11-.49.25-.78.27-.51,1.04-.77,2.3-.77.94,0,1.61.17,2,.5.33.28.51.7.53,1.27.02.2.03.48.03.85v10.31c0,.45-.01.79-.04,1.02-.03.23-.12.49-.28.78-.25.51-1.01.77-2.27.77s-1.99-.27-2.27-.8c-.14-.29-.22-.55-.25-.77-.03-.22-.04-.56-.04-1.03v-10.34Z" style="fill: #0137bb;"/>
    <path d="m1813.83,259.23l3.92,3.24c.49.41.8.73.93.94.13.22.19.42.19.62,0,.47-.3,1.11-.91,1.92-.67.82-1.26,1.24-1.77,1.24-.43,0-1.03-.28-1.8-.85l-.29-.21c-.45-.37-1.15-1.03-2.09-1.96-.94-.93-1.66-1.6-2.15-1.99v2.27c0,.45-.01.79-.04,1.02-.03.23-.12.49-.28.78-.25.51-1.01.77-2.27.77s-1.99-.27-2.27-.8c-.14-.29-.22-.56-.25-.78-.03-.23-.04-.56-.04-1.02v-17.65c0-.45.01-.79.04-1.02.03-.23.11-.49.25-.78.27-.53,1.04-.8,2.3-.8.94,0,1.61.17,2,.5.33.28.51.71.53,1.3.02.18.03.45.03.83v9.34c.35-.29.89-.8,1.61-1.5.72-.71,1.25-1.21,1.61-1.5l.35-.24c.69-.53,1.28-.8,1.77-.8s1.06.4,1.69,1.19c.64.8.96,1.42.96,1.87s-.36.98-1.09,1.59l-2.92,2.48Z" style="fill: #0137bb;"/>
    <path d="m1820.49,246.77c0-.45.01-.79.04-1.02.03-.23.11-.49.25-.78.27-.53,1.04-.8,2.3-.8s1.94.27,2.24.8c.16.29.25.56.28.8s.04.58.04,1.03v13.64c0,.71.06,1.15.18,1.34.12.19.38.28.78.28s.67.02.81.04c.14.03.3.11.5.25.39.26.59.95.59,2.09,0,1.24-.2,1.99-.59,2.27-.51.35-1.73.41-3.65.18-1.51-.2-2.5-.7-2.95-1.5-.55-.96-.83-2.49-.83-4.6v-14.03Z" style="fill: #0137bb;"/>
    <path d="m1844.8,257.39c0,1.21-.3,2.1-.9,2.68-.6.58-1.26.87-1.99.87h-6.98c0,.55.32,1.01.97,1.38.65.37,1.3.56,1.95.56,1.14,0,2.03-.12,2.68-.35l.32-.12c.47-.21.86-.32,1.18-.32.63,0,1.17.44,1.62,1.33.25.53.38.98.38,1.36,0,1.75-2.09,2.62-6.28,2.62-1.45,0-2.75-.25-3.87-.75-1.13-.5-2.01-1.16-2.64-1.99-1.24-1.59-1.86-3.37-1.86-5.33,0-2.48.8-4.45,2.4-5.94,1.6-1.48,3.6-2.22,6-2.22,2.73,0,4.73.96,6.01,2.89.67,1.02,1,2.14,1,3.34Zm-6.22.87c.75,0,1.12-.31,1.12-.94,0-.45-.17-.81-.52-1.09-.34-.27-.83-.41-1.47-.41s-1.27.26-1.9.78c-.63.52-.94,1.08-.94,1.66h3.71Z" style="fill: #0137bb;"/>
    <path d="m1857.26,251.66c.37.12.68.32.93.6.25.29.37.74.37,1.37s-.19,1.32-.56,2.06c-.37.75-.91,1.12-1.62,1.12-.35,0-.69-.08-1.02-.24-.32-.16-.75-.24-1.28-.24s-1.03.19-1.49.56-.69.82-.69,1.35v6.19c0,.45-.01.79-.04,1.02-.03.23-.12.49-.28.78-.29.51-1.06.77-2.3.77-.94,0-1.62-.17-2.03-.5-.31-.27-.49-.7-.53-1.27v-11.2c0-.45.01-.79.04-1.02.03-.23.11-.48.25-.75.27-.53,1.04-.8,2.3-.8,1.18,0,1.92.23,2.21.68.22.31.32.64.32.97.1-.14.24-.3.43-.5s.58-.46,1.19-.8c.61-.33,1.14-.5,1.61-.5s.85.02,1.16.07c.31.05.66.13,1.03.25Z" style="fill: #0137bb;"/>
  </g>
  <g>
    <path d="m105.21,382.94l5.92,6.51c.67.75,1,1.38,1,1.89s-.38,1.11-1.13,1.8-1.4,1.03-1.92,1.03-1.12-.39-1.81-1.18l-5.6-6.42-5.6,6.42c-.71.79-1.31,1.18-1.81,1.18s-1.14-.35-1.92-1.05c-.78-.7-1.16-1.29-1.16-1.78s.34-1.12,1.03-1.89l5.92-6.51-5.92-6.51c-.69-.73-1.03-1.35-1.03-1.86s.38-1.11,1.15-1.81c.77-.7,1.41-1.05,1.93-1.05s1.12.39,1.81,1.18l5.6,6.42,5.6-6.42c.71-.79,1.31-1.18,1.81-1.18s1.13.34,1.9,1.03c.77.69,1.15,1.3,1.15,1.83s-.33,1.15-1,1.86l-5.92,6.51Z" style="fill: #0137bb;"/>
    <path d="m116.38,372.24l5.45.03c2.85,0,5.35,1.03,7.51,3.08,2.16,2.05,3.24,4.58,3.24,7.57s-1.06,5.56-3.17,7.71c-2.11,2.14-4.67,3.21-7.68,3.21h-5.39c-1.2,0-1.94-.25-2.24-.74-.24-.41-.35-1.04-.35-1.89v-16.38c0-.47.01-.81.04-1.03.03-.22.12-.47.28-.77.27-.53,1.04-.8,2.3-.8Zm9.28,14.81c1.14-1.05,1.71-2.37,1.71-3.96s-.56-2.92-1.66-3.99c-1.11-1.07-2.41-1.61-3.9-1.61h-2.83v11.14h2.86c1.41,0,2.69-.53,3.83-1.58Z" style="fill: #0137bb;"/>
    <path d="m150.58,378.34c1.96,0,3.6.75,4.91,2.25s1.96,3.33,1.96,5.5v5.19c0,.45-.01.79-.04,1.02s-.11.48-.25.75c-.28.53-1.04.8-2.3.8-1.4,0-2.2-.36-2.42-1.09-.12-.33-.18-.83-.18-1.5v-5.19c0-.8-.23-1.43-.69-1.89-.46-.45-1.08-.68-1.86-.68s-1.4.24-1.89.71c-.48.47-.72,1.09-.72,1.86v5.22c0,.45-.01.79-.04,1.02-.03.23-.12.48-.28.75-.26.53-1.01.8-2.27.8s-1.99-.27-2.27-.8c-.14-.29-.22-.55-.25-.78-.03-.23-.04-.56-.04-1.02v-10.43c0-.43.01-.76.04-.99.03-.23.12-.48.28-.75.27-.49,1.03-.74,2.27-.74s1.93.23,2.21.68c.2.33.29.74.29,1.21.08-.14.25-.33.53-.59.27-.26.54-.46.8-.62.67-.45,1.4-.68,2.21-.68Z" style="fill: #0137bb;"/>
    <path d="m173.36,378.52c1.16.51,1.74,1.13,1.74,1.86,0,.35-.08.69-.24,1-.16.31-.24.48-.24.5l-7.72,17.27c-.16.37-.29.66-.4.85-.11.2-.28.38-.52.56-.24.18-.53.27-.88.27s-.87-.15-1.56-.44c-1.16-.51-1.74-1.12-1.74-1.83,0-.47.94-2.72,2.83-6.75l-5.86-9.87c-.39-.65-.59-1.13-.59-1.44,0-.63.53-1.26,1.59-1.89.67-.39,1.19-.59,1.56-.59s.68.08.91.24c.24.16.41.32.52.49.11.17.65,1.08,1.62,2.74.97,1.66,1.9,3.21,2.78,4.64.1-.31.63-1.53,1.59-3.64.96-2.11,1.48-3.24,1.55-3.37.07-.14.18-.3.34-.5.26-.33.61-.5,1.08-.5s1.01.14,1.64.41Z" style="fill: #0137bb;"/>
    <path d="m176.25,392.48c-.37-.24-.56-.61-.56-1.12s.37-1.29,1.12-2.33c.22-.33.56-.5,1.05-.5s1.13.24,1.96.72,1.57.72,2.24.72c1.2,0,1.8-.24,1.8-.71,0-.37-.66-.65-1.97-.83-1.24-.18-2.47-.64-3.68-1.38-.57-.35-1.04-.91-1.41-1.67-.37-.76-.56-1.65-.56-2.7,0-3.1,2.13-4.66,6.39-4.66,1.39,0,2.83.33,4.3,1,.69.31,1.03.71,1.03,1.18s-.22,1.05-.65,1.74c-.43.69-.87,1.03-1.33,1.03-.24,0-.67-.15-1.31-.44-.64-.29-1.33-.44-2.08-.44-1.16,0-1.74.22-1.74.65,0,.59.67.97,2,1.15,1.3.14,2.55.51,3.77,1.12.57.28,1.05.75,1.43,1.43.38.68.57,1.53.57,2.55s-.19,1.89-.57,2.61c-.38.72-.92,1.25-1.61,1.61-1.26.61-2.83.91-4.73.91s-3.72-.55-5.47-1.65Z" style="fill: #0137bb;"/>
    <path d="m199.08,383.56l-1.92-.12v4.07c0,.53.08.91.25,1.15.17.24.48.35.94.35s.81.01,1.06.04.51.12.78.28c.45.26.68.91.68,1.97,0,1.24-.28,1.99-.83,2.27-.29.14-.56.22-.78.25-.23.03-.56.04-.99.04-2.04,0-3.59-.46-4.66-1.38-1.06-.92-1.59-2.49-1.59-4.69v-4.36c-.37.06-.78.09-1.21.09s-.79-.17-1.08-.5c-.28-.33-.43-.9-.43-1.71s.05-1.39.15-1.75c.1-.36.24-.62.41-.78.31-.26.71-.38,1.18-.38l.97.12v-3.04c0-.45.01-.79.04-1,.03-.22.12-.45.28-.71.25-.49,1.01-.74,2.27-.74,1.34,0,2.13.36,2.39,1.09.1.31.15.82.15,1.5v2.89c.86-.08,1.52-.12,1.96-.12s.78.01,1,.04c.23.03.49.12.78.28.51.26.77,1.01.77,2.27s-.27,1.99-.8,2.27c-.29.14-.56.22-.78.25-.23.03-.56.04-1.02.04Z" style="fill: #0137bb;"/>
    <path d="m213.38,379.99c.12-1.1.89-1.65,2.33-1.65.77,0,1.34.06,1.71.18s.63.32.78.62c.15.29.24.55.27.78.03.23.04.57.04,1.02v10.31c0,.45-.01.79-.04,1.02-.03.23-.11.49-.25.78-.28.51-.95.77-2.02.77s-1.79-.13-2.15-.4c-.36-.26-.57-.65-.63-1.16-.73,1.04-1.94,1.56-3.64,1.56s-3.28-.78-4.73-2.33-2.18-3.35-2.18-5.41.73-3.85,2.19-5.39,3.07-2.31,4.82-2.31c.67,0,1.28.12,1.83.35.55.24.93.46,1.15.66.22.21.39.41.53.6Zm-5.36,6.13c0,.65.25,1.23.77,1.75.51.52,1.13.78,1.86.78s1.33-.26,1.81-.79c.48-.53.72-1.12.72-1.75s-.23-1.23-.69-1.78-1.08-.83-1.86-.83-1.4.28-1.89.83c-.48.55-.72,1.15-.72,1.8Z" style="fill: #0137bb;"/>
    <path d="m231.41,378.52c.37.12.68.32.93.6.25.28.37.74.37,1.37s-.19,1.32-.56,2.06c-.37.75-.91,1.12-1.62,1.12-.35,0-.69-.08-1.02-.24s-.75-.24-1.28-.24-1.03.19-1.49.56c-.46.37-.69.83-.69,1.36v6.19c0,.45-.02.79-.04,1.02s-.12.49-.28.78c-.29.51-1.06.77-2.3.77-.94,0-1.62-.17-2.03-.5-.31-.27-.49-.7-.53-1.27v-11.2c0-.45.01-.79.04-1.02.03-.23.11-.48.25-.75.27-.53,1.04-.8,2.3-.8,1.18,0,1.92.23,2.21.68.22.31.32.64.32.97.1-.14.24-.3.43-.5.19-.2.58-.46,1.19-.8.61-.33,1.14-.5,1.61-.5s.85.03,1.16.07c.31.05.66.13,1.03.25Z" style="fill: #0137bb;"/>
    <path d="m243.34,383.56l-1.92-.12v4.07c0,.53.08.91.25,1.15.17.24.48.35.94.35s.81.01,1.06.04.51.12.78.28c.45.26.68.91.68,1.97,0,1.24-.28,1.99-.83,2.27-.29.14-.56.22-.78.25-.23.03-.56.04-.99.04-2.04,0-3.59-.46-4.66-1.38-1.06-.92-1.59-2.49-1.59-4.69v-4.36c-.37.06-.78.09-1.21.09s-.79-.17-1.08-.5c-.28-.33-.43-.9-.43-1.71s.05-1.39.15-1.75c.1-.36.24-.62.41-.78.31-.26.71-.38,1.18-.38l.97.12v-3.04c0-.45.01-.79.04-1,.03-.22.12-.45.28-.71.25-.49,1.01-.74,2.27-.74,1.34,0,2.13.36,2.39,1.09.1.31.15.82.15,1.5v2.89c.86-.08,1.52-.12,1.96-.12s.78.01,1,.04c.23.03.49.12.78.28.51.26.77,1.01.77,2.27s-.27,1.99-.8,2.27c-.29.14-.56.22-.78.25-.23.03-.56.04-1.02.04Z" style="fill: #0137bb;"/>
    <path d="m261.93,384.25c0,1.21-.3,2.1-.9,2.68-.6.58-1.26.87-1.99.87h-6.98c0,.55.32,1.01.97,1.39s1.3.56,1.94.56c1.14,0,2.03-.12,2.68-.35l.32-.12c.47-.22.86-.32,1.18-.32.63,0,1.17.44,1.62,1.33.25.53.38.98.38,1.36,0,1.75-2.09,2.62-6.28,2.62-1.45,0-2.75-.25-3.88-.75-1.13-.5-2.01-1.16-2.64-1.99-1.24-1.59-1.86-3.37-1.86-5.33,0-2.48.8-4.45,2.4-5.94,1.6-1.48,3.6-2.22,6-2.22,2.73,0,4.73.96,6.01,2.89.67,1.02,1,2.14,1,3.34Zm-6.22.87c.75,0,1.12-.31,1.12-.94,0-.45-.17-.81-.52-1.09s-.83-.41-1.47-.41-1.27.26-1.9.78c-.63.52-.94,1.08-.94,1.67h3.71Z" style="fill: #0137bb;"/>
    <path d="m274.4,378.52c.37.12.68.32.93.6.25.28.37.74.37,1.37s-.19,1.32-.56,2.06c-.37.75-.91,1.12-1.62,1.12-.35,0-.69-.08-1.02-.24s-.75-.24-1.28-.24-1.03.19-1.49.56c-.46.37-.69.83-.69,1.36v6.19c0,.45-.02.79-.04,1.02s-.12.49-.28.78c-.29.51-1.06.77-2.3.77-.94,0-1.62-.17-2.03-.5-.31-.27-.49-.7-.53-1.27v-11.2c0-.45.01-.79.04-1.02.03-.23.11-.48.25-.75.27-.53,1.04-.8,2.3-.8,1.18,0,1.92.23,2.21.68.22.31.32.64.32.97.1-.14.24-.3.43-.5.19-.2.58-.46,1.19-.8.61-.33,1.14-.5,1.61-.5s.85.03,1.16.07c.31.05.66.13,1.03.25Z" style="fill: #0137bb;"/>
  </g>
  <g>
    <path d="m1594.84,372.89l5.92,6.51c.67.75,1,1.38,1,1.89s-.38,1.11-1.13,1.8c-.76.69-1.4,1.03-1.92,1.03s-1.12-.39-1.81-1.18l-5.6-6.42-5.6,6.42c-.71.79-1.31,1.18-1.81,1.18s-1.14-.35-1.92-1.05c-.78-.7-1.16-1.29-1.16-1.78s.34-1.12,1.03-1.89l5.92-6.51-5.92-6.51c-.69-.73-1.03-1.35-1.03-1.86s.38-1.11,1.15-1.81c.77-.7,1.41-1.05,1.93-1.05s1.12.39,1.81,1.18l5.6,6.42,5.6-6.42c.71-.79,1.31-1.18,1.81-1.18s1.13.34,1.9,1.03c.77.69,1.15,1.3,1.15,1.83s-.33,1.15-1,1.86l-5.92,6.51Z" style="fill: #0137bb;"/>
    <path d="m1606.01,362.19l5.45.03c2.85,0,5.35,1.03,7.51,3.08,2.16,2.05,3.24,4.58,3.24,7.57s-1.06,5.56-3.17,7.71c-2.11,2.14-4.67,3.21-7.68,3.21h-5.39c-1.2,0-1.94-.25-2.24-.74-.24-.41-.35-1.04-.35-1.89v-16.38c0-.47.01-.81.04-1.03.03-.22.12-.47.28-.77.27-.53,1.04-.8,2.3-.8Zm9.28,14.81c1.14-1.05,1.71-2.37,1.71-3.96s-.56-2.92-1.67-3.99c-1.11-1.07-2.41-1.61-3.9-1.61h-2.83v11.14h2.86c1.41,0,2.69-.53,3.83-1.58Z" style="fill: #0137bb;"/>
    <path d="m1631.7,382.44c-.37-.24-.56-.61-.56-1.12s.37-1.29,1.12-2.33c.22-.33.56-.5,1.05-.5s1.13.24,1.96.72c.83.48,1.57.72,2.24.72,1.2,0,1.8-.24,1.8-.71,0-.37-.66-.65-1.97-.83-1.24-.18-2.47-.64-3.68-1.38-.57-.35-1.04-.91-1.41-1.67-.37-.76-.56-1.65-.56-2.7,0-3.1,2.13-4.66,6.39-4.66,1.39,0,2.83.33,4.3,1,.69.31,1.03.71,1.03,1.18s-.22,1.05-.65,1.74c-.43.69-.87,1.03-1.33,1.03-.24,0-.67-.15-1.31-.44-.64-.29-1.33-.44-2.08-.44-1.16,0-1.74.22-1.74.65,0,.59.67.97,2,1.15,1.3.14,2.55.51,3.77,1.12.57.28,1.05.75,1.43,1.43.38.68.57,1.53.57,2.55s-.19,1.89-.57,2.61c-.38.72-.92,1.25-1.61,1.61-1.26.61-2.83.91-4.73.91s-3.72-.55-5.47-1.65Z" style="fill: #0137bb;"/>
    <path d="m1645.99,388.03v-17.21c0-.45.01-.79.04-1,.03-.22.11-.46.25-.74.27-.53.93-.8,1.97-.8s1.74.13,2.11.4c.36.27.57.65.63,1.16.75-1.02,1.92-1.53,3.52-1.53s3.12.76,4.55,2.27c1.43,1.51,2.15,3.27,2.15,5.27s-.71,3.76-2.14,5.27c-1.42,1.51-2.94,2.27-4.55,2.27s-2.78-.45-3.51-1.36v5.95c0,.45-.01.79-.04,1s-.12.47-.26.75c-.15.28-.4.49-.75.6-.35.12-.83.18-1.44.18s-1.1-.06-1.46-.18c-.36-.12-.62-.31-.77-.59-.15-.28-.24-.52-.27-.74-.03-.22-.04-.55-.04-1Zm5.83-13.88c-.45.53-.68,1.11-.68,1.74s.23,1.2.69,1.72,1.05.78,1.77.78,1.33-.25,1.83-.77.75-1.09.75-1.74-.24-1.23-.71-1.75c-.47-.52-1.08-.78-1.84-.78s-1.36.26-1.81.79Z" style="fill: #0137bb;"/>
    <path d="m1678.11,374.2c0,1.21-.3,2.1-.9,2.68-.6.58-1.26.87-1.99.87h-6.98c0,.55.32,1.01.97,1.39.65.37,1.3.56,1.95.56,1.14,0,2.03-.12,2.68-.35l.32-.12c.47-.22.86-.32,1.18-.32.63,0,1.17.44,1.62,1.33.25.53.38.98.38,1.36,0,1.75-2.09,2.62-6.28,2.62-1.45,0-2.75-.25-3.87-.75-1.13-.5-2.01-1.16-2.64-1.99-1.24-1.59-1.86-3.37-1.86-5.33,0-2.48.8-4.45,2.4-5.94,1.6-1.48,3.6-2.22,6-2.22,2.73,0,4.73.96,6.01,2.89.67,1.02,1,2.14,1,3.34Zm-6.22.87c.75,0,1.12-.31,1.12-.94,0-.45-.17-.81-.52-1.09-.34-.28-.83-.41-1.47-.41s-1.27.26-1.9.78c-.63.52-.94,1.08-.94,1.67h3.71Z" style="fill: #0137bb;"/>
    <path d="m1684.88,376.06c0,.83.28,1.48.83,1.94.55.46,1.13.69,1.75.69s1.2-.18,1.74-.54c.54-.36.98-.54,1.31-.54.59,0,1.31.52,2.15,1.56.45.57.68,1.08.68,1.53,0,.75-.54,1.44-1.62,2.09-1.12.79-2.49,1.18-4.12,1.18-1.83,0-3.58-.66-5.27-1.97-.81-.63-1.46-1.47-1.97-2.52-.51-1.05-.77-2.21-.77-3.48s.25-2.42.77-3.45c.51-1.03,1.17-1.86,1.97-2.49,1.63-1.3,3.37-1.94,5.22-1.94.75,0,1.47.1,2.18.31s1.23.41,1.56.6l.47.29c.35.24.63.42.82.56.51.39.77.84.77,1.34s-.21,1.07-.62,1.69c-.71,1.08-1.38,1.62-2.03,1.62-.37,0-.9-.22-1.59-.65-.35-.33-.86-.5-1.52-.5s-1.27.24-1.84.71c-.57.47-.85,1.12-.85,1.96Z" style="fill: #0137bb;"/>
    <path d="m1700.1,365.42c-.15.29-.41.49-.78.6-.37.12-.87.18-1.49.18s-1.12-.06-1.49-.18c-.37-.12-.63-.32-.78-.62s-.24-.55-.27-.78-.04-.56-.04-1.02.01-.79.04-1.02.11-.48.25-.75c.27-.53,1.04-.79,2.3-.79s1.98.26,2.24.79c.16.29.25.56.28.78s.04.56.04,1.02-.01.79-.04,1.02-.12.48-.27.77Zm-4.85,5.47c0-.45.01-.79.04-1.02.03-.23.11-.49.25-.78.27-.51,1.04-.77,2.3-.77.94,0,1.61.17,2,.5.33.28.51.7.53,1.27.02.2.03.48.03.85v10.31c0,.45-.01.79-.04,1.02s-.12.49-.28.78c-.25.51-1.01.77-2.27.77s-1.99-.27-2.27-.8c-.14-.29-.22-.55-.25-.77s-.04-.56-.04-1.03v-10.34Z" style="fill: #0137bb;"/>
    <path d="m1712.85,369.94c.12-1.1.89-1.65,2.33-1.65.77,0,1.33.06,1.71.18.37.12.63.32.78.62.15.29.24.55.27.78.03.23.04.57.04,1.02v10.31c0,.45-.01.79-.04,1.02s-.11.49-.25.78c-.28.51-.95.77-2.02.77s-1.79-.13-2.15-.4c-.36-.26-.58-.65-.63-1.16-.73,1.04-1.94,1.56-3.64,1.56s-3.28-.78-4.73-2.33c-1.45-1.55-2.18-3.35-2.18-5.41s.73-3.85,2.2-5.39c1.46-1.54,3.07-2.31,4.82-2.31.67,0,1.28.12,1.83.35.55.24.93.46,1.15.66.22.21.39.41.53.6Zm-5.36,6.13c0,.65.25,1.23.77,1.75s1.13.78,1.86.78,1.33-.26,1.81-.79c.48-.53.72-1.12.72-1.75s-.23-1.23-.69-1.78c-.46-.55-1.08-.83-1.86-.83s-1.41.28-1.89.83c-.48.55-.72,1.15-.72,1.8Z" style="fill: #0137bb;"/>
    <path d="m1720.33,363.58c0-.45.01-.79.04-1.02.03-.23.11-.49.25-.78.27-.53,1.04-.8,2.3-.8s1.94.27,2.24.8c.16.29.25.56.28.8.03.24.04.58.04,1.03v13.64c0,.71.06,1.15.18,1.34.12.19.38.28.78.28s.67.01.81.04c.14.03.3.11.5.25.39.25.59.95.59,2.09,0,1.24-.2,1.99-.59,2.27-.51.35-1.73.41-3.65.18-1.51-.2-2.5-.7-2.95-1.5-.55-.96-.83-2.5-.83-4.6v-14.03Z" style="fill: #0137bb;"/>
    <path d="m1734.81,365.42c-.15.29-.41.49-.78.6-.37.12-.87.18-1.49.18s-1.12-.06-1.49-.18c-.37-.12-.63-.32-.78-.62s-.24-.55-.27-.78-.04-.56-.04-1.02.01-.79.04-1.02.11-.48.25-.75c.27-.53,1.04-.79,2.3-.79s1.98.26,2.24.79c.16.29.25.56.28.78s.04.56.04,1.02-.01.79-.04,1.02-.12.48-.27.77Zm-4.85,5.47c0-.45.01-.79.04-1.02.03-.23.11-.49.25-.78.27-.51,1.04-.77,2.3-.77.94,0,1.61.17,2,.5.33.28.51.7.53,1.27.02.2.03.48.03.85v10.31c0,.45-.01.79-.04,1.02s-.12.49-.28.78c-.25.51-1.01.77-2.27.77s-1.99-.27-2.27-.8c-.14-.29-.22-.55-.25-.77s-.04-.56-.04-1.03v-10.34Z" style="fill: #0137bb;"/>
    <path d="m1737.6,382.44c-.37-.24-.56-.61-.56-1.12s.37-1.29,1.12-2.33c.22-.33.56-.5,1.05-.5s1.13.24,1.96.72c.83.48,1.57.72,2.24.72,1.2,0,1.8-.24,1.8-.71,0-.37-.66-.65-1.97-.83-1.24-.18-2.47-.64-3.68-1.38-.57-.35-1.04-.91-1.41-1.67-.37-.76-.56-1.65-.56-2.7,0-3.1,2.13-4.66,6.39-4.66,1.39,0,2.83.33,4.3,1,.69.31,1.03.71,1.03,1.18s-.22,1.05-.65,1.74c-.43.69-.87,1.03-1.33,1.03-.24,0-.67-.15-1.31-.44-.64-.29-1.33-.44-2.08-.44-1.16,0-1.74.22-1.74.65,0,.59.67.97,2,1.15,1.3.14,2.55.51,3.77,1.12.57.28,1.05.75,1.43,1.43.38.68.57,1.53.57,2.55s-.19,1.89-.57,2.61c-.38.72-.92,1.25-1.61,1.61-1.26.61-2.83.91-4.73.91s-3.72-.55-5.47-1.65Z" style="fill: #0137bb;"/>
    <path d="m1760.43,373.51l-1.92-.12v4.07c0,.53.08.91.25,1.15.17.24.48.35.94.35s.81.01,1.06.04c.25.03.5.12.78.28.45.26.68.91.68,1.97,0,1.24-.28,1.99-.83,2.27-.29.14-.55.22-.78.25-.23.03-.56.04-.99.04-2.04,0-3.59-.46-4.66-1.38-1.06-.92-1.59-2.49-1.59-4.69v-4.36c-.37.06-.78.09-1.21.09s-.79-.17-1.08-.5c-.29-.33-.43-.9-.43-1.71s.05-1.39.15-1.75c.1-.36.24-.62.41-.78.31-.26.71-.38,1.18-.38l.97.12v-3.04c0-.45.02-.79.04-1,.03-.22.12-.45.28-.71.26-.49,1.01-.74,2.27-.74,1.33,0,2.13.36,2.39,1.09.1.31.15.82.15,1.5v2.89c.86-.08,1.52-.12,1.96-.12s.78.01,1,.04c.23.03.49.12.78.28.51.26.77,1.01.77,2.27s-.27,1.99-.8,2.27c-.29.14-.55.22-.78.25-.23.03-.57.04-1.02.04Z" style="fill: #0137bb;"/>
  </g>
  <g>
    <g>
      <polyline points="401.08 157.17 401.08 157.17 1496.34 152.15 1496.34 152.15" style="fill: #0137bb;"/>
      <polygon points="1496.34 151.57 1496.34 128 1516.75 139.78 1537.16 151.57 1516.75 163.35 1496.34 175.13 1496.34 151.57" style="fill: #0137bb; fill-rule: evenodd;"/>
      <polygon points="401.08 157.65 401.08 181.22 380.67 169.44 360.26 157.65 380.67 145.87 401.08 134.08 401.08 157.65" style="fill: #0137bb; fill-rule: evenodd;"/>
    </g>
    <path d="m551.17,195.35c-20.71,0-37.55-16.85-37.55-37.55s16.85-37.55,37.55-37.55,37.55,16.85,37.55,37.55-16.85,37.55-37.55,37.55Zm0-74.11c-20.16,0-36.55,16.4-36.55,36.55s16.4,36.55,36.55,36.55,36.55-16.4,36.55-36.55-16.4-36.55-36.55-36.55Z" style="fill: #0137bb;"/>
    <path d="m648.52,195.98c-20.71,0-37.55-16.85-37.55-37.55s16.85-37.55,37.55-37.55,37.55,16.85,37.55,37.55-16.85,37.55-37.55,37.55Zm0-74.11c-20.16,0-36.55,16.4-36.55,36.55s16.4,36.55,36.55,36.55,36.55-16.4,36.55-36.55-16.4-36.55-36.55-36.55Z" style="fill: #0137bb;"/>
    <path d="m745.23,195.98c-20.71,0-37.55-16.85-37.55-37.55s16.85-37.55,37.55-37.55,37.55,16.85,37.55,37.55-16.85,37.55-37.55,37.55Zm0-74.11c-20.16,0-36.55,16.4-36.55,36.55s16.4,36.55,36.55,36.55,36.55-16.4,36.55-36.55-16.4-36.55-36.55-36.55Z" style="fill: #0137bb;"/>
    <path d="m844.46,195.98c-20.71,0-37.55-16.85-37.55-37.55s16.85-37.55,37.55-37.55,37.55,16.85,37.55,37.55-16.85,37.55-37.55,37.55Zm0-74.11c-20.16,0-36.55,16.4-36.55,36.55s16.4,36.55,36.55,36.55,36.55-16.4,36.55-36.55-16.4-36.55-36.55-36.55Z" style="fill: #0137bb;"/>
    <circle cx="948.71" cy="157.17" r="37.05" style="fill: #0137bb;"/>
    <path d="m1051.71,194.72c-20.71,0-37.55-16.85-37.55-37.55s16.85-37.55,37.55-37.55,37.55,16.85,37.55,37.55-16.85,37.55-37.55,37.55Zm0-74.11c-20.16,0-36.55,16.4-36.55,36.55s16.4,36.55,36.55,36.55,36.55-16.4,36.55-36.55-16.4-36.55-36.55-36.55Z" style="fill: #0137bb;"/>
    <path d="m1153.44,194.72c-20.71,0-37.55-16.85-37.55-37.55s16.85-37.55,37.55-37.55,37.55,16.85,37.55,37.55-16.85,37.55-37.55,37.55Zm0-74.11c-20.16,0-36.55,16.4-36.55,36.55s16.4,36.55,36.55,36.55,36.55-16.4,36.55-36.55-16.4-36.55-36.55-36.55Z" style="fill: #0137bb;"/>
    <path d="m1256.44,189.7c-20.71,0-37.55-16.85-37.55-37.55s16.85-37.55,37.55-37.55,37.55,16.85,37.55,37.55-16.85,37.55-37.55,37.55Zm0-74.11c-20.16,0-36.55,16.4-36.55,36.55s16.4,36.55,36.55,36.55,36.55-16.4,36.55-36.55-16.4-36.55-36.55-36.55Z" style="fill: #0137bb;"/>
    <path d="m1359.43,189.7c-20.71,0-37.55-16.85-37.55-37.55s16.85-37.55,37.55-37.55,37.55,16.85,37.55,37.55-16.85,37.55-37.55,37.55Zm0-74.11c-20.16,0-36.55,16.4-36.55,36.55s16.4,36.55,36.55,36.55,36.55-16.4,36.55-36.55-16.4-36.55-36.55-36.55Z" style="fill: #0137bb;"/>
  </g>
  <g>
    <g>
      <polyline points="397.31 275.24 397.31 275.24 1492.57 270.21 1492.57 270.21" style="fill: #0137bb;"/>
      <polygon points="1492.57 269.63 1492.57 246.06 1512.98 257.85 1533.4 269.63 1512.98 281.42 1492.57 293.2 1492.57 269.63" style="fill: #0137bb; fill-rule: evenodd;"/>
      <polygon points="397.31 275.72 397.31 299.29 376.9 287.5 356.49 275.72 376.9 263.93 397.31 252.15 397.31 275.72" style="fill: #0137bb; fill-rule: evenodd;"/>
    </g>
    <path d="m547.41,313.42c-20.71,0-37.55-16.85-37.55-37.55s16.85-37.55,37.55-37.55,37.55,16.85,37.55,37.55-16.85,37.55-37.55,37.55Zm0-74.11c-20.16,0-36.55,16.4-36.55,36.55s16.4,36.55,36.55,36.55,36.55-16.4,36.55-36.55-16.4-36.55-36.55-36.55Z" style="fill: #0137bb;"/>
    <circle cx="644.75" cy="276.49" r="37.05" style="fill: #0137bb;"/>
    <path d="m741.46,314.05c-20.71,0-37.55-16.85-37.55-37.55s16.85-37.55,37.55-37.55,37.55,16.85,37.55,37.55-16.85,37.55-37.55,37.55Zm0-74.11c-20.16,0-36.55,16.4-36.55,36.55s16.4,36.55,36.55,36.55,36.55-16.4,36.55-36.55-16.4-36.55-36.55-36.55Z" style="fill: #0137bb;"/>
    <path d="m840.69,314.05c-20.71,0-37.55-16.85-37.55-37.55s16.85-37.55,37.55-37.55,37.55,16.85,37.55,37.55-16.85,37.55-37.55,37.55Zm0-74.11c-20.16,0-36.55,16.4-36.55,36.55s16.4,36.55,36.55,36.55,36.55-16.4,36.55-36.55-16.4-36.55-36.55-36.55Z" style="fill: #0137bb;"/>
    <path d="m944.94,312.79c-20.71,0-37.55-16.85-37.55-37.55s16.85-37.55,37.55-37.55,37.55,16.85,37.55,37.55-16.85,37.55-37.55,37.55Zm0-74.11c-20.16,0-36.55,16.4-36.55,36.55s16.4,36.55,36.55,36.55,36.55-16.4,36.55-36.55-16.4-36.55-36.55-36.55Z" style="fill: #0137bb;"/>
    <path d="m1047.94,312.79c-20.71,0-37.55-16.85-37.55-37.55s16.85-37.55,37.55-37.55,37.55,16.85,37.55,37.55-16.85,37.55-37.55,37.55Zm0-74.11c-20.16,0-36.55,16.4-36.55,36.55s16.4,36.55,36.55,36.55,36.55-16.4,36.55-36.55-16.4-36.55-36.55-36.55Z" style="fill: #0137bb;"/>
    <path d="m1149.68,312.79c-20.71,0-37.55-16.85-37.55-37.55s16.85-37.55,37.55-37.55,37.55,16.85,37.55,37.55-16.85,37.55-37.55,37.55Zm0-74.11c-20.16,0-36.55,16.4-36.55,36.55s16.4,36.55,36.55,36.55,36.55-16.4,36.55-36.55-16.4-36.55-36.55-36.55Z" style="fill: #0137bb;"/>
    <path d="m1252.67,307.77c-20.71,0-37.55-16.85-37.55-37.55s16.85-37.55,37.55-37.55,37.55,16.85,37.55,37.55-16.85,37.55-37.55,37.55Zm0-74.11c-20.16,0-36.55,16.4-36.55,36.55s16.4,36.55,36.55,36.55,36.55-16.4,36.55-36.55-16.4-36.55-36.55-36.55Z" style="fill: #0137bb;"/>
    <path d="m1355.67,307.77c-20.71,0-37.55-16.85-37.55-37.55s16.85-37.55,37.55-37.55,37.55,16.85,37.55,37.55-16.85,37.55-37.55,37.55Zm0-74.11c-20.16,0-36.55,16.4-36.55,36.55s16.4,36.55,36.55,36.55,36.55-16.4,36.55-36.55-16.4-36.55-36.55-36.55Z" style="fill: #0137bb;"/>
  </g>
  <g>
    <g>
      <polyline points="399.82 385.77 399.82 385.77 1495.09 380.74 1495.09 380.74" style="fill: #0137bb;"/>
      <polygon points="1495.09 380.16 1495.09 356.6 1515.5 368.38 1535.91 380.16 1515.5 391.95 1495.09 403.73 1495.09 380.16" style="fill: #0137bb; fill-rule: evenodd;"/>
      <polygon points="399.82 386.25 399.82 409.82 379.41 398.03 359 386.25 379.41 374.47 399.82 362.68 399.82 386.25" style="fill: #0137bb; fill-rule: evenodd;"/>
    </g>
    <path d="m549.92,423.95c-20.71,0-37.55-16.85-37.55-37.55s16.85-37.55,37.55-37.55,37.55,16.85,37.55,37.55-16.85,37.55-37.55,37.55Zm0-74.11c-20.16,0-36.55,16.4-36.55,36.55s16.4,36.55,36.55,36.55,36.55-16.4,36.55-36.55-16.4-36.55-36.55-36.55Z" style="fill: #0137bb;"/>
    <path d="m647.26,424.58c-20.71,0-37.55-16.85-37.55-37.55s16.85-37.55,37.55-37.55,37.55,16.85,37.55,37.55-16.85,37.55-37.55,37.55Zm0-74.11c-20.16,0-36.55,16.4-36.55,36.55s16.4,36.55,36.55,36.55,36.55-16.4,36.55-36.55-16.4-36.55-36.55-36.55Z" style="fill: #0137bb;"/>
    <circle cx="743.98" cy="387.03" r="37.05" style="fill: #0137bb;"/>
    <path d="m843.2,424.58c-20.71,0-37.55-16.85-37.55-37.55s16.85-37.55,37.55-37.55,37.55,16.85,37.55,37.55-16.85,37.55-37.55,37.55Zm0-74.11c-20.16,0-36.55,16.4-36.55,36.55s16.4,36.55,36.55,36.55,36.55-16.4,36.55-36.55-16.4-36.55-36.55-36.55Z" style="fill: #0137bb;"/>
    <path d="m947.45,423.32c-20.71,0-37.55-16.85-37.55-37.55s16.85-37.55,37.55-37.55,37.55,16.85,37.55,37.55-16.85,37.55-37.55,37.55Zm0-74.11c-20.16,0-36.55,16.4-36.55,36.55s16.4,36.55,36.55,36.55,36.55-16.4,36.55-36.55-16.4-36.55-36.55-36.55Z" style="fill: #0137bb;"/>
    <path d="m1050.45,423.32c-20.71,0-37.55-16.85-37.55-37.55s16.85-37.55,37.55-37.55,37.55,16.85,37.55,37.55-16.85,37.55-37.55,37.55Zm0-74.11c-20.16,0-36.55,16.4-36.55,36.55s16.4,36.55,36.55,36.55,36.55-16.4,36.55-36.55-16.4-36.55-36.55-36.55Z" style="fill: #0137bb;"/>
    <path d="m1152.19,423.32c-20.71,0-37.55-16.85-37.55-37.55s16.85-37.55,37.55-37.55,37.55,16.85,37.55,37.55-16.85,37.55-37.55,37.55Zm0-74.11c-20.16,0-36.55,16.4-36.55,36.55s16.4,36.55,36.55,36.55,36.55-16.4,36.55-36.55-16.4-36.55-36.55-36.55Z" style="fill: #0137bb;"/>
    <path d="m1255.18,418.3c-20.71,0-37.55-16.85-37.55-37.55s16.85-37.55,37.55-37.55,37.55,16.85,37.55,37.55-16.85,37.55-37.55,37.55Zm0-74.11c-20.16,0-36.55,16.4-36.55,36.55s16.4,36.55,36.55,36.55,36.55-16.4,36.55-36.55-16.4-36.55-36.55-36.55Z" style="fill: #0137bb;"/>
    <path d="m1358.18,418.3c-20.71,0-37.55-16.85-37.55-37.55s16.85-37.55,37.55-37.55,37.55,16.85,37.55,37.55-16.85,37.55-37.55,37.55Zm0-74.11c-20.16,0-36.55,16.4-36.55,36.55s16.4,36.55,36.55,36.55,36.55-16.4,36.55-36.55-16.4-36.55-36.55-36.55Z" style="fill: #0137bb;"/>
  </g>
</svg>