<?xml version="1.0" encoding="UTF-8"?>
<svg id="Layer_1" data-name="Layer 1" xmlns="http://www.w3.org/2000/svg" viewBox="0 0 1920 1080">
  <g>
    <g>
      <polyline points="680.5 320.5 680.5 320.5 1552.5 316.5 1552.5 316.5" style="fill: none; stroke: #f2ce6e; stroke-miterlimit: 10;"/>
      <polygon points="1552.5 316.04 1552.5 297.27 1568.75 306.66 1585 316.04 1568.75 325.42 1552.5 334.8 1552.5 316.04" style="fill: none; fill-rule: evenodd; stroke: #f2ce6e; stroke-miterlimit: 10;"/>
      <polygon points="680.5 320.88 680.5 339.65 664.25 330.26 648 320.88 664.25 311.5 680.5 302.12 680.5 320.88" style="fill: none; fill-rule: evenodd; stroke: #f2ce6e; stroke-miterlimit: 10;"/>
    </g>
    <circle cx="800" cy="321" r="29.5" style="fill: none; stroke: #f2ce6e; stroke-miterlimit: 10;"/>
    <circle cx="877.5" cy="321.5" r="29.5" style="fill: none; stroke: #f2ce6e; stroke-miterlimit: 10;"/>
    <circle cx="954.5" cy="321.5" r="29.5" style="fill: none; stroke: #f2ce6e; stroke-miterlimit: 10;"/>
    <circle cx="1033.5" cy="321.5" r="29.5" style="fill: #f2ce6e;"/>
    <circle cx="1116.5" cy="320.5" r="29.5" style="fill: none; stroke: #f2ce6e; stroke-miterlimit: 10;"/>
    <circle cx="1198.5" cy="320.5" r="29.5" style="fill: none; stroke: #f2ce6e; stroke-miterlimit: 10;"/>
    <circle cx="1279.5" cy="320.5" r="29.5" style="fill: none; stroke: #f2ce6e; stroke-miterlimit: 10;"/>
    <circle cx="1361.5" cy="316.5" r="29.5" style="fill: none; stroke: #f2ce6e; stroke-miterlimit: 10;"/>
    <circle cx="1443.5" cy="316.5" r="29.5" style="fill: none; stroke: #f2ce6e; stroke-miterlimit: 10;"/>
  </g>
  <g>
    <g>
      <polyline points="680.4 411.8 680.4 411.8 1552.4 407.8 1552.4 407.8" style="fill: none; stroke: #f2ce6e; stroke-miterlimit: 10;"/>
      <polygon points="1552.4 407.34 1552.4 388.57 1568.65 397.95 1584.9 407.34 1568.65 416.72 1552.4 426.1 1552.4 407.34" style="fill: none; fill-rule: evenodd; stroke: #f2ce6e; stroke-miterlimit: 10;"/>
      <polygon points="680.4 412.18 680.4 430.94 664.15 421.56 647.9 412.18 664.15 402.8 680.4 393.42 680.4 412.18" style="fill: none; fill-rule: evenodd; stroke: #f2ce6e; stroke-miterlimit: 10;"/>
    </g>
    <circle cx="799.9" cy="412.3" r="29.5" style="fill: none; stroke: #f2ce6e; stroke-miterlimit: 10;"/>
    <circle cx="877.4" cy="412.8" r="29.5" style="fill: none; stroke: #f2ce6e; stroke-miterlimit: 10;"/>
    <circle cx="954.4" cy="412.8" r="29.5" style="fill: #f2ce6e;"/>
    <circle cx="1033.4" cy="412.8" r="29.5" style="fill: none; stroke: #f2ce6e; stroke-miterlimit: 10;"/>
    <circle cx="1116.4" cy="411.8" r="29.5" style="fill: none; stroke: #f2ce6e; stroke-miterlimit: 10;"/>
    <circle cx="1198.4" cy="411.8" r="29.5" style="fill: none; stroke: #f2ce6e; stroke-miterlimit: 10;"/>
    <circle cx="1279.4" cy="411.8" r="29.5" style="fill: none; stroke: #f2ce6e; stroke-miterlimit: 10;"/>
    <circle cx="1361.4" cy="407.8" r="29.5" style="fill: none; stroke: #f2ce6e; stroke-miterlimit: 10;"/>
    <circle cx="1443.4" cy="407.8" r="29.5" style="fill: none; stroke: #f2ce6e; stroke-miterlimit: 10;"/>
  </g>
  <g>
    <g>
      <polyline points="680.4 502.8 680.4 502.8 1552.4 498.8 1552.4 498.8" style="fill: none; stroke: #f2ce6e; stroke-miterlimit: 10;"/>
      <polygon points="1552.4 498.34 1552.4 479.57 1568.65 488.95 1584.9 498.34 1568.65 507.72 1552.4 517.1 1552.4 498.34" style="fill: none; fill-rule: evenodd; stroke: #f2ce6e; stroke-miterlimit: 10;"/>
      <polygon points="680.4 503.18 680.4 521.94 664.15 512.56 647.9 503.18 664.15 493.8 680.4 484.42 680.4 503.18" style="fill: none; fill-rule: evenodd; stroke: #f2ce6e; stroke-miterlimit: 10;"/>
    </g>
    <circle cx="799.9" cy="503.3" r="29.5" style="fill: #f2ce6e;"/>
    <circle cx="877.4" cy="503.8" r="29.5" style="fill: none; stroke: #f2ce6e; stroke-miterlimit: 10;"/>
    <circle cx="954.4" cy="503.8" r="29.5" style="fill: none; stroke: #f2ce6e; stroke-miterlimit: 10;"/>
    <circle cx="1033.4" cy="503.8" r="29.5" style="fill: none; stroke: #f2ce6e; stroke-miterlimit: 10;"/>
    <circle cx="1116.4" cy="502.8" r="29.5" style="fill: none; stroke: #f2ce6e; stroke-miterlimit: 10;"/>
    <circle cx="1198.4" cy="502.8" r="29.5" style="fill: none; stroke: #f2ce6e; stroke-miterlimit: 10;"/>
    <circle cx="1279.4" cy="502.8" r="29.5" style="fill: none; stroke: #f2ce6e; stroke-miterlimit: 10;"/>
    <circle cx="1361.4" cy="498.8" r="29.5" style="fill: none; stroke: #f2ce6e; stroke-miterlimit: 10;"/>
    <circle cx="1443.4" cy="498.8" r="29.5" style="fill: none; stroke: #f2ce6e; stroke-miterlimit: 10;"/>
  </g>
  <text transform="translate(415.66 316.87)" style="fill: #2b9f94; font-family: FredokaOne-Regular, &apos;Fredoka One&apos;; font-size: 23.46px;"><tspan x="0" y="0" style="letter-spacing: -.04em;">K</tspan><tspan x="14.05" y="0" style="letter-spacing: 0em;">odnings amatør</tspan></text>
  <text transform="translate(1622.92 320.18)" style="fill: #2b9f94; font-family: FredokaOne-Regular, &apos;Fredoka One&apos;; font-size: 23.46px;"><tspan x="0" y="0" style="letter-spacing: -.04em;">K</tspan><tspan x="14.05" y="0" style="letter-spacing: 0em;">odnings ekspert</tspan></text>
  <text transform="translate(392.98 413.18)" style="fill: #2b9f94; font-family: FredokaOne-Regular, &apos;Fredoka One&apos;; font-size: 23.46px;"><tspan x="0" y="0">Illu</tspan><tspan x="34.93" y="0" style="letter-spacing: -.02em;">s</tspan><tspan x="46.03" y="0">t</tspan><tspan x="56.56" y="0" style="letter-spacing: -.03em;">r</tspan><tspan x="66.58" y="0">ator n</tspan><tspan x="136.04" y="0" style="letter-spacing: -.03em;">e</tspan><tspan x="148.77" y="0">wbee</tspan></text>
  <text transform="translate(1620.98 401.18)" style="fill: #2b9f94; font-family: FredokaOne-Regular, &apos;Fredoka One&apos;; font-size: 23.46px;"><tspan x="0" y="0">Illu</tspan><tspan x="34.93" y="0" style="letter-spacing: -.02em;">s</tspan><tspan x="46.03" y="0">t</tspan><tspan x="56.56" y="0" style="letter-spacing: -.03em;">r</tspan><tspan x="66.58" y="0">ator mae</tspan><tspan x="169.21" y="0" style="letter-spacing: -.02em;">s</tspan><tspan x="180.3" y="0">t</tspan><tspan x="190.84" y="0" style="letter-spacing: -.03em;">r</tspan><tspan x="200.85" y="0">o</tspan></text>
  <text transform="translate(364.13 509.18)" style="fill: #2b9f94; font-family: FredokaOne-Regular, &apos;Fredoka One&apos;; font-size: 23.46px;"><tspan x="0" y="0">Ph</tspan><tspan x="29.02" y="0" style="letter-spacing: -.02em;">o</tspan><tspan x="42.74" y="0" style="letter-spacing: 0em;">toshop be</tspan><tspan x="154.01" y="0" style="letter-spacing: 0em;">g</tspan><tspan x="167.54" y="0" style="letter-spacing: 0em;">y</tspan><tspan x="181.48" y="0">nder</tspan></text>
  <text transform="translate(1624.37 499.18)" style="fill: #2b9f94; font-family: FredokaOne-Regular, &apos;Fredoka One&apos;; font-size: 23.46px;"><tspan x="0" y="0">Ph</tspan><tspan x="29.02" y="0" style="letter-spacing: -.02em;">o</tspan><tspan x="42.74" y="0" style="letter-spacing: 0em;">toshop u</tspan><tspan x="140.89" y="0" style="letter-spacing: 0em;">d</tspan><tspan x="154.69" y="0">vik</tspan><tspan x="188.21" y="0" style="letter-spacing: 0em;">l</tspan><tspan x="195.65" y="0">er</tspan></text>
  <g>
    <g>
      <polyline points="680.38 593.8 680.38 593.8 1552.38 589.8 1552.38 589.8" style="fill: none; stroke: #f2ce6e; stroke-miterlimit: 10;"/>
      <polygon points="1552.38 589.34 1552.38 570.57 1568.63 579.95 1584.88 589.34 1568.63 598.72 1552.38 608.1 1552.38 589.34" style="fill: none; fill-rule: evenodd; stroke: #f2ce6e; stroke-miterlimit: 10;"/>
      <polygon points="680.38 594.18 680.38 612.94 664.13 603.56 647.88 594.18 664.13 584.8 680.38 575.42 680.38 594.18" style="fill: none; fill-rule: evenodd; stroke: #f2ce6e; stroke-miterlimit: 10;"/>
    </g>
    <circle cx="799.88" cy="594.3" r="29.5" style="fill: none; stroke: #f2ce6e; stroke-miterlimit: 10;"/>
    <circle cx="877.38" cy="594.8" r="29.5" style="fill: none; stroke: #f2ce6e; stroke-miterlimit: 10;"/>
    <circle cx="954.38" cy="594.8" r="29.5" style="fill: none; stroke: #f2ce6e; stroke-miterlimit: 10;"/>
    <circle cx="1033.38" cy="594.8" r="29.5" style="fill: none; stroke: #f2ce6e; stroke-miterlimit: 10;"/>
    <circle cx="1116.38" cy="593.8" r="29.5" style="fill: #f2ce6e;"/>
    <circle cx="1198.38" cy="593.8" r="29.5" style="fill: none; stroke: #f2ce6e; stroke-miterlimit: 10;"/>
    <circle cx="1279.38" cy="593.8" r="29.5" style="fill: none; stroke: #f2ce6e; stroke-miterlimit: 10;"/>
    <circle cx="1361.38" cy="589.8" r="29.5" style="fill: none; stroke: #f2ce6e; stroke-miterlimit: 10;"/>
    <circle cx="1443.38" cy="589.8" r="29.5" style="fill: none; stroke: #f2ce6e; stroke-miterlimit: 10;"/>
  </g>
  <text transform="translate(436.37 600.18)" style="fill: #2b9f94; font-family: FredokaOne-Regular, &apos;Fredoka One&apos;; font-size: 23.46px;"><tspan x="0" y="0">XD </tspan><tspan x="39.83" y="0" style="letter-spacing: -.03em;">n</tspan><tspan x="53.35" y="0" style="letter-spacing: -.02em;">y</tspan><tspan x="67.05" y="0" style="letter-spacing: -.02em;">s</tspan><tspan x="78.14" y="0" style="letter-spacing: 0em;">tar</tspan><tspan x="113.38" y="0" style="letter-spacing: -.02em;">t</tspan><tspan x="123.44" y="0">er</tspan></text>
  <text transform="translate(1622.35 592.18)" style="fill: #2b9f94; font-family: FredokaOne-Regular, &apos;Fredoka One&apos;; font-size: 23.46px;"><tspan x="0" y="0">XD speciali</tspan><tspan x="124.14" y="0" style="letter-spacing: -.02em;">s</tspan><tspan x="135.24" y="0">t</tspan></text>
</svg>