<?xml version="1.0" encoding="UTF-8"?>
<svg id="Layer_2" data-name="Layer 2" xmlns="http://www.w3.org/2000/svg" viewBox="0 0 1920 1148">
  <defs>
    <style>
      .cls-1 {
        fill: #e49eb9;
      }

      .cls-2 {
        fill: #2b9f94;
      }

      .cls-3 {
        fill: #f2ce6e;
      }

      .cls-4 {
        fill: #e8e0dd;
      }

      .cls-5 {
        fill: #eddebc;
      }

      .cls-6 {
        fill: #a63c58;
      }

      .cls-7 {
        fill: #e9d6dc;
      }

      .cls-8 {
        fill: #aac6dc;
      }
    </style>
  </defs>
  <g>
    <g>
      <rect class="cls-4" x="-44.5" y="-16.47" width="1963.99" height="1163.94"/>
      <path d="M1918.99-15.94V1146.94H-43.99V-15.94H1918.99m1.01-1.06H-45V1148H1920V-17h0Z"/>
    </g>
    <path class="cls-3" d="M-33.02,1029.97c167.96,31.71,91.35-194.38,123.09-264.24,56.59-124.58,13.29-204.19,66.67-292.43,41.95-69.35,85.51-47.98,202.58-114.5,135.05-76.74,112.46-125.28,207.71-170.88,156.23-74.79,241.17,44.21,393.62-56.37,42.85-28.27,184.48-82.09,183.35-116.27-4.79-145.07-926.47-446.35-1196.24,24.66-166.51,290.72-76.53,971.95,19.23,990.02Z"/>
    <path class="cls-7" d="M1942.54,265.6c-153.59-30.59-88.55,157.95-119.37,214.74-54.95,101.28-17.05,168.1-68.19,239.48-40.19,56.1-79.72,37.33-188.87,89.12-125.92,59.75-106.31,100.38-194.92,135.49-145.34,57.58-220.58-42.84-363.05,36.12-40.04,22.19-171.47,62.85-171.24,91.08,.97,119.81,840.8,392.66,1099.86,11.21,159.89-235.44,93.35-799.8,5.77-817.24Z"/>
    <path class="cls-4" d="M1584.6,1342.03c-60.7,0-111.81-20.62-146.17-59.59-40.58-46.01-52.88-112-34.61-185.79,18.18-73.47,64.51-145.96,130.45-204.11,65.94-58.16,143.65-95.07,218.81-103.93,75.5-8.9,139.43,11.54,180.01,57.55,40.58,46.01,52.88,112,34.61,185.79-18.18,73.47-64.51,145.96-130.45,204.12-65.94,58.16-143.65,95.07-218.81,103.93-11.56,1.36-22.86,2.04-33.84,2.04Zm202.29-550.46c-10.78,0-21.87,.66-33.23,2-74.16,8.74-150.9,45.22-216.09,102.71-134.31,118.46-177.1,290.21-95.39,382.85,81.71,92.64,257.46,71.64,391.77-46.82,65.19-57.49,110.96-129.08,128.9-201.57,17.86-72.16,5.96-136.54-33.51-181.29-33.39-37.86-83.2-57.9-142.45-57.9Z"/>
    <circle class="cls-8" cx="220" cy="410" r="25"/>
    <path class="cls-7" d="M131.56,345.18c-60.57,0-111.57-20.58-145.87-59.46-40.5-45.92-52.76-111.76-34.54-185.4C-30.7,27.01,15.53-45.33,81.33-103.36c65.8-58.04,143.34-94.87,218.35-103.71,75.34-8.88,139.14,11.51,179.63,57.43,40.5,45.92,52.76,111.76,34.54,185.4-18.14,73.31-64.37,145.65-130.17,203.68-65.8,58.04-143.34,94.87-218.35,103.71-11.54,1.36-22.81,2.03-33.77,2.03ZM333.11-203.99c-79.16,0-170.77,35.84-248.48,104.38C19.59-42.24-26.09,29.19-43.99,101.52c-17.82,72-5.94,136.24,33.44,180.89,39.38,44.65,101.63,64.46,175.3,55.77,74-8.72,150.58-45.12,215.62-102.49,134.02-118.2,176.72-289.58,95.19-382.02-34.26-38.84-85.08-57.66-142.44-57.66Z"/>
    <path class="cls-1" d="M2019.91,377.33c-153.59-30.59-88.55,157.95-119.37,214.74-54.95,101.28-17.05,168.1-68.19,239.48-40.19,56.1-79.72,37.33-188.87,89.12-125.92,59.75-106.31,100.38-194.92,135.49-145.34,57.58-220.58-42.84-363.05,36.12-40.04,22.19-171.47,62.85-171.24,91.08,.97,119.81,840.8,392.66,1099.86,11.21,159.89-235.44,93.35-799.8,5.77-817.24Z"/>
    <circle class="cls-8" cx="1810" cy="868" r="25"/>
    <circle class="cls-6" cx="1456" cy="986" r="42"/>
    <path class="cls-5" d="M-123.16,883.05C44.8,914.76-31.8,688.67-.07,618.81c56.59-124.58,13.29-204.19,66.67-292.43,41.95-69.35,85.51-47.98,202.58-114.5,135.05-76.74,112.46-125.28,207.71-170.88,156.23-74.79,241.17,44.21,393.62-56.37,42.85-28.27,184.48-82.09,183.35-116.27-4.79-145.07-926.47-446.35-1196.24,24.66-166.51,290.72-76.53,971.95,19.23,990.02Z"/>
    <circle class="cls-2" cx="510.5" cy=".5" r="109.5"/>
  </g>
  <g>
    <path class="cls-2" d="M743.24,349.58v-83.32c0-2.41,2-3.62,6.01-3.62,3.79,0,5.68,1.85,5.68,5.55,11.15-3.79,21.92-5.68,32.32-5.68,14.72,0,25.55,2.8,32.48,8.4,6.93,5.6,10.39,12.66,10.39,21.18,0,9.65-4.71,16.58-14.13,20.8-9.42,4.22-23.12,6.33-41.08,6.33-2.17,0-5.44-.13-9.82-.39s-7.66-.39-9.83-.39v31.13c0,1.12-.57,1.98-1.71,2.58-1.14,.6-2.52,.9-4.14,.9-4.12,0-6.17-1.16-6.17-3.49Zm12.02-42.24c4.44,1.12,13.37,1.68,26.79,1.68,10.82,0,19.54-1.53,26.15-4.59,6.6-3.06,9.91-7.64,9.91-13.76,0-5.25-2.65-9.67-7.96-13.24-5.31-3.57-13.48-5.36-24.52-5.36-9.53,0-19.65,2.28-30.37,6.85v28.42Z"/>
    <path class="cls-2" d="M852.53,324.97c0-13.18,4.63-24.15,13.88-32.94,9.26-8.78,20.27-13.18,33.05-13.18s23.57,4.5,32.4,13.5c8.82,9,13.23,19.74,13.23,32.23,0,13.78-4.3,24.87-12.91,33.26-8.61,8.4-19.52,12.64-32.72,12.72-12.78,0-23.79-4.26-33.05-12.79-9.26-8.53-13.88-19.46-13.88-32.81Zm12.02,.13c0,9.82,3.44,18.26,10.31,25.32,6.87,7.06,15.07,10.59,24.6,10.59s17.38-3.55,23.87-10.66c6.5-7.1,9.74-15.61,9.74-25.51s-3.28-17.91-9.82-25.32c-6.55-7.41-14.48-11.11-23.79-11.11s-17.73,3.75-24.6,11.24c-6.88,7.49-10.31,15.97-10.31,25.45Z"/>
    <path class="cls-2" d="M981.79,380.99v-83.32c0-2.41,2-3.62,6.01-3.62,3.79,0,5.68,1.85,5.68,5.55,11.15-3.79,21.92-5.68,32.32-5.68,14.72,0,25.55,2.8,32.48,8.4,6.93,5.6,10.39,12.66,10.39,21.18,0,12.06-7.85,20.07-23.55,24.03l27.12,31.13c.65,.95,.97,1.77,.97,2.45,0,1.03-.52,1.85-1.54,2.45-1.03,.6-2.35,.9-3.98,.9-3.36,0-6.01-1.08-7.96-3.23l-26.96-31.52c-5.42,.6-11.85,.9-19.33,.9-2.17,0-5.44-.13-9.82-.39s-7.66-.39-9.83-.39v31.13c0,1.12-.57,1.98-1.71,2.58-1.14,.6-2.52,.9-4.14,.9-4.12,0-6.17-1.16-6.17-3.49Zm12.02-42.24c4.44,1.12,13.37,1.68,26.79,1.68,10.82,0,19.54-1.53,26.15-4.59,6.6-3.06,9.91-7.64,9.91-13.76,0-5.25-2.65-9.67-7.96-13.24-5.31-3.57-13.48-5.36-24.52-5.36-9.53,0-19.65,2.28-30.37,6.85v28.42Z"/>
    <path class="cls-2" d="M1029.53,425.09c0-1.29,.38-2.39,1.14-3.29,.76-.9,1.84-1.36,3.25-1.36h80.22c1.41,0,2.52,.47,3.33,1.42,.81,.95,1.22,2.07,1.22,3.36,0,3.19-1.52,4.78-4.55,4.78h-35.08v77.25c0,1.12-.6,2-1.79,2.65-1.19,.65-2.6,.97-4.22,.97-4.01,0-6.01-1.21-6.01-3.62v-77.25h-33.13c-2.92,0-4.38-1.63-4.38-4.91Z"/>
    <path class="cls-2" d="M1039.76,640.52v-80.34c0-4.22,1.41-6.33,4.22-6.33h83.47c1.41,0,2.52,.47,3.33,1.42,.81,.95,1.22,2.07,1.22,3.36,0,3.19-1.52,4.78-4.55,4.78h-75.67v25.32h61.06c1.41,0,2.52,.47,3.33,1.42,.81,.95,1.22,2.07,1.22,3.36,0,3.19-1.52,4.78-4.55,4.78h-61.06v42.24c0,1.12-.62,2-1.87,2.65-1.25,.65-2.68,.97-4.3,.97-3.9,0-5.85-1.21-5.85-3.62Z"/>
    <path class="cls-2" d="M1150.84,600.71c0-13.18,4.63-24.15,13.88-32.94,9.26-8.78,20.27-13.17,33.05-13.17s23.57,4.5,32.4,13.5c8.82,9,13.23,19.74,13.23,32.23,0,13.78-4.3,24.87-12.91,33.26-8.61,8.4-19.52,12.64-32.72,12.72-12.78,0-23.79-4.26-33.05-12.79-9.26-8.53-13.88-19.46-13.88-32.81Zm12.02,.13c0,9.82,3.44,18.26,10.31,25.32,6.87,7.06,15.07,10.59,24.6,10.59s17.38-3.55,23.87-10.66c6.5-7.1,9.74-15.61,9.74-25.51s-3.28-17.91-9.82-25.32c-6.55-7.4-14.48-11.11-23.79-11.11s-17.73,3.75-24.6,11.24c-6.88,7.49-10.31,15.97-10.31,25.45Z"/>
    <path class="cls-2" d="M1261.92,648.18v-83.32c0-2.32,2.06-3.49,6.17-3.49,1.62,0,3,.3,4.14,.9,1.14,.6,1.71,1.47,1.71,2.58v77.5h53.26c1.41,0,2.52,.47,3.33,1.42,.81,.95,1.22,2.07,1.22,3.36,0,3.1-1.52,4.65-4.55,4.65h-55.86c-6.28,0-9.42-1.21-9.42-3.62Z"/>
    <path class="cls-2" d="M1363.41,692.6v-83.32c0-2.33,2.06-3.49,6.17-3.49,1.62,0,3,.3,4.14,.9,1.14,.6,1.71,1.47,1.71,2.58v83.32c0,1.12-.6,2-1.79,2.65-1.19,.65-2.6,.97-4.22,.97-4.01,0-6.01-1.21-6.01-3.62Z"/>
    <path class="cls-2" d="M1404.17,697.23c0-13.18,4.63-24.16,13.88-32.94,9.26-8.78,20.27-13.18,33.05-13.18s23.57,4.5,32.4,13.5c8.82,9,13.23,19.74,13.23,32.23,0,13.78-4.3,24.87-12.91,33.26-8.61,8.4-19.52,12.64-32.72,12.72-12.78,0-23.79-4.26-33.05-12.79-9.26-8.53-13.88-19.46-13.88-32.81Zm12.02,.13c0,9.82,3.44,18.26,10.31,25.32,6.87,7.06,15.07,10.59,24.6,10.59s17.38-3.55,23.87-10.66c6.5-7.1,9.74-15.61,9.74-25.51s-3.28-17.91-9.82-25.32c-6.55-7.41-14.48-11.11-23.79-11.11s-17.73,3.75-24.6,11.24c-6.88,7.49-10.31,15.97-10.31,25.45Z"/>
  </g>
</svg>