<?xml version="1.0" encoding="UTF-8"?>
<svg id="Layer_1" data-name="Layer 1" xmlns="http://www.w3.org/2000/svg" viewBox="0 0 210 230">
  <defs>
    <style>
      .cls-1 {
        fill: #f7931e;
      }

      .cls-2 {
        fill: #f2a922;
      }

      .cls-3 {
        fill: #fff;
        opacity: .29;
      }

      .cls-4 {
        fill: #fbb03b;
      }
    </style>
  </defs>
  <polygon class="cls-3" points="942 546 114.5 565 398.76 -163.5 571.75 -163.5 942 546"/>
  <g>
    <polygon class="cls-1" points="33.5 87.75 68.5 47.75 131.5 29.75 159.5 47.75 176.5 154.75 120.5 196.75 115.5 199.75 47.5 160.75 33.5 87.75"/>
    <polygon class="cls-4" points="144 67.25 91 41.25 131 30.25 160.85 47.89 144 67.25"/>
    <polygon class="cls-2" points="176 155.25 140 182.25 144.4 66.53 160 48.25 176 155.25"/>
    <polygon class="cls-2" points="140.5 180.75 115 200.25 64.5 169.75 141.5 142.75 140.5 180.75"/>
    <g>
      <path d="M94,83.25c1.25,.6,3.5,27.5-13.5,27-17.06-.5-15.56-14.53-15.5-19,.03-2.49,1.91,17.44,18.5,14.5,6.18-1.09,9.6-22.93,10.5-22.5Z"/>
      <ellipse cx="68" cy="76.75" rx="3.5" ry="6"/>
      <ellipse cx="93" cy="73.75" rx="3.5" ry="6"/>
      <path d="M77.7,88.84c-.15,0-.31-.03-.46-.1-.41-.19-.65-.61-.62-1.06l.38-4.97,1,.08-.38,4.97,.48,.42-.35-.36,5.51-5.42,.7,.71-5.51,5.42c-.21,.2-.48,.31-.75,.31Z"/>
      <path d="M99.5,61.75c0-.55-2.69-2-6-2s-5,1.45-5,2,1.69,0,5,0,6,.55,6,0Z"/>
      <path d="M62.5,70.75c.29,.47,3.24-2.12,6.53-4.15s5.76-3.38,5.47-3.85-2.46-.56-6,1c-3.57,1.57-6.53,6.14-6,7Z"/>
    </g>
  </g>
</svg>