<?xml version="1.0" encoding="UTF-8"?>
<svg id="Layer_1" data-name="Layer 1" xmlns="http://www.w3.org/2000/svg" xmlns:xlink="http://www.w3.org/1999/xlink" viewBox="0 0 210 230">
  <defs>
    <style>
      .cls-1 {
        fill: #fff;
      }

      .cls-2 {
        fill: #e7abcd;
      }

      .cls-3 {
        fill: #ccc;
        opacity: .49;
      }

      .cls-4 {
        fill: url(#linear-gradient);
      }

      .cls-5 {
        fill: #666;
      }
    </style>
    <linearGradient id="linear-gradient" x1="3.14" y1="109.95" x2="138.71" y2="116.46" gradientUnits="userSpaceOnUse">
      <stop offset="0" stop-color="#000"/>
      <stop offset=".14" stop-color="#000"/>
      <stop offset="1" stop-color="#000"/>
    </linearGradient>
  </defs>
  <path class="cls-4" d="M45.79,43.74c1.39-1.06,6.81-5.03,21-10,8.43-2.95,12.65-4.43,18-5,5.12-.55,10.64-1.14,17,1,7.46,2.5,11.9,7.35,18,14,2.69,2.93,5.92,6.49,9,12,2.59,4.62,6.14,10.71,7,19,.76,7.26-1.21,9.5,1,12,2.53,2.87,6.04,.98,16,3,4.04,.82,7.81,1.63,12,4,6.07,3.44,9.35,8.43,11,11,1.89,2.94,5.79,9.03,6,17,.09,3.5-.56,6.16,1,10,1.15,2.85,2.08,2.79,4,6,3.6,6.01,3.87,12.1,4,15,.2,4.59,.31,6.89-1,9-1.75,2.84-3.84,2.45-11,7-3.17,2.01-5.54,3.86-7,5-5.73,4.48-4.69,4.71-7,6-7.46,4.17-15.59,.7-17,4-.61,1.42,.78,2.46,0,5-.42,1.36-1.26,2.51-3,4-2.58,2.21-4.97,3.34-9,5-7.5,3.09-8.24,3.78-11,4-1.84,.15-2.01-.12-8-1-9.61-1.41-10.35-.9-14-2-1.56-.47-4.4-1.99-10-5-8.24-4.43-12.39-6.67-14-8-4.51-3.72-3.18-4.4-10-11-5.15-4.99-6.24-4.92-8-8-2.06-3.61-3.86-6.76-4-11-.05-1.38,.08-2.95-1-4-1.23-1.2-2.89-.62-5-1-2.98-.54-4.26-2.51-7-5-5.43-4.93-7.06-3.22-11-7-3.39-3.25-4.59-6.83-7-14-.92-2.75-2.24-7.27-3-13-.84-6.33-.06-7.13-1-14-.77-5.62-1.35-5.6-2-11-.74-6.17-1.1-9.25,0-13,.69-2.36,2.46-4.91,6-10,2.92-4.21,4.4-6.33,7-9,2.03-2.08,4.02-3.72,8-7,1.86-1.53,3.93-3.19,5-4Z"/>
  <ellipse class="cls-1" cx="95.99" cy="87.58" rx="12.46" ry="19.75" transform="translate(-11.69 14.85) rotate(-8.34)"/>
  <ellipse cx="92.94" cy="86.9" rx="2.5" ry="6.5" transform="translate(-11.62 14.4) rotate(-8.34)"/>
  <polygon class="cls-5" points="91.29 56.24 86.42 57.08 76.42 74.4 78.15 75.4 91.29 56.24"/>
  <polygon class="cls-5" points="70.13 71.66 70.23 71.46 61.29 67.24 61.34 69.01 62.19 69.46 56.03 67.75 55.23 70.64 73.54 75.72 74.34 72.83 70.13 71.66"/>
  <g>
    <path class="cls-2" d="M63.29,127.24c.14-2.06,2.77-3.38,4-4,3.33-1.68,2.84-.83,6.5-2.5,.55-.25,1,0,5-2,1.98-.99,4.1-.23,4.5-.5,1.06-.7-.23-2.81,1.5-3.5,5-2,4.3-1.82,6-2,2.82-.31,1.91,.11,4.5-.5,.97-.23,.9-.36,3-1,2.16-.66,3.23-.99,4-1,2.64-.04,5.22,2.34,5.5,4.5,.07,.51,.42,.13-.5,2.5-1.41,3.64-1.27,3.9-2,5-.35,.54-.82,1.39-2.5,2.5-.95,.63-2,2-5.5,2.5-2.25,.32-1.83,.47-2.5,.5-1.97,.1-2.36,0-4,0-1.01,0-2,0-5.5,2.5-3.91,2.79-3.73,2.86-4,3-2.43,1.3-1.36,1.03-5.5,2.5-2.37,.84-2.98,.36-4,0-.85-.3-2.41-.34-4.5-2.5-1.31-1.35-1.37-1.23-2-2-.97-1.19-2.1-2.57-2-4Z"/>
    <polygon class="cls-1" points="77.79 126.74 72.79 128.74 72.79 121.74 78.79 118.74 77.79 126.74"/>
    <polygon class="cls-1" points="92.57 112.51 84.1 116.1 88.79 121.74 94.79 118.74 92.57 112.51"/>
    <polygon class="cls-1" points="88.79 123.74 82.79 122.74 82.79 131.74 89.79 127.74 88.79 123.74"/>
  </g>
  <g>
    <ellipse class="cls-1" cx="63.29" cy="94.84" rx="12.46" ry="19.75" transform="translate(-6.73 4.85) rotate(-4.17)"/>
    <ellipse cx="64.29" cy="94.24" rx="2.5" ry="6.5"/>
  </g>
  <path class="cls-3" d="M121.08,52.13c2.77-3.77-23.69-17.89-33.35-17.89s-23.96,4.75-27.66,7.95c-26.03,22.53,13.14-.53,22.78,0,42.78,2.36,33.35,16.56,38.23,9.94Z"/>
  <path class="cls-3" d="M171.61,128.12c3.01-.14-.44-19.04-4.3-23.85-3.86-4.82-11.97-10.03-15.05-10.58-21.75-3.88,5.52,6.34,9.1,11.35,15.89,22.28,4.97,23.32,10.26,23.07Z"/>
</svg>