<?xml version="1.0" encoding="UTF-8"?>
<svg id="Layer_1" data-name="Layer 1" xmlns="http://www.w3.org/2000/svg" viewBox="0 0 1920 380">
  <path d="m1147.33,367.01c7.76-23.76-.35-68.87,31.87-96.24,2.26-1.92,12.6-9.47,35.81-18.48,28.96-11.24,61.59-21.35,77.91-47.78,6.54-10.58,9.73-22.85,12.54-34.97,1.82-7.84,3.51-16.01,1.74-23.86-2.02-8.95-8.4-16.41-15.88-21.71-15.49-10.97-35.64-13.67-54.48-11.35s-36.77,9.22-54.48,16.06c-14.12,5.46-28.6,11.13-39.8,21.32-10.33,9.41-17.11,21.98-25.23,33.36-23.75,33.29-59.88,56.8-99.03,68.59-39.15,11.79-81.18,12.32-121.45,5.23-26.46-4.66-52.31-12.54-78.92-16.2-26.61-3.67-54.8-2.82-78.84,9.17-22.79,11.37-35.33,27.05-55.39,53.16-27.57,35.88-43.22,56.24-40.72,72.36,12.26,79.22,469.41,98.38,504.35-8.66Z" style="fill: #e9d6dc;"/>
  <path d="m161.38,547.89c5.07-1.75,4.07-5.15,58.97-79.99,13.65-18.61,22.13-29.87,36.91-40.54,18.64-13.46,41.65-19.16,64.15-23.89,92.22-19.37,192.26-29.67,264.54-90.14,15.97-13.36,30.62-29.83,35.52-50.06,7.18-29.71-8.22-60.36-27.68-83.94-22.74-27.57-52.19-50.21-86.09-61.52-33.9-11.31-72.35-10.59-104.33,5.36-18.09,9.02-33.55,22.45-50.38,33.63-39.53,26.27-87.25,40.04-134.7,38.86-28.86-.71-53.16-5.72-77.39-21.41-.15-.1-5-6-157.98-5.9l-245.08-26.22c151.57,4.25,150.9,5.12,151.22,5.94,76.06,195.85,229.13,414.72,272.31,399.82Z" style="fill: #e49eb9;"/>
  <path d="m1939.22,266.91c-1.45-1.34-59.34,36.79-105.67,14.24-30.66-14.93-31.43-38.16-76.1-73.75-17.26-13.75-38.6-21.25-59.82-27.33-22.78-6.52-47.07-11.67-69.95-5.53-25.17,6.76-44.64,26-65.39,41.76-47.42,36.04-106.8,56.06-166.35,56.09-41.69.02-86.95-8.63-122.43,13.26-18.52,11.43-27.95,27.31-31.11,32.54-19.04,31.46-22.91,73.25-13.1,85.11,195.38,236.09,855.75-.92,709.93-136.4Z" style="fill: #0137bb;"/>
  <path d="m1139.53,535.07c-24.24-35.99-26.11-83.88-9-123.21,8.57-19.69,22.03-37.1,39.47-49.7,19.33-13.96,42.33-23.15,59.03-40.59,17.61-18.39,24.54-45.22,27.49-69.85,3.04-25.41.85-51.45-6.25-76.03-6.87-23.75-18.26-47.05-34.75-65.63-7.81-8.8-17.01-16.54-27.58-21.81-11.75-5.86-24.75-8.07-37.8-8.07s-25.76,1.78-38.39,4.04c-11.17,1.99-22.26,4.65-33.01,8.32-20.26,6.93-39.93,17.73-53.3,34.87-27.13,34.78-16.83,81.04-10.61,120.93,3.34,21.39,6.42,43.66,2.2,65.15-2.04,10.37-5.9,20.34-11.79,29.14-7.42,11.1-17.79,19.89-28.95,27.07-46.57,29.97-104.21,39.18-158.58,41.22-60.9,2.29-121.74-4.61-182.63-2.13-25.47,1.04-53.68,2.31-74.68,18.58-17.23,13.35-26.55,33.99-32.52,54.42-3.16,10.81-5.48,21.84-7.63,32.88-.18.94,1.26,1.35,1.45.4,4.32-22.18,9.21-45.12,20.87-64.77,5.77-9.72,13.33-18.4,22.8-24.66,11.35-7.5,24.72-11.04,38.07-12.91,29.63-4.13,60.2-3.35,90.02-2.57,30.55.8,61.07,2.47,91.63,2.69,54.08.39,109.66-4.02,160-25.3,21.87-9.24,44.57-21.47,59.09-40.84,12.41-16.57,16.58-37.03,16.33-57.39-.26-21.15-4.46-42.03-7.64-62.87-3.24-21.2-5.98-43.29-1.54-64.53,4.59-21.97,17.58-40.28,36.17-52.72,18.78-12.57,41.05-19.2,63.09-23.26,26.4-4.87,55.69-8.32,80.08,5.45,21.97,12.41,37.23,34.65,47.76,57.03,11.24,23.9,17.29,50.21,17.88,76.6.58,25.98-3.55,54.15-15.57,77.46-12.04,23.36-34.69,35.39-56.29,48.47-18.21,11.03-34.04,24.08-45.62,42.15-21.77,33.97-27.35,78.46-13.79,116.56,3.29,9.24,7.72,18.03,13.2,26.16.54.8,1.84.05,1.3-.76h0Z"/>
  <path d="m1935.24,448.62c-26.27-7.42-49.98-22.59-68.17-42.9-9.18-10.25-16.94-21.78-22.87-34.21-5.93-12.43-9.55-25.59-12.35-39.03-5.3-25.53-8.21-53.77-25.24-74.74-17.91-22.06-47.19-28.29-73.73-33.19-29.44-5.43-61.8-11.1-90.22,1.6-13.68,6.11-24.99,16.19-36.1,26.01-11.59,10.24-23.57,19.78-36.91,27.67-26.33,15.59-56.08,25.41-86.52,28.57-14.69,1.52-29.49,1.46-44.17-.13s-29.65-4.37-44.51-6.3c-26.92-3.5-56.62-4.5-79.27,12.97-20.8,16.04-29.07,42.54-33.97,67.28-1.27,6.41-2.33,12.85-3.34,19.3-.07.47.65.68.72.2,4.09-26.11,8.94-54.7,26.25-75.71,8.94-10.85,21.05-18.49,34.59-22.2,13.74-3.76,28.21-3.73,42.3-2.5,29.07,2.54,57.46,9.83,86.81,8.84,28.75-.97,57.25-7.9,83.3-20.08,13.4-6.27,26.14-13.93,37.92-22.89,11.98-9.11,22.56-19.92,34.56-29.01,12.9-9.77,27.32-16.08,43.44-18.06s32.17-.3,47.98,2.2c14.48,2.29,29.08,4.8,43.23,8.65,13.91,3.78,27.71,9.28,38.78,18.76,21.31,18.25,26.34,46.94,31.39,73.06,2.57,13.29,5.26,26.62,10.16,39.29,4.64,12,10.96,23.33,18.63,33.65,15.35,20.65,36.11,37.32,59.77,47.49,5.64,2.42,11.42,4.45,17.32,6.12.47.13.66-.59.2-.72h0Z"/>
  <path d="m-24.83,251.58c-6.92-8.68-10.64-19.4-12.51-30.23-3.86-22.32-1.21-45.68-.15-68.15.23-4.83.45-9.68.66-14.54-.51.2-1.03.39-1.54.59-.93,21.1-2.8,42.32-2.2,63.43.56,19.69,4.46,40.7,19.2,54.94,15.14,14.61,37.93,20.55,57.84,25.27,20.82,4.94,42.21,7.49,63.61,7.73,42.83.49,85.76-8.28,124.93-25.62,20-8.85,38.93-19.98,56.37-33.17,19.34-14.63,37.34-31.26,59.22-42.16,22.99-11.45,48.52-18.02,73.06-25.27,25.27-7.47,50.9-14.19,77.08-17.55,12.81-1.64,25.73-2.47,38.65-2.17,6.84.16,14.12.24,19.16,5.58,4.07,4.31,6.44,10.29,8.39,15.79,8.11,22.91,6.04,48.45-5.32,69.87-22.4,42.25-69.18,61.4-109.84,81.28-41.49,20.28-78.89,47.07-109.79,81.55-7.25,8.09-14.09,16.54-20.54,25.28-.57.78.73,1.53,1.3.76,27.97-37.89,63.79-69.84,104.7-93.18,41.06-23.42,89.23-37.64,121.18-74.37,14.09-16.2,23.55-36.01,24.65-57.66.6-11.69-1.12-23.52-5.1-34.52-3.3-9.13-7.88-19.06-18.35-21.1-5.81-1.13-12.03-.89-17.92-.83-6.57.06-13.13.4-19.67.98-12.72,1.12-25.36,3.11-37.87,5.69-25.96,5.34-51.33,13.12-76.63,20.91-24.24,7.46-47.8,15.58-68.77,30.21-19.62,13.69-37.18,30.05-57.43,42.89-37.89,24.03-81.47,38.82-126.04,43.61-43.73,4.7-90.57.47-131.59-16.12-10.87-4.39-21.33-10.43-28.73-19.72Z"/>
  <g>
    <g>
      <circle cx="242.95" cy="376.89" r="10.63" style="fill: #f2ce6e;"/>
      <circle cx="271.81" cy="376.89" r="10.63" style="fill: #f2ce6e;"/>
      <circle cx="212.91" cy="376.89" r="10.63" style="fill: #f2ce6e;"/>
      <circle cx="181.95" cy="376.89" r="10.63" style="fill: #f2ce6e;"/>
      <circle cx="151.91" cy="376.89" r="10.63" style="fill: #f2ce6e;"/>
    </g>
    <g>
      <circle cx="91.44" cy="376.89" r="10.63" style="fill: #f2ce6e;"/>
      <circle cx="120.17" cy="376.89" r="10.63" style="fill: #f2ce6e;"/>
      <circle cx="61.27" cy="376.89" r="10.63" style="fill: #f2ce6e;"/>
      <circle cx="30.44" cy="376.89" r="10.63" style="fill: #f2ce6e;"/>
      <circle cx=".4" cy="376.89" r="10.63" style="fill: #f2ce6e;"/>
    </g>
    <g>
      <circle cx="241.9" cy="347.9" r="10.63" style="fill: #f2ce6e;"/>
      <circle cx="270.76" cy="347.9" r="10.63" style="fill: #f2ce6e;"/>
      <circle cx="211.86" cy="347.9" r="10.63" style="fill: #f2ce6e;"/>
      <circle cx="181.03" cy="347.9" r="10.63" style="fill: #f2ce6e;"/>
      <circle cx="150.99" cy="347.9" r="10.63" style="fill: #f2ce6e;"/>
    </g>
    <g>
      <circle cx="92.36" cy="346.85" r="10.63" style="fill: #f2ce6e;"/>
      <circle cx="121.22" cy="346.85" r="10.63" style="fill: #f2ce6e;"/>
      <circle cx="62.32" cy="346.85" r="10.63" style="fill: #f2ce6e;"/>
      <circle cx="31.49" cy="346.85" r="10.63" style="fill: #f2ce6e;"/>
      <circle cx="1.45" cy="346.85" r="10.63" style="fill: #f2ce6e;"/>
    </g>
    <g>
      <circle cx="240.72" cy="319.04" r="10.63" style="fill: #f2ce6e;"/>
      <circle cx="269.58" cy="319.04" r="10.63" style="fill: #f2ce6e;"/>
      <circle cx="210.68" cy="319.04" r="10.63" style="fill: #f2ce6e;"/>
      <circle cx="179.85" cy="319.04" r="10.63" style="fill: #f2ce6e;"/>
      <circle cx="149.81" cy="319.04" r="10.63" style="fill: #f2ce6e;"/>
    </g>
    <g>
      <circle cx="90.39" cy="317.86" r="10.63" style="fill: #f2ce6e;"/>
      <circle cx="119.25" cy="317.86" r="10.63" style="fill: #f2ce6e;"/>
      <circle cx="60.35" cy="317.86" r="10.63" style="fill: #f2ce6e;"/>
      <circle cx="29.39" cy="317.86" r="10.63" style="fill: #f2ce6e;"/>
      <circle cx="-.65" cy="317.86" r="10.63" style="fill: #f2ce6e;"/>
    </g>
  </g>
</svg>