<?xml version="1.0" encoding="UTF-8"?>
<svg id="Layer_1" data-name="Layer 1" xmlns="http://www.w3.org/2000/svg" viewBox="0 0 1920 355">
  <path d="m756.58.24c-7.76,23.76.35,68.87-31.87,96.24-2.26,1.92-12.6,9.47-35.81,18.48-28.96,11.24-61.59,21.35-77.91,47.78-6.54,10.58-9.73,22.85-12.54,34.97-1.82,7.84-3.51,16.01-1.74,23.86,2.02,8.95,8.4,16.41,15.88,21.71,15.49,10.97,35.64,13.67,54.48,11.35s36.77-9.22,54.48-16.06c14.12-5.46,28.6-11.13,39.8-21.32,10.33-9.41,17.11-21.98,25.23-33.36,23.75-33.29,59.88-56.8,99.03-68.59,39.15-11.79,81.18-12.32,121.45-5.23,26.46,4.66,52.31,12.54,78.92,16.2,26.61,3.67,54.8,2.82,78.84-9.17,22.79-11.37,35.33-27.05,55.39-53.16,27.57-35.88,43.22-56.24,40.72-72.36-12.26-79.22-469.41-98.38-504.35,8.66Z" style="fill: #e9d6dc;"/>
  <path d="m1742.53-180.64c-5.07,1.75-4.07,5.15-58.97,79.99-13.65,18.61-22.13,29.87-36.91,40.54-18.64,13.46-41.65,19.16-64.15,23.89-92.22,19.37-192.26,29.67-264.54,90.14-15.97,13.36-30.62,29.83-35.52,50.06-7.18,29.71,8.22,60.36,27.68,83.94,22.74,27.57,52.19,50.21,86.09,61.52,33.9,11.31,72.35,10.59,104.33-5.36,18.09-9.02,33.55-22.45,50.38-33.63,39.53-26.27,87.25-40.04,134.7-38.86,28.86.71,53.16,5.72,77.39,21.41.15.1,5,6,157.98,5.9l245.08,26.22c-151.57-4.25-150.9-5.12-151.22-5.94-76.06-195.85-229.13-414.72-272.31-399.82Z" style="fill: #e49eb9;"/>
  <path d="m-169.09,167.45c1.52,1.41,62.39-38.69,111.1-14.97,32.23,15.7,33.05,40.13,80.01,77.54,18.15,14.46,40.59,22.35,62.9,28.73,23.95,6.86,49.5,12.27,73.55,5.81,26.46-7.11,46.94-27.33,68.75-43.91,49.86-37.89,112.29-58.94,174.91-58.97,43.84-.02,91.42,9.08,128.73-13.94,19.47-12.01,29.39-28.72,32.71-34.21,20.02-33.08,24.09-77.02,13.77-89.49-205.43-248.23-899.76.96-746.44,143.41Z" style="fill: #0137bb;"/>
  <path d="m779.42-144.08c20.36,30.23,21.94,70.47,7.56,103.51-7.2,16.54-18.5,31.17-33.16,41.75-16.24,11.73-35.56,19.45-49.59,34.1-14.79,15.45-20.62,37.99-23.09,58.68-2.55,21.34-.72,43.23,5.25,63.87s15.34,39.53,29.2,55.13c6.56,7.39,14.29,13.89,23.17,18.32,9.87,4.92,20.79,6.78,31.75,6.78s21.64-1.5,32.25-3.39c9.39-1.67,18.7-3.9,27.73-6.99,17.02-5.82,33.55-14.89,44.78-29.29,22.79-29.22,14.14-68.08,8.91-101.6-2.8-17.97-5.39-36.68-1.85-54.73,1.71-8.71,4.96-17.09,9.91-24.48,6.24-9.32,14.95-16.71,24.32-22.74,39.12-25.18,87.54-32.91,133.22-34.63,51.16-1.92,102.27,3.88,153.43,1.79,21.4-.87,45.09-1.94,62.74-15.61,14.48-11.22,22.3-28.56,27.32-45.72,2.65-9.08,4.6-18.34,6.41-27.62.15-.79-1.06-1.13-1.22-.33-3.63,18.63-7.74,37.9-17.53,54.41-4.85,8.17-11.2,15.46-19.16,20.71-9.54,6.3-20.77,9.28-31.98,10.84-24.89,3.47-50.57,2.82-75.63,2.16-25.66-.67-51.3-2.07-76.98-2.26-45.43-.33-92.13,3.38-134.41,21.25-18.37,7.77-37.44,18.03-49.64,34.31-10.43,13.92-13.93,31.11-13.72,48.21.22,17.77,3.74,35.31,6.42,52.82,2.72,17.81,5.02,36.37,1.3,54.21-3.85,18.46-14.77,33.84-30.38,44.29-15.78,10.56-34.48,16.13-53,19.54-22.18,4.09-46.79,6.99-67.27-4.58-18.46-10.42-31.28-29.11-40.12-47.91-9.45-20.08-14.52-42.18-15.02-64.35-.49-21.83,2.98-45.49,13.08-65.07s29.14-29.73,47.29-40.72c15.3-9.26,28.59-20.23,38.32-35.41,18.29-28.53,22.98-65.92,11.59-97.92-2.76-7.76-6.48-15.14-11.09-21.98-.45-.67-1.54-.04-1.09.64h0Z"/>
  <path d="m-117.33-21.37C-91.06-13.95-67.35,1.23-49.16,21.53c9.18,10.25,16.94,21.78,22.87,34.21s9.55,25.59,12.35,39.03c5.3,25.53,8.21,53.77,25.24,74.74,17.91,22.06,47.19,28.29,73.73,33.19,29.44,5.43,61.8,11.1,90.22-1.6,13.68-6.11,24.99-16.19,36.1-26.01s23.57-19.78,36.91-27.67c26.33-15.59,56.08-25.41,86.52-28.57,14.69-1.52,29.49-1.46,44.17.13s29.65,4.37,44.51,6.3c26.92,3.5,56.62,4.5,79.27-12.97,20.8-16.04,29.07-42.54,33.97-67.28,1.27-6.41,2.33-12.85,3.34-19.3.07-.47-.65-.68-.72-.2-4.09,26.11-8.94,54.7-26.25,75.71-8.94,10.85-21.05,18.49-34.59,22.2-13.74,3.76-28.21,3.73-42.3,2.5-29.07-2.54-57.46-9.83-86.81-8.84-28.75.97-57.25,7.9-83.3,20.08-13.4,6.27-26.14,13.93-37.92,22.89s-22.56,19.92-34.56,29.01c-12.9,9.77-27.32,16.08-43.44,18.06s-32.17.3-47.98-2.2c-14.48-2.29-29.08-4.8-43.23-8.65-13.91-3.78-27.71-9.28-38.78-18.76C-1.17,159.27-6.19,130.58-11.25,104.45c-2.57-13.29-5.26-26.62-10.16-39.29-4.64-12-10.96-23.33-18.63-33.65C-55.39,10.87-76.15-5.8-99.81-15.97c-5.64-2.42-11.42-4.45-17.32-6.12-.47-.13-.66.59-.2.72h0Z"/>
  <path d="m1928.74,115.67c6.92,8.68,10.64,19.4,12.51,30.23,3.86,22.32,1.21,45.68.15,68.15-.23,4.83-.45,9.68-.66,14.54.51-.2,1.03-.39,1.54-.59.93-21.1,2.8-42.32,2.2-63.43-.56-19.69-4.46-40.7-19.2-54.94-15.14-14.61-37.93-20.55-57.84-25.27-20.82-4.94-42.21-7.49-63.61-7.73-42.83-.49-85.76,8.28-124.93,25.62-20,8.85-38.93,19.98-56.37,33.17-19.34,14.63-37.34,31.26-59.22,42.16-22.99,11.45-48.52,18.02-73.06,25.27-25.27,7.47-50.9,14.19-77.08,17.55-12.81,1.64-25.73,2.47-38.65,2.17-6.84-.16-14.12-.24-19.16-5.58-4.07-4.31-6.44-10.29-8.39-15.79-8.11-22.91-6.04-48.45,5.32-69.87,22.4-42.25,69.18-61.4,109.84-81.28,41.49-20.28,78.89-47.07,109.79-81.55,7.25-8.09,14.09-16.54,20.54-25.28.57-.78-.73-1.53-1.3-.76-27.97,37.89-63.79,69.84-104.7,93.18-41.06,23.42-89.23,37.64-121.18,74.37-14.09,16.2-23.55,36.01-24.65,57.66-.6,11.69,1.12,23.52,5.1,34.52,3.3,9.13,7.88,19.06,18.35,21.1,5.81,1.13,12.03.89,17.92.83,6.57-.06,13.13-.4,19.67-.98,12.72-1.12,25.36-3.11,37.87-5.69,25.96-5.34,51.33-13.12,76.63-20.91,24.24-7.46,47.8-15.58,68.77-30.21,19.62-13.69,37.18-30.05,57.43-42.89,37.89-24.03,81.47-38.82,126.04-43.61,43.73-4.7,90.57-.47,131.59,16.12,10.87,4.39,21.33,10.43,28.73,19.72Z"/>
  <g>
    <g>
      <circle cx="1651.62" cy="-4.21" r="10.63" style="fill: #f2ce6e;"/>
      <circle cx="1622.76" cy="-4.21" r="10.63" style="fill: #f2ce6e;"/>
      <circle cx="1681.66" cy="-4.21" r="10.63" style="fill: #f2ce6e;"/>
      <circle cx="1712.62" cy="-4.21" r="10.63" style="fill: #f2ce6e;"/>
      <circle cx="1742.65" cy="-4.21" r="10.63" style="fill: #f2ce6e;"/>
    </g>
    <g>
      <circle cx="1803.13" cy="-4.21" r="10.63" style="fill: #f2ce6e;"/>
      <circle cx="1774.4" cy="-4.21" r="10.63" style="fill: #f2ce6e;"/>
      <circle cx="1833.3" cy="-4.21" r="10.63" style="fill: #f2ce6e;"/>
      <circle cx="1864.12" cy="-4.21" r="10.63" style="fill: #f2ce6e;"/>
      <circle cx="1894.16" cy="-4.21" r="10.63" style="fill: #f2ce6e;"/>
    </g>
    <g>
      <circle cx="1651.62" cy="23.34" r="10.63" style="fill: #f2ce6e;"/>
      <circle cx="1622.76" cy="23.34" r="10.63" style="fill: #f2ce6e;"/>
      <circle cx="1681.66" cy="23.34" r="10.63" style="fill: #f2ce6e;"/>
      <circle cx="1712.62" cy="23.34" r="10.63" style="fill: #f2ce6e;"/>
      <circle cx="1742.65" cy="23.34" r="10.63" style="fill: #f2ce6e;"/>
    </g>
    <g>
      <circle cx="1803.13" cy="23.34" r="10.63" style="fill: #f2ce6e;"/>
      <circle cx="1774.27" cy="23.34" r="10.63" style="fill: #f2ce6e;"/>
      <circle cx="1833.17" cy="23.34" r="10.63" style="fill: #f2ce6e;"/>
      <circle cx="1864.12" cy="23.34" r="10.63" style="fill: #f2ce6e;"/>
      <circle cx="1894.16" cy="23.34" r="10.63" style="fill: #f2ce6e;"/>
    </g>
    <g>
      <circle cx="1650.96" cy="54.95" r="10.63" style="fill: #f2ce6e;"/>
      <circle cx="1622.23" cy="54.95" r="10.63" style="fill: #f2ce6e;"/>
      <circle cx="1681.13" cy="54.95" r="10.63" style="fill: #f2ce6e;"/>
      <circle cx="1711.96" cy="54.95" r="10.63" style="fill: #f2ce6e;"/>
      <circle cx="1742" cy="54.95" r="10.63" style="fill: #f2ce6e;"/>
    </g>
    <g>
      <circle cx="1802.6" cy="54.95" r="10.63" style="fill: #f2ce6e;"/>
      <circle cx="1773.74" cy="54.95" r="10.63" style="fill: #f2ce6e;"/>
      <circle cx="1832.64" cy="54.95" r="10.63" style="fill: #f2ce6e;"/>
      <circle cx="1863.47" cy="54.95" r="10.63" style="fill: #f2ce6e;"/>
      <circle cx="1893.51" cy="54.95" r="10.63" style="fill: #f2ce6e;"/>
    </g>
    <g>
      <circle cx="1650.96" cy="82.37" r="10.63" style="fill: #f2ce6e;"/>
      <circle cx="1622.1" cy="82.37" r="10.63" style="fill: #f2ce6e;"/>
      <circle cx="1681" cy="82.37" r="10.63" style="fill: #f2ce6e;"/>
      <circle cx="1711.96" cy="82.37" r="10.63" style="fill: #f2ce6e;"/>
      <circle cx="1742" cy="82.37" r="10.63" style="fill: #f2ce6e;"/>
    </g>
    <g>
      <circle cx="1802.47" cy="82.37" r="10.63" style="fill: #f2ce6e;"/>
      <circle cx="1773.74" cy="82.37" r="10.63" style="fill: #f2ce6e;"/>
      <circle cx="1832.64" cy="82.37" r="10.63" style="fill: #f2ce6e;"/>
      <circle cx="1863.47" cy="82.37" r="10.63" style="fill: #f2ce6e;"/>
      <circle cx="1893.51" cy="82.37" r="10.63" style="fill: #f2ce6e;"/>
    </g>
    <g>
      <circle cx="1652.01" cy="111.36" r="10.63" style="fill: #f2ce6e;"/>
      <circle cx="1623.15" cy="111.36" r="10.63" style="fill: #f2ce6e;"/>
      <circle cx="1682.05" cy="111.36" r="10.63" style="fill: #f2ce6e;"/>
      <circle cx="1712.88" cy="111.36" r="10.63" style="fill: #f2ce6e;"/>
      <circle cx="1742.92" cy="111.36" r="10.63" style="fill: #f2ce6e;"/>
    </g>
    <g>
      <circle cx="1801.55" cy="112.4" r="10.63" style="fill: #f2ce6e;"/>
      <circle cx="1772.69" cy="112.4" r="10.63" style="fill: #f2ce6e;"/>
      <circle cx="1831.59" cy="112.4" r="10.63" style="fill: #f2ce6e;"/>
      <circle cx="1862.42" cy="112.4" r="10.63" style="fill: #f2ce6e;"/>
      <circle cx="1892.46" cy="112.4" r="10.63" style="fill: #f2ce6e;"/>
    </g>
    <g>
      <circle cx="1653.19" cy="140.21" r="10.63" style="fill: #f2ce6e;"/>
      <circle cx="1624.33" cy="140.21" r="10.63" style="fill: #f2ce6e;"/>
      <circle cx="1683.23" cy="140.21" r="10.63" style="fill: #f2ce6e;"/>
      <circle cx="1714.06" cy="140.21" r="10.63" style="fill: #f2ce6e;"/>
      <circle cx="1744.1" cy="140.21" r="10.63" style="fill: #f2ce6e;"/>
    </g>
    <g>
      <circle cx="1803.52" cy="141.39" r="10.63" style="fill: #f2ce6e;"/>
      <circle cx="1774.66" cy="141.39" r="10.63" style="fill: #f2ce6e;"/>
      <circle cx="1833.56" cy="141.39" r="10.63" style="fill: #f2ce6e;"/>
      <circle cx="1864.52" cy="141.39" r="10.63" style="fill: #f2ce6e;"/>
      <circle cx="1894.56" cy="141.39" r="10.63" style="fill: #f2ce6e;"/>
    </g>
  </g>
</svg>