<?xml version="1.0" encoding="UTF-8"?>
<svg id="Layer_1" data-name="Layer 1" xmlns="http://www.w3.org/2000/svg" viewBox="0 0 1125 2436">
  <rect x="1.5" y="-.5" width="1125" height="2436" style="fill: #f5e9db; stroke: #000; stroke-miterlimit: 10;"/>
  <circle cx="26" cy="822" r="238" style="fill: #aac6dc; opacity: .62;"/>
  <circle cx="858.5" cy="1193.5" r="322.5" style="fill: #f2ce6e; opacity: .66;"/>
  <circle cx="1041" cy="948" r="137" style="fill: #e9d6dc;"/>
  <g>
    <g style="opacity: .62;">
      <path d="m127.53,949.3c-2.09,8.73-.12,18.28,5.3,25.45s14.13,11.48,23.19,11.76c5.59.17,10.65-1.4,15.65-3.77.83-.4,1-1.76.3-2.36-4.62-3.95-9.24-7.89-13.86-11.84l-22.07-18.85c-1.68-1.43-3.36-2.87-5.04-4.3-.87-.75-2.14-.46-2.51.66s-.69,2.15-.97,3.24c-.48,1.87,2.41,2.67,2.89.8.28-1.09.61-2.17.97-3.24l-2.51.66c4.62,3.95,9.24,7.89,13.86,11.84,7.36,6.28,14.71,12.57,22.07,18.85,1.68,1.43,3.36,2.87,5.04,4.3l.3-2.36c-3.97,1.88-8,3.24-12.43,3.36-4.09.11-8.22-.66-11.98-2.29-7.49-3.26-12.94-9.8-15.08-17.66-1.19-4.4-1.31-9.03-.25-13.46.45-1.88-2.44-2.68-2.89-.8Z" style="fill: #e49eb9;"/>
    </g>
    <g style="opacity: .62;">
      <path d="m207.9,1035.91c3.34,6.76,9.08,12.28,16.1,15.08,3.68,1.47,7.65,2.01,11.59,1.67,4.74-.41,9.3-1.82,13.89-3,1.04-.27,1.53-1.77.66-2.51-4.81-4.11-9.63-8.22-14.44-12.33-7.71-6.59-15.43-13.17-23.14-19.76-1.77-1.51-3.54-3.02-5.3-4.53-.76-.65-2.32-.55-2.51.66-1.27,8.41-.56,16.98,3.15,24.72.83,1.74,3.42.22,2.59-1.51-3.32-6.94-3.99-14.86-2.84-22.4l-2.51.66c4.81,4.11,9.63,8.22,14.44,12.33,7.71,6.59,15.43,13.17,23.14,19.76,1.77,1.51,3.54,3.02,5.3,4.53l.66-2.51c-4.24,1.09-8.48,2.46-12.86,2.87-3.66.34-7.24-.09-10.68-1.41-6.45-2.47-11.62-7.71-14.65-13.84-.86-1.73-3.44-.21-2.59,1.51Z" style="fill: #e49eb9;"/>
    </g>
    <g style="opacity: .62;">
      <path d="m124.13,919.28c-4.08,3.87-8.17,7.73-12.25,11.6-.56.53-.61,1.6,0,2.12,4.95,4.23,9.9,8.46,14.85,12.69l2.15,1.83c.88.75,2.13.46,2.51-.66,1.74-5.15,3.72-10.25,2.55-15.76-1-4.71-3.96-8.85-7.68-11.82-1.49-1.19-3.63.92-2.12,2.12,3.36,2.68,6,6.24,6.91,10.49,1.04,4.89-1.01,9.62-2.55,14.16l2.51-.66c-4.95-4.23-9.9-8.46-14.85-12.69l-2.15-1.83v2.12c4.08-3.87,8.17-7.73,12.25-11.6,1.41-1.33-.72-3.45-2.12-2.12Z" style="fill: #e49eb9;"/>
    </g>
    <g style="opacity: .62;">
      <path d="m252.59,1045.88c-1.31.26-2.61.57-3.9.89-1.04.26-1.53,1.77-.66,2.51,5.16,4.4,10.31,8.81,15.47,13.21,8.21,7.01,16.41,14.02,24.62,21.03,1.87,1.6,3.74,3.19,5.61,4.79.86.73,2.74.36,2.56-1.06-.67-5.29-1.35-10.57-2.02-15.86-.56-4.44-.96-9-2.74-13.15-3.71-8.67-13.73-11.69-22.33-12.84-5.53-.74-11.11-.55-16.59.49-1.89.36-1.09,3.25.8,2.89,8.69-1.65,18.16-.99,26.38,2.42,3.8,1.58,7.07,4.03,8.84,7.83s2.08,7.9,2.59,11.88c.69,5.45,1.39,10.9,2.08,16.35l2.56-1.06c-5.16-4.4-10.31-8.81-15.47-13.21-8.21-7.01-16.41-14.02-24.62-21.03-1.87-1.6-3.74-3.19-5.61-4.79l-.66,2.51c1.3-.33,2.59-.63,3.9-.89,1.89-.38,1.09-3.27-.8-2.89Z" style="fill: #e49eb9;"/>
    </g>
    <g style="opacity: .62;">
      <path d="m210.6,993.62c-1.56-7.57-9.07-12.07-15.6-14.99-3.9-1.74-8.14-3.08-12.46-2.74s-8.43,2.37-12.39,4.26c-.83.4-1,1.76-.3,2.36,3.98,3.4,7.97,6.81,11.95,10.21l18.96,16.19c1.46,1.25,2.93,2.5,4.39,3.75.76.65,2.31.55,2.51-.66.98-6.09,4-12.11,2.95-18.37-.32-1.9-3.21-1.09-2.89.8.48,2.85-.22,5.7-.98,8.43s-1.51,5.5-1.97,8.34l2.51-.66c-3.98-3.4-7.97-6.81-11.95-10.21-6.32-5.4-12.64-10.79-18.96-16.19-1.46-1.25-2.93-2.5-4.39-3.75l-.3,2.36c3.45-1.65,7-3.53,10.87-3.85s7.83.89,11.36,2.52c5.67,2.61,12.44,6.37,13.81,13.01.39,1.89,3.28,1.09,2.89-.8Z" style="fill: #e49eb9;"/>
    </g>
  </g>
  <g>
    <g style="opacity: .62;">
      <path d="m1032.05,904.13c-.06-8.77-4.11-17.4-10.83-23.05-7.07-5.95-16.58-8.1-25.59-6.23-5.54,1.15-10.13,3.92-14.46,7.46-.73.59-.5,1.95.3,2.36,5.43,2.72,10.86,5.45,16.29,8.17,8.65,4.34,17.3,8.67,25.94,13.01l5.92,2.97c1.06.53,2.17-.13,2.26-1.3s.15-2.25.16-3.38c.02-1.93-2.98-1.93-3,0-.01,1.13-.07,2.25-.16,3.38l2.26-1.3c-5.43-2.72-10.86-5.45-16.29-8.17-8.65-4.34-17.3-8.67-25.94-13.01l-5.92-2.97.3,2.36c3.45-2.82,7.08-5.1,11.42-6.27,3.97-1.08,8.22-1.29,12.28-.55,8.02,1.47,14.8,6.53,18.7,13.67,2.16,3.95,3.33,8.36,3.36,12.86.01,1.93,3.01,1.93,3,0Z" style="fill: #aac6dc;"/>
    </g>
    <g style="opacity: .62;">
      <path d="m933.24,839.33c-4.99-5.9-12.12-9.94-19.82-10.84-8.88-1.04-16.34,3.44-23.86,7.48-.96.51-1,2.09,0,2.59,5.66,2.84,11.32,5.68,16.98,8.51,9.07,4.55,18.13,9.09,27.2,13.64,2.08,1.04,4.16,2.08,6.23,3.13.92.46,2.37-.08,2.26-1.3-.78-8.46-3.55-16.61-8.99-23.22-1.23-1.49-3.34.64-2.12,2.12,4.89,5.94,7.42,13.5,8.12,21.09l2.26-1.3c-5.66-2.84-11.32-5.68-16.98-8.51-9.07-4.55-18.13-9.09-27.2-13.64-2.08-1.04-4.16-2.08-6.23-3.13v2.59c6.95-3.74,13.75-7.95,21.97-7.11,7.05.72,13.55,4.65,18.07,10,1.25,1.48,3.36-.65,2.12-2.12Z" style="fill: #aac6dc;"/>
    </g>
    <g style="opacity: .62;">
      <path d="m1042.55,932.48c3.04-4.73,6.08-9.46,9.12-14.2.42-.65.17-1.7-.54-2.05-5.81-2.92-11.63-5.83-17.44-8.75-.85-.42-1.69-.85-2.54-1.27-1.07-.53-2.16.13-2.26,1.3-.46,5.55-1.16,11.1,1.49,16.24,2.14,4.15,5.91,7.34,10.12,9.27,1.74.8,3.27-1.78,1.51-2.59-3.78-1.74-7.11-4.45-9.04-8.19-2.36-4.59-1.5-9.8-1.08-14.73l-2.26,1.3c5.81,2.92,11.63,5.83,17.44,8.75.85.42,1.69.85,2.54,1.27l-.54-2.05c-3.04,4.73-6.08,9.46-9.12,14.2-1.05,1.63,1.55,3.14,2.59,1.51Z" style="fill: #aac6dc;"/>
    </g>
    <g style="opacity: .62;">
      <path d="m887.5,840.37c1.21-.57,2.4-1.17,3.58-1.8.96-.51,1-2.09,0-2.59-6.06-3.04-12.12-6.08-18.18-9.12-9.65-4.84-19.29-9.67-28.94-14.51-2.2-1.1-4.39-2.2-6.59-3.3-1.05-.53-2.71.37-2.2,1.69,1.95,5.05,3.9,10.1,5.85,15.15,1.57,4.06,3.03,8.3,5.68,11.8,5.73,7.56,16.21,8.15,24.92,7.14,5.52-.64,10.84-2.14,15.88-4.46,1.75-.8.23-3.39-1.51-2.59-8.02,3.68-17.45,5.35-26.21,3.95-4.02-.64-7.75-2.18-10.37-5.41s-3.89-7.07-5.33-10.78c-2.01-5.2-4.02-10.4-6.03-15.6l-2.2,1.69c6.06,3.04,12.12,6.08,18.18,9.12,9.65,4.84,19.29,9.67,28.94,14.51,2.2,1.1,4.39,2.2,6.59,3.3v-2.59c-1.18.63-2.37,1.23-3.58,1.8-1.75.82-.23,3.41,1.51,2.59Z" style="fill: #aac6dc;"/>
    </g>
    <g style="opacity: .62;">
      <path d="m940.78,881.07c3.29,6.91,11.57,9.47,18.53,10.76,4.35.81,8.96,1.1,13.21-.38s7.44-4.31,10.77-7.04c.72-.59.5-1.95-.3-2.36-4.68-2.35-9.37-4.7-14.05-7.05-7.43-3.72-14.86-7.45-22.28-11.17-1.72-.86-3.44-1.73-5.16-2.59-.93-.47-2.36.08-2.26,1.3.51,6.14-.98,12.7,1.56,18.52.77,1.77,3.35.24,2.59-1.51-1.12-2.58-1.14-5.46-1.07-8.23.08-2.94.16-5.85-.08-8.78l-2.26,1.3c4.68,2.35,9.37,4.7,14.05,7.05l22.28,11.17c1.72.86,3.44,1.73,5.16,2.59l-.3-2.36c-2.96,2.43-5.96,5.12-9.66,6.34s-7.95.98-11.85.22c-6.08-1.19-13.4-3.23-16.29-9.3-.83-1.74-3.42-.22-2.59,1.51Z" style="fill: #aac6dc;"/>
    </g>
  </g>
</svg>